<svg width="120" height="164" viewBox="0 0 120 164" fill="none" xmlns="http://www.w3.org/2000/svg">
<g filter="url(#filter0_ddd_368_27793)">
<path d="M59.9316 105.875C86.4036 105.875 107.863 84.6365 107.863 58.4375C107.863 32.2385 86.4036 11 59.9316 11C33.4597 11 12 32.2385 12 58.4375C12 84.6365 33.4597 105.875 59.9316 105.875Z" fill="#84DBFF"/>
<path d="M89.4297 28.8688C88.975 28.925 78.3088 30.4438 75.3344 33.3875C72.2842 36.4063 72.0189 41.0563 74.766 43.775C75.9975 44.9938 77.6646 45.65 79.4834 45.65C79.635 45.65 79.7676 45.65 79.9191 45.6313C81.8895 45.5188 83.784 44.6563 85.2617 43.1938C88.2361 40.25 89.7707 29.6938 89.8275 29.2438L89.8844 28.7938L89.4297 28.8688Z" fill="#FF7058"/>
<path d="M73.9513 44.4125C72.5493 43.0625 70.5979 42.3687 68.4761 42.4625C65.8806 42.575 63.2661 43.8875 61.4853 45.95L59.856 47.825V52.4563C59.856 55.7938 62.603 58.4937 65.9563 58.4937H70.5979L72.7956 56.6375C74.8417 54.9125 76.0542 52.4937 76.13 49.9625C76.2247 47.825 75.429 45.8375 73.9513 44.4125Z" fill="#324A5E"/>
<path d="M36.5721 75.5187L36.288 75.1437L31.1727 81.0687C29.6003 82.8875 29.5813 85.4187 31.1159 86.9375C31.8737 87.6875 32.8778 88.0625 33.9387 88.0625C35.0186 88.0625 36.1175 87.6687 37.0458 86.8812L43.0325 81.8187L42.6536 81.5375C40.3423 79.8312 38.2962 77.8062 36.5721 75.5187Z" fill="#324A5E"/>
<path d="M88.5202 60.0875C87.3456 58.6063 85.5837 57.7625 83.6892 57.7625H65.9753C63.0198 57.7625 60.6138 55.3813 60.6138 52.4563V34.925C60.6138 33.05 59.7613 31.3063 58.2646 30.1438C56.8058 29.0188 54.9681 28.6063 53.1872 29.0188C38.8646 32.4125 29.1267 45.4625 30.055 60.05C31.0023 75.0688 43.1462 87.0875 58.3214 88.025C58.9655 88.0625 59.6097 88.0813 60.2349 88.0813C74.1976 88.0813 86.3984 78.6875 89.6759 65.1313C90.0927 63.3688 89.6759 61.5313 88.5202 60.0875Z" fill="#FFD05B"/>
<path d="M49.9664 45.2938C52.3625 45.2938 54.3049 43.3714 54.3049 41C54.3049 38.6286 52.3625 36.7063 49.9664 36.7063C47.5703 36.7063 45.6279 38.6286 45.6279 41C45.6279 43.3714 47.5703 45.2938 49.9664 45.2938Z" fill="#324A5E"/>
<path d="M42.0663 58.4563C44.4623 58.4563 46.4047 56.5339 46.4047 54.1625C46.4047 51.7912 44.4623 49.8688 42.0663 49.8688C39.6702 49.8688 37.7278 51.7912 37.7278 54.1625C37.7278 56.5339 39.6702 58.4563 42.0663 58.4563Z" fill="#4CDBC4"/>
<path d="M43.7713 73.175C46.1674 73.175 48.1098 71.2527 48.1098 68.8813C48.1098 66.5099 46.1674 64.5875 43.7713 64.5875C41.3753 64.5875 39.4329 66.5099 39.4329 68.8813C39.4329 71.2527 41.3753 73.175 43.7713 73.175Z" fill="#2FB5A0"/>
<path d="M55.8963 56.5438C52.4293 56.5438 49.6064 59.3375 49.6064 62.7688C49.6064 66.2 52.4293 68.9938 55.8963 68.9938C59.3633 68.9938 62.1861 66.2 62.1861 62.7688C62.1861 59.3375 59.3633 56.5438 55.8963 56.5438Z" fill="#F1543F"/>
<path d="M54.305 83.1688C56.7011 83.1688 58.6435 81.2464 58.6435 78.875C58.6435 76.5036 56.7011 74.5813 54.305 74.5813C51.909 74.5813 49.9666 76.5036 49.9666 78.875C49.9666 81.2464 51.909 83.1688 54.305 83.1688Z" fill="#CED5E0"/>
<path d="M68.8551 80.5438C71.2512 80.5438 73.1936 78.6214 73.1936 76.25C73.1936 73.8786 71.2512 71.9563 68.8551 71.9563C66.459 71.9563 64.5166 73.8786 64.5166 76.25C64.5166 78.6214 66.459 80.5438 68.8551 80.5438Z" fill="white"/>
<path d="M78.3277 70.625C80.7238 70.625 82.6662 68.7026 82.6662 66.3313C82.6662 63.9599 80.7238 62.0375 78.3277 62.0375C75.9317 62.0375 73.9893 63.9599 73.9893 66.3313C73.9893 68.7026 75.9317 70.625 78.3277 70.625Z" fill="#FF7058"/>
<path d="M49.5859 141.141L46.1875 151H44.1328L48.4141 139.625H49.7266L49.5859 141.141ZM52.4297 151L49.0234 141.141L48.875 139.625H50.1953L54.4922 151H52.4297ZM52.2656 146.781V148.336H46.0781V146.781H52.2656ZM55.9156 139.625H59.9391C60.8036 139.625 61.5406 139.755 62.15 140.016C62.7594 140.276 63.2255 140.661 63.5484 141.172C63.8766 141.677 64.0406 142.302 64.0406 143.047C64.0406 143.615 63.9365 144.115 63.7281 144.547C63.5198 144.979 63.2255 145.344 62.8453 145.641C62.4651 145.932 62.012 146.159 61.4859 146.32L60.8922 146.609H57.275L57.2594 145.055H59.9703C60.4391 145.055 60.8297 144.971 61.1422 144.805C61.4547 144.638 61.6891 144.411 61.8453 144.125C62.0068 143.833 62.0875 143.505 62.0875 143.141C62.0875 142.745 62.0094 142.401 61.8531 142.109C61.7021 141.812 61.4677 141.586 61.15 141.43C60.8323 141.268 60.4286 141.188 59.9391 141.188H57.8766V151H55.9156V139.625ZM62.4078 151L59.7359 145.891L61.7906 145.883L64.5016 150.898V151H62.4078ZM70.2922 139.625V151H68.3469V139.625H70.2922ZM73.8625 139.625V141.188H64.8078V139.625H73.8625Z" fill="#263238"/>
</g>
<defs>
<filter id="filter0_ddd_368_27793" x="0" y="0" width="119.863" height="164" filterUnits="userSpaceOnUse" color-interpolation-filters="sRGB">
<feFlood flood-opacity="0" result="BackgroundImageFix"/>
<feColorMatrix in="SourceAlpha" type="matrix" values="0 0 0 0 0 0 0 0 0 0 0 0 0 0 0 0 0 0 127 0" result="hardAlpha"/>
<feOffset dy="1"/>
<feGaussianBlur stdDeviation="6"/>
<feColorMatrix type="matrix" values="0 0 0 0 0 0 0 0 0 0 0 0 0 0 0 0 0 0 0.04 0"/>
<feBlend mode="normal" in2="BackgroundImageFix" result="effect1_dropShadow_368_27793"/>
<feColorMatrix in="SourceAlpha" type="matrix" values="0 0 0 0 0 0 0 0 0 0 0 0 0 0 0 0 0 0 127 0" result="hardAlpha"/>
<feOffset dy="4"/>
<feGaussianBlur stdDeviation="4"/>
<feColorMatrix type="matrix" values="0 0 0 0 0 0 0 0 0 0 0 0 0 0 0 0 0 0 0.08 0"/>
<feBlend mode="normal" in2="effect1_dropShadow_368_27793" result="effect2_dropShadow_368_27793"/>
<feColorMatrix in="SourceAlpha" type="matrix" values="0 0 0 0 0 0 0 0 0 0 0 0 0 0 0 0 0 0 127 0" result="hardAlpha"/>
<feOffset dy="3"/>
<feGaussianBlur stdDeviation="3"/>
<feColorMatrix type="matrix" values="0 0 0 0 0 0 0 0 0 0 0 0 0 0 0 0 0 0 0.1 0"/>
<feBlend mode="normal" in2="effect2_dropShadow_368_27793" result="effect3_dropShadow_368_27793"/>
<feBlend mode="normal" in="SourceGraphic" in2="effect3_dropShadow_368_27793" result="shape"/>
</filter>
</defs>
</svg>
