<svg width="120" height="165" viewBox="0 0 120 165" fill="none" xmlns="http://www.w3.org/2000/svg">
<g filter="url(#filter0_ddd_368_27794)">
<path d="M60 107C86.5097 107 108 85.5097 108 59C108 32.4903 86.5097 11 60 11C33.4903 11 12 32.4903 12 59C12 85.5097 33.4903 107 60 107Z" fill="#494CB5"/>
<path d="M80.8362 23.3994H39.1638C37.2464 23.3994 35.7124 24.9334 35.7124 26.8508V91.0852C35.7124 93.0026 37.2464 94.5366 39.1638 94.5366H80.7723C82.6898 94.5366 84.2237 93.0026 84.2237 91.0852V26.9148C84.2876 24.9973 82.7537 23.3994 80.8362 23.3994Z" fill="white"/>
<path d="M43.2543 35.5434C42.6151 35.5434 42.0399 35.9269 41.7203 36.4382C41.4007 35.9269 40.8255 35.5434 40.1863 35.5434C39.2276 35.5434 38.3967 36.3743 38.3967 37.333C38.3967 38.2917 40.0585 39.7618 41.7203 41.4875C43.446 39.7618 45.0439 38.3556 45.0439 37.333C45.0439 36.3743 44.213 35.5434 43.2543 35.5434Z" fill="#F0582F"/>
<path d="M40.3782 32.2198L39.8669 33.4342H38.9082L41.2731 28.0653H42.2318L44.5966 33.4342H43.6379L43.0627 32.2198H40.3782ZM42.6792 31.3889L41.7205 29.1519L40.7617 31.3889H42.6792Z" fill="#F0582F"/>
<path d="M76.7457 82.4568C77.3848 82.4568 77.96 82.0733 78.2796 81.562C78.5992 82.0733 79.1744 82.4568 79.8136 82.4568C80.7723 82.4568 81.6032 81.6259 81.6032 80.6672C81.6032 79.7085 80.0053 78.2385 78.2796 76.5128C76.5539 78.2385 74.9561 79.6446 74.9561 80.6672C74.9561 81.6259 75.7869 82.4568 76.7457 82.4568Z" fill="#F0582F"/>
<path d="M79.6219 85.7804L80.1333 84.566H81.092L78.7271 89.9348H77.7684L75.4036 84.566H76.3623L76.8736 85.7804H79.6219ZM77.321 86.6112L78.2797 88.8483L79.2385 86.6112H77.321Z" fill="#F0582F"/>
<path d="M64.5379 50.3716C62.6204 50.3716 60.8947 51.4581 59.9999 52.9921C59.1051 51.3942 57.4433 50.3716 55.462 50.3716C52.5858 50.3716 50.2209 52.7364 50.2209 55.6126C50.2209 58.4887 54.9506 62.7071 59.936 67.6925C64.9853 62.6432 69.651 58.4887 69.651 55.6126C69.715 52.6725 67.414 50.3716 64.5379 50.3716Z" fill="#F0582F"/>
<path d="M42.9656 145.188V149.531C42.8042 149.745 42.5516 149.979 42.2078 150.234C41.8693 150.484 41.4188 150.701 40.8563 150.883C40.2938 151.065 39.5932 151.156 38.7547 151.156C38.0411 151.156 37.3875 151.036 36.7938 150.797C36.2 150.552 35.687 150.195 35.2547 149.727C34.8276 149.258 34.4969 148.688 34.2625 148.016C34.0281 147.339 33.9109 146.568 33.9109 145.703V144.914C33.9109 144.055 34.0177 143.289 34.2313 142.617C34.45 141.94 34.7625 141.367 35.1688 140.898C35.575 140.43 36.0646 140.076 36.6375 139.836C37.2156 139.591 37.8693 139.469 38.5984 139.469C39.5307 139.469 40.3016 139.625 40.9109 139.938C41.5255 140.245 41.9995 140.672 42.3328 141.219C42.6661 141.766 42.8771 142.391 42.9656 143.094H41.0438C40.9813 142.698 40.8589 142.344 40.6766 142.031C40.4995 141.719 40.2443 141.474 39.9109 141.297C39.5828 141.115 39.1557 141.023 38.6297 141.023C38.1766 141.023 37.7781 141.109 37.4344 141.281C37.0906 141.453 36.8042 141.706 36.575 142.039C36.351 142.372 36.1818 142.779 36.0672 143.258C35.9526 143.737 35.8953 144.284 35.8953 144.898V145.703C35.8953 146.328 35.9604 146.883 36.0906 147.367C36.226 147.852 36.4188 148.26 36.6688 148.594C36.924 148.927 37.2339 149.18 37.5984 149.352C37.963 149.518 38.3745 149.602 38.8328 149.602C39.2807 149.602 39.6479 149.565 39.9344 149.492C40.2208 149.414 40.4474 149.323 40.6141 149.219C40.7859 149.109 40.9188 149.005 41.0125 148.906V146.648H38.6453V145.188H42.9656ZM49.7172 141.141L46.3188 151H44.2641L48.5453 139.625H49.8578L49.7172 141.141ZM52.5609 151L49.1547 141.141L49.0063 139.625H50.3266L54.6234 151H52.5609ZM52.3969 146.781V148.336H46.2094V146.781H52.3969ZM56.8438 139.625H58.5938L61.8828 148.398L65.1641 139.625H66.9141L62.5703 151H61.1797L56.8438 139.625ZM56.0469 139.625H57.7109L58 147.219V151H56.0469V139.625ZM66.0469 139.625H67.7188V151H65.7578V147.219L66.0469 139.625ZM77.6422 149.445V151H71.6031V149.445H77.6422ZM72.1578 139.625V151H70.1969V139.625H72.1578ZM76.8531 144.375V145.906H71.6031V144.375H76.8531ZM77.6031 139.625V141.188H71.6031V139.625H77.6031ZM85.3781 148.07C85.3781 147.836 85.3417 147.628 85.2687 147.445C85.201 147.263 85.0786 147.096 84.9016 146.945C84.7245 146.794 84.4745 146.648 84.1516 146.508C83.8339 146.362 83.4276 146.214 82.9328 146.062C82.3911 145.896 81.8911 145.711 81.4328 145.508C80.9797 145.299 80.5839 145.06 80.2453 144.789C79.9068 144.513 79.6437 144.198 79.4562 143.844C79.2687 143.484 79.175 143.07 79.175 142.602C79.175 142.138 79.2714 141.716 79.4641 141.336C79.662 140.956 79.9406 140.628 80.3 140.352C80.6646 140.07 81.0943 139.854 81.5891 139.703C82.0839 139.547 82.6307 139.469 83.2297 139.469C84.0734 139.469 84.8 139.625 85.4094 139.938C86.024 140.25 86.4953 140.669 86.8234 141.195C87.1568 141.721 87.3234 142.302 87.3234 142.938H85.3781C85.3781 142.562 85.2974 142.232 85.1359 141.945C84.9797 141.654 84.7401 141.424 84.4172 141.258C84.0995 141.091 83.6958 141.008 83.2062 141.008C82.7427 141.008 82.3573 141.078 82.05 141.219C81.7427 141.359 81.5135 141.549 81.3625 141.789C81.2115 142.029 81.1359 142.299 81.1359 142.602C81.1359 142.815 81.1854 143.01 81.2844 143.188C81.3833 143.359 81.5344 143.521 81.7375 143.672C81.9406 143.818 82.1958 143.956 82.5031 144.086C82.8104 144.216 83.1724 144.341 83.5891 144.461C84.2193 144.648 84.7687 144.857 85.2375 145.086C85.7062 145.31 86.0969 145.565 86.4094 145.852C86.7219 146.138 86.9562 146.464 87.1125 146.828C87.2687 147.188 87.3469 147.596 87.3469 148.055C87.3469 148.534 87.2505 148.966 87.0578 149.352C86.8651 149.732 86.5891 150.057 86.2297 150.328C85.8755 150.594 85.4484 150.799 84.9484 150.945C84.4536 151.086 83.9016 151.156 83.2922 151.156C82.7453 151.156 82.2062 151.083 81.675 150.938C81.149 150.792 80.6698 150.57 80.2375 150.273C79.8052 149.971 79.4615 149.596 79.2062 149.148C78.951 148.695 78.8234 148.167 78.8234 147.562H80.7844C80.7844 147.932 80.8469 148.247 80.9719 148.508C81.1021 148.768 81.2818 148.982 81.5109 149.148C81.7401 149.31 82.0057 149.43 82.3078 149.508C82.6151 149.586 82.9432 149.625 83.2922 149.625C83.7505 149.625 84.1333 149.56 84.4406 149.43C84.7531 149.299 84.9875 149.117 85.1437 148.883C85.3 148.648 85.3781 148.378 85.3781 148.07Z" fill="#263238"/>
</g>
<defs>
<filter id="filter0_ddd_368_27794" x="0" y="0" width="120" height="164.156" filterUnits="userSpaceOnUse" color-interpolation-filters="sRGB">
<feFlood flood-opacity="0" result="BackgroundImageFix"/>
<feColorMatrix in="SourceAlpha" type="matrix" values="0 0 0 0 0 0 0 0 0 0 0 0 0 0 0 0 0 0 127 0" result="hardAlpha"/>
<feOffset dy="1"/>
<feGaussianBlur stdDeviation="6"/>
<feColorMatrix type="matrix" values="0 0 0 0 0 0 0 0 0 0 0 0 0 0 0 0 0 0 0.04 0"/>
<feBlend mode="normal" in2="BackgroundImageFix" result="effect1_dropShadow_368_27794"/>
<feColorMatrix in="SourceAlpha" type="matrix" values="0 0 0 0 0 0 0 0 0 0 0 0 0 0 0 0 0 0 127 0" result="hardAlpha"/>
<feOffset dy="4"/>
<feGaussianBlur stdDeviation="4"/>
<feColorMatrix type="matrix" values="0 0 0 0 0 0 0 0 0 0 0 0 0 0 0 0 0 0 0.08 0"/>
<feBlend mode="normal" in2="effect1_dropShadow_368_27794" result="effect2_dropShadow_368_27794"/>
<feColorMatrix in="SourceAlpha" type="matrix" values="0 0 0 0 0 0 0 0 0 0 0 0 0 0 0 0 0 0 127 0" result="hardAlpha"/>
<feOffset dy="3"/>
<feGaussianBlur stdDeviation="3"/>
<feColorMatrix type="matrix" values="0 0 0 0 0 0 0 0 0 0 0 0 0 0 0 0 0 0 0.1 0"/>
<feBlend mode="normal" in2="effect2_dropShadow_368_27794" result="effect3_dropShadow_368_27794"/>
<feBlend mode="normal" in="SourceGraphic" in2="effect3_dropShadow_368_27794" result="shape"/>
</filter>
</defs>
</svg>
