<svg width="182" height="74" viewBox="0 0 182 74" fill="none" xmlns="http://www.w3.org/2000/svg">
<path d="M180.82 0C180.82 0 193.042 56.515 138.803 69.9193C84.5635 83.3237 0 59.4125 0 59.4125V0H180.82Z" fill="white"/>
<g clip-path="url(#clip0_285_1745)">
<path d="M107.394 20.4446C106.274 19.6093 104.985 19.1915 103.528 19.1915C102.212 19.1915 101.163 19.6979 100.381 20.7115C99.6521 21.6359 99.2878 22.774 99.2878 24.1246C99.2878 25.387 99.8384 26.3823 100.941 27.1111C101.901 27.7511 103.039 28.0712 104.354 28.0712C105.706 28.0712 106.834 27.7245 107.741 27.0308C108.754 26.2668 109.261 25.2272 109.261 23.9113C109.261 22.5071 108.638 21.3517 107.394 20.4446ZM100.674 30.471C100.212 33.8137 99.9814 37.2885 99.9814 40.8974V44.4705L100.088 47.1367C102.745 47.1367 105.359 46.7277 107.927 45.9108C108.105 43.7414 108.194 41.1275 108.194 38.0708C108.194 37.3772 108.185 36.8444 108.167 36.4711L108.061 34.2305C107.989 32.7373 107.954 31.4486 107.954 30.3644L107.98 30.1775C103.501 30.1775 101.066 30.2755 100.674 30.471ZM109.501 28.9244C109.287 29.1202 109.065 29.2708 108.834 29.3777H108.887L108.861 29.5375L110.141 30.7912L110.008 31.8041C110.008 32.8002 110.042 34.0447 110.114 35.5371L110.22 37.7776C110.238 38.1507 110.247 38.6931 110.247 39.4034C110.247 42.408 110.141 45.1988 109.927 47.777C106.958 48.7191 103.901 49.1904 100.755 49.1904L99.5008 47.9368H99.3413L99.1811 44.4974V40.8974C99.1811 37.2348 99.43 33.5905 99.9278 29.9642C100.283 29.787 101.217 29.6441 102.728 29.5375C102.194 29.3425 101.651 28.969 101.101 28.4176L100.487 27.8043C99.1551 26.8805 98.4882 25.654 98.4882 24.1246C98.4882 22.5605 98.9323 21.2362 99.8206 20.1516C100.763 18.9782 101.999 18.3914 103.528 18.3914C105.181 18.3914 106.63 18.8628 107.874 19.8049C108.407 20.2138 108.852 20.658 109.208 21.1382L109.9 21.8313C110.843 22.774 111.314 23.9113 111.314 25.2447C111.314 26.7738 110.709 28.0001 109.501 28.9244ZM90.6484 19.2712C89.6172 19.2712 87.6704 21.6359 84.8084 26.3646C84.8084 25.7957 84.799 25.3516 84.7819 25.0312L84.675 23.1645C84.6041 21.9208 84.5686 20.8538 84.5686 19.9649V19.2183C81.5699 19.6979 79.3213 19.9915 77.822 20.0981C77.822 20.987 77.822 21.8848 77.822 22.7914C77.822 26.2757 77.5913 30.0534 77.1294 34.1236L75.8492 45.4037C76.809 45.6522 77.9912 45.777 79.3952 45.777C81.7063 45.777 82.9062 45.7856 82.9954 45.8039C83.2621 45.1988 83.3953 44.4079 83.3953 43.4304C83.3953 43.0749 83.3859 42.7724 83.3684 42.5235L83.1818 39.9104C83.1463 39.4131 83.1289 39.1107 83.1289 39.0041C83.1289 38.062 83.2438 37.2437 83.4753 36.5508C84.6484 39.3062 86.0526 42.2213 87.6884 45.2971C88.7723 45.0122 90.0788 44.7458 91.6083 44.4974L95.5278 43.8569C95.457 43.0208 94.4608 41.1369 92.5413 38.2038C91.066 35.9466 89.777 34.0171 88.6748 32.4175C89.7769 29.3955 91.8655 25.5025 94.9414 20.7381L90.6484 19.2712ZM90.8082 33.6706C92.1412 35.6265 93.3684 37.4486 94.4876 39.137C96.4614 42.1413 97.5099 44.3639 97.635 45.8039L93.048 46.5505C91.4305 46.8169 89.9636 47.1279 88.6482 47.4837L87.3683 46.2032C87.3506 46.2207 87.3325 46.2301 87.315 46.2301C87.2973 46.2301 87.2794 46.239 87.2619 46.2572L86.2484 44.337C85.8754 43.6259 85.5641 43.0122 85.3151 42.4972L85.4218 43.8037C85.4398 44.0167 85.4484 44.337 85.4484 44.764C85.4484 45.8839 85.226 46.9412 84.7818 47.9368C84.4263 47.8656 83.0749 47.8301 80.7288 47.8301C79.2354 47.8301 77.7865 47.6435 76.382 47.2702L75.1557 46.0169H75.0488C75.0137 45.9986 74.9871 45.99 74.9685 45.99L76.3288 34.0447C76.7907 29.9911 77.0224 26.2402 77.0224 22.7914V21.4312C77.0224 21.0045 76.9596 20.3113 76.8358 19.3515L77.6893 19.2981C79.2528 19.1915 80.7462 19.0314 82.1688 18.8182L85.3686 18.2848V18.4449L86.6219 19.6979V22.1512C88.3993 19.6979 89.8036 18.4714 90.8348 18.4714L96.1947 20.2847C96.1761 20.3208 96.15 20.3559 96.1149 20.3916L97.3951 21.6716C94.1054 26.7913 91.9102 30.7912 90.8082 33.6706ZM70.4361 20.4446C69.3163 19.6093 68.0272 19.1915 66.5695 19.1915C65.2539 19.1915 64.2055 19.6979 63.4229 20.7115C62.694 21.6359 62.3298 22.774 62.3298 24.1246C62.3298 25.387 62.8804 26.3823 63.983 27.1111C64.9431 27.7511 66.0805 28.0712 67.3961 28.0712C68.7472 28.0712 69.8762 27.7245 70.7828 27.0308C71.7961 26.2668 72.3029 25.2272 72.3029 23.9113C72.3029 22.5071 71.6801 21.3517 70.4361 20.4446ZM63.7161 30.471C63.2539 33.8137 63.0232 37.2885 63.0232 40.8974V44.4705L63.1299 47.1367C65.7875 47.1367 68.4008 46.7277 70.9692 45.9108C71.1467 43.7414 71.2362 41.1275 71.2362 38.0708C71.2362 37.3772 71.227 36.8444 71.2096 36.4711L71.103 34.2305C71.0318 32.7373 70.9961 31.4486 70.9961 30.3644L71.023 30.1775C66.5429 30.1775 64.1074 30.2755 63.7161 30.471ZM72.5427 28.9244C72.3295 29.1202 72.1068 29.2708 71.8764 29.3777H71.9293L71.9028 29.5375L73.183 30.7912L73.0495 31.8041C73.0495 32.8002 73.0849 34.0447 73.1564 35.5371L73.2627 37.7776C73.2802 38.1507 73.2895 38.6931 73.2895 39.4034C73.2895 42.408 73.183 45.1988 72.9692 47.777C70.0006 48.7191 66.9431 49.1904 63.7964 49.1904L62.5431 47.9368H62.3833L62.2233 44.4974V40.8974C62.2233 37.2348 62.4722 33.5905 62.9698 29.9642C63.3257 29.787 64.2583 29.6441 65.7697 29.5375C65.2364 29.3425 64.6936 28.969 64.1428 28.4176L63.5295 27.8043C62.1966 26.8805 61.5298 25.654 61.5298 24.1246C61.5298 22.5605 61.9742 21.2362 62.8629 20.1516C63.8053 18.9782 65.0409 18.3914 66.5695 18.3914C68.223 18.3914 69.6713 18.8628 70.9163 19.8049C71.4497 20.2138 71.8939 20.658 72.2492 21.1382L72.9428 21.8313C73.885 22.774 74.356 23.9113 74.356 25.2447C74.356 26.7738 73.7515 28.0001 72.5427 28.9244ZM58.41 19.1646C55.3702 19.4493 52.7035 19.6276 50.4103 19.6979C50.2148 21.7245 49.8861 23.7607 49.4239 25.8046L48.0639 31.831C47.6729 30.6754 47.388 29.7242 47.2107 28.9776L46.5173 26.071C45.9131 23.5646 45.3529 21.663 44.8375 20.365C44.055 20.1875 42.7393 20.0269 40.8911 19.8846C39.1844 19.7608 38.2864 19.7162 38.1978 19.7514L37.2114 25.9112C36.7846 28.5246 36.2776 30.5336 35.6914 31.9376C35.2647 30.6754 34.6513 28.56 33.8512 25.5911C33.1221 22.8892 32.5002 20.7827 31.9845 19.2712C30.4553 19.5207 28.2159 19.974 25.265 20.6317C26.9 28.1335 28.2604 34.5066 29.3449 39.7507C29.6118 41.0303 29.8602 41.9375 30.0914 42.4706C30.4828 43.3592 31.0067 43.8214 31.6649 43.8569L35.451 44.0167C37.8331 44.1233 39.1222 44.1676 39.3177 44.1501C39.7978 42.9411 40.2065 41.3504 40.5444 39.3774C40.9529 36.9067 41.273 35.2887 41.5045 34.5241C42.0016 35.9995 42.5086 37.8305 43.0245 40.0174C43.8414 43.5547 44.2682 45.3943 44.3036 45.5367L55.53 44.7369L59.29 20.0447L58.41 19.1646ZM60.1167 19.8846L61.3966 21.1382L57.5036 46.7371L45.1042 47.6435L43.824 46.3638L43.7174 46.3899C43.575 45.8743 43.4513 45.3769 43.3444 44.8967L42.4912 41.3239C42.1528 43.1546 41.6994 44.7815 41.131 46.2032H40.3578C39.895 46.2032 38.6949 46.1592 36.758 46.0698C34.4286 45.9629 33.1755 45.91 32.998 45.91C32.4289 45.91 31.9402 45.7051 31.5315 45.2955L30.6248 44.3873C30.1089 44.0663 29.6824 43.5319 29.3449 42.784C28.989 41.6614 28.7312 40.7088 28.5714 39.9252L24.332 20.0216L25.0249 19.8078L27.2386 19.3268C29.3715 18.8638 31.1222 18.5343 32.4916 18.3386C32.527 18.4459 32.5536 18.5166 32.5713 18.5528L33.7715 19.7598C34.5355 21.8338 35.2733 24.3012 35.9846 27.1619L36.0915 27.5908L36.251 26.711C36.3402 26.2491 36.3931 25.947 36.4108 25.8046L37.4244 19.4049C37.7447 19.0851 38.0912 18.9248 38.4647 18.9248C38.7843 18.9248 39.6112 18.9782 40.9443 19.0851C42.8999 19.2449 44.3928 19.4404 45.4241 19.6713L45.5044 19.9115L46.704 21.0848C47.3442 22.7563 47.9041 24.6227 48.3838 26.6844C48.4192 26.5955 48.4372 26.5338 48.4372 26.4977C48.5078 26.1245 48.5793 25.8137 48.6508 25.5645C49.0775 23.3245 49.4148 21.1114 49.6637 18.9248C52.0104 18.8716 55.0238 18.6761 58.7033 18.3386L60.1433 19.7782C60.1433 19.796 60.1341 19.8137 60.1167 19.8317V19.8846Z" fill="#F58332"/>
<path d="M153.419 35.0678C153.419 35.8533 153.448 37.0314 153.505 38.6025C153.564 40.1735 153.593 41.3517 153.593 42.1375C153.593 42.2803 153.494 42.3523 153.296 42.3523C153.173 42.3523 152.985 42.3421 152.732 42.3219C152.48 42.3013 152.292 42.2911 152.169 42.2911C152.039 42.2911 151.848 42.3013 151.595 42.3219C151.342 42.3421 151.154 42.3523 151.032 42.3523C150.861 42.3523 150.775 42.2736 150.775 42.1165C150.775 41.3377 150.811 40.1646 150.883 38.5971C150.954 37.0296 150.99 35.8533 150.99 35.0678C150.99 34.3096 150.954 33.171 150.883 31.6509C150.811 30.1312 150.775 28.9923 150.775 28.2341C150.775 28.0633 150.854 27.9782 151.01 27.9782C151.141 27.9782 151.339 27.9881 151.606 28.0088C151.871 28.0292 152.073 28.0394 152.209 28.0394C152.332 28.0394 152.517 28.0292 152.763 28.0088C153.009 27.9881 153.193 27.9782 153.316 27.9782C153.494 27.9782 153.582 28.0464 153.582 28.1825C153.582 28.9479 153.555 30.0954 153.501 31.6254C153.446 33.1554 153.419 34.3029 153.419 35.0678ZM148.521 31.7586C148.467 33.3431 148.439 34.532 148.439 35.3234C148.439 36.0687 148.446 37.1832 148.46 38.6691C148.474 40.1547 148.48 41.2701 148.48 42.0139C148.48 42.2392 148.395 42.3523 148.225 42.3523C148.122 42.3523 147.968 42.3421 147.763 42.3219C147.558 42.3013 147.404 42.2911 147.303 42.2911C147.193 42.2911 147.025 42.3013 146.8 42.3219C146.575 42.3421 146.408 42.3523 146.298 42.3523C146.175 42.3523 146.028 42.2392 145.858 42.0139C144.382 40.0267 142.146 37.0623 139.147 33.1213C138.682 32.5205 138.413 32.1854 138.338 32.1172C138.269 32.1172 138.235 32.2574 138.235 32.5372C138.235 33.5894 138.252 35.169 138.286 37.2758C138.32 39.3826 138.338 40.9625 138.338 42.0139C138.338 42.2392 138.269 42.3523 138.133 42.3523C138.017 42.3523 137.839 42.3421 137.599 42.3219C137.361 42.3013 137.183 42.2911 137.067 42.2911C136.943 42.2911 136.761 42.3013 136.519 42.3219C136.277 42.3421 136.094 42.3523 135.971 42.3523C135.799 42.3523 135.714 42.2843 135.714 42.1474C135.714 41.3962 135.751 40.2643 135.822 38.751C135.894 37.2382 135.93 36.1023 135.93 35.3441C135.93 34.5178 135.899 33.0289 135.838 30.8775C135.823 30.3173 135.79 29.4772 135.736 28.3571L135.725 28.2237C135.718 28.1216 135.799 28.0668 135.971 28.0601C136.415 28.0534 136.763 28.0394 137.016 28.019C137.111 28.0123 137.292 27.9849 137.559 27.9371C137.784 27.8963 137.962 27.8753 138.092 27.8753C138.153 27.8753 138.259 27.9744 138.409 28.1726C139.979 30.331 142.384 33.5411 145.622 37.803C145.765 37.9808 145.899 38.1344 146.021 38.2649C146.069 37.9776 146.093 37.3223 146.093 36.297C146.093 35.4093 146.061 34.0773 145.996 32.3014C145.931 30.5257 145.899 29.1969 145.899 28.3163C145.899 28.0904 145.966 27.9782 146.104 27.9782C146.226 27.9782 146.412 27.9881 146.662 28.0088C146.911 28.0292 147.097 28.0394 147.221 28.0394C147.35 28.0394 147.544 28.0292 147.804 28.0088C148.064 27.9881 148.258 27.9782 148.388 27.9782C148.532 27.9782 148.603 28.0534 148.603 28.2032C148.603 28.989 148.576 30.1739 148.521 31.7586ZM133.389 35.0678C133.389 35.8533 133.417 37.0314 133.476 38.6025C133.533 40.1735 133.563 41.3517 133.563 42.1375C133.563 42.2803 133.464 42.3523 133.266 42.3523C133.143 42.3523 132.955 42.3421 132.702 42.3219C132.449 42.3013 132.262 42.2911 132.139 42.2911C132.009 42.2911 131.817 42.3013 131.565 42.3219C131.313 42.3421 131.124 42.3523 131.002 42.3523C130.831 42.3523 130.746 42.2736 130.746 42.1165C130.746 41.3377 130.781 40.1646 130.854 38.5971C130.925 37.0296 130.961 35.8533 130.961 35.0678C130.961 34.3096 130.925 33.171 130.854 31.6509C130.781 30.1312 130.746 28.9923 130.746 28.2341C130.746 28.0633 130.824 27.9782 130.981 27.9782C131.111 27.9782 131.309 27.9881 131.575 28.0088C131.842 28.0292 132.043 28.0394 132.18 28.0394C132.303 28.0394 132.488 28.0292 132.733 28.0088C132.979 27.9881 133.164 27.9782 133.287 27.9782C133.464 27.9782 133.553 28.0464 133.553 28.1825C133.553 28.9479 133.526 30.0954 133.472 31.6254C133.416 33.1554 133.389 34.3029 133.389 35.0678ZM128.4 35.3441C128.4 36.0964 128.429 37.2226 128.487 38.7255C128.545 40.2277 128.574 41.3517 128.574 42.0964C128.574 42.2669 128.489 42.3523 128.317 42.3523C128.194 42.3523 128.008 42.3421 127.759 42.3219C127.51 42.3013 127.323 42.2911 127.2 42.2911C127.078 42.2911 126.889 42.3013 126.637 42.3219C126.385 42.3421 126.196 42.3523 126.074 42.3523C125.903 42.3523 125.818 42.2392 125.818 42.0139C125.818 41.147 125.845 39.8459 125.899 38.111C125.954 36.3762 125.982 35.0742 125.982 34.2076C125.982 34.0773 125.954 34.0121 125.899 34.0121C125.838 34.0121 125.79 34.0505 125.756 34.1252C125.408 34.8696 124.585 36.8577 123.287 40.0881C123.075 40.7093 122.771 41.4849 122.375 42.4138C122.328 42.5024 122.081 42.547 121.638 42.547C120.996 42.547 120.639 42.4893 120.572 42.373C120.34 41.8198 120.009 41.0442 119.579 40.0473C119.011 38.6946 118.14 36.6796 116.966 34.0022C116.945 33.9543 116.901 33.9068 116.832 33.8585C116.778 33.8995 116.75 33.9745 116.75 34.084C116.75 34.9654 116.766 36.2867 116.797 38.0493C116.827 39.8118 116.842 41.1328 116.842 42.0139C116.842 42.2392 116.757 42.3523 116.587 42.3523C116.47 42.3523 116.292 42.3421 116.054 42.3219C115.815 42.3013 115.637 42.2911 115.521 42.2911C115.398 42.2911 115.216 42.3013 114.972 42.3219C114.73 42.3421 114.547 42.3523 114.424 42.3523C114.253 42.3523 114.168 42.287 114.168 42.1576C114.168 41.3995 114.204 40.2643 114.277 38.751C114.347 37.2382 114.384 36.1023 114.384 35.3441C114.384 34.5586 114.347 33.3791 114.277 31.8048C114.204 30.2303 114.168 29.0502 114.168 28.265C114.168 28.1353 114.247 28.0601 114.404 28.0394C115.333 27.9164 116.033 27.8552 116.505 27.8552C116.572 27.8552 116.668 27.9954 116.791 28.2752C118.444 31.9087 119.865 35.1537 121.053 38.0082C121.333 38.6776 121.5 39.0128 121.556 39.0128C121.624 39.0128 121.77 38.7386 121.996 38.193C122.925 35.9792 124.212 32.6943 125.858 28.3365C125.961 28.0701 126.074 27.9371 126.196 27.9371C126.428 27.9371 126.779 27.9505 127.247 27.9782C127.715 28.0053 128.064 28.019 128.297 28.019C128.467 28.019 128.553 28.1009 128.553 28.265C128.553 29.0502 128.528 30.2303 128.476 31.8048C128.425 33.3791 128.4 34.5586 128.4 35.3441V35.3441Z" fill="#5C4195"/>
</g>
<defs>
<clipPath id="clip0_285_1745">
<rect width="132" height="33" fill="white" transform="translate(23 17)"/>
</clipPath>
</defs>
</svg>
