<svg width="122" height="165" viewBox="0 0 122 165" fill="none" xmlns="http://www.w3.org/2000/svg">
<g filter="url(#filter0_ddd_368_27795)">
<path d="M60.7404 106.491C87.659 106.491 109.481 85.1149 109.481 58.7457C109.481 32.3765 87.659 11 60.7404 11C33.8218 11 12 32.3765 12 58.7457C12 85.1149 33.8218 106.491 60.7404 106.491Z" fill="#3EB9E3"/>
<path d="M86.2464 26.2583C86.2464 26.0675 86.3113 25.9404 86.2464 25.7497C86.1166 24.796 85.208 24.0331 84.2345 24.1603C83.91 24.2238 83.5855 24.351 83.3259 24.5417C81.7683 22.3165 78.9776 20.9814 76.057 21.2993C73.6557 21.5536 71.6438 22.8252 70.4107 24.6053C70.0213 24.5417 69.6319 24.5417 69.3074 24.6053C66.5166 24.9232 64.4398 27.3391 64.6994 30.1364H89.4915C89.2319 28.2927 87.9338 26.8305 86.2464 26.2583Z" fill="white"/>
<path d="M101.498 54.6768C101.498 54.4861 101.563 54.3589 101.498 54.1682C101.368 53.2146 100.459 52.4517 99.486 52.5788C99.1615 52.6424 98.837 52.7695 98.5774 52.9603C97.0198 50.7351 94.229 49.4 91.3085 49.7179C88.9072 49.9722 86.8952 51.2437 85.6621 53.0238C85.2727 52.9603 84.8833 52.9603 84.5588 53.0238C81.7681 53.3417 79.6913 55.7576 79.9509 58.555H104.743C104.483 56.7113 103.185 55.3126 101.498 54.6768Z" fill="white"/>
<path d="M51.7192 82.0781C51.1351 83.9854 51.849 86.0834 52.3682 87.9907C52.9523 90.0887 53.2768 92.3139 53.6013 94.4755C53.7311 93.7126 53.8609 92.9497 54.0556 92.1868C54.445 93.0768 54.8344 93.9669 55.2238 94.9205C55.3536 93.1404 55.8079 91.3603 56.5218 89.7709C58.0145 93.649 59.2477 97.5907 60.1563 101.66C59.8967 100.515 60.1563 99.3073 60.4808 98.1629C61.0649 95.8742 61.7139 93.649 62.298 91.3603C62.6874 92.3139 63.0119 93.2676 63.2715 94.2848C63.4662 93.0768 63.9205 91.9325 64.5695 90.9152C65.1536 93.5219 65.7377 96.1921 66.3218 98.7987C66.6463 95.1748 67.4251 91.6146 68.5933 88.1815C68.788 89.0715 69.1126 89.9616 69.5669 90.8517C69.8914 87.8 70.0212 84.6848 69.8914 81.6331C63.9205 81.6967 57.9496 81.7603 51.9788 81.8238" fill="#FBD303"/>
<path d="M52.563 82.5868C53.4067 84.7484 53.7961 87.1007 53.7312 89.453C53.861 88.0543 54.0557 86.7192 54.1855 85.3205C54.4451 86.5285 54.7047 87.6729 54.9643 88.8808C54.8994 88.3722 54.9643 87.8 55.159 87.2914C55.6133 87.6729 55.9378 88.1815 56.1974 88.6901C56.0027 88.4993 56.2623 88.1815 56.5219 88.1815C56.7815 88.1815 57.4305 89.008 57.6252 89.0715C57.4954 88.1815 57.6252 87.2278 57.9497 86.3378C59.118 88.8808 59.767 91.6782 59.8319 94.5391C60.0266 91.7417 61.0001 89.0715 61.9087 86.4013C62.4279 87.7364 62.8822 89.0715 63.2067 90.4702C63.2716 89.5801 63.661 88.7536 64.2451 88.1179C64.5696 88.7536 64.8292 89.3258 65.0888 89.9616C65.1537 89.1351 65.3484 88.3086 65.7378 87.5457C66.1272 88.4993 66.3868 89.5801 66.5815 90.5974C66.8411 88.1179 67.1007 85.6384 67.6199 83.1589C63.0769 83.1589 58.4689 83.1589 53.9259 83.1589L52.563 82.5868Z" fill="#F0582F"/>
<path d="M74.5641 34.2689H46.9164C44.4502 42.4066 44.4502 51.498 45.4237 59.6993H76.0568C77.0303 51.498 77.0303 42.4066 74.5641 34.2689Z" fill="#F1F3F7"/>
<path d="M50.7456 61.4159L35.2343 67.5828C31.4701 69.1086 29.3933 73.2411 30.4966 77.1828L35.8833 97.3364L52.7575 79.4079L50.7456 61.4159Z" fill="#DEDEDF"/>
<path d="M70.7351 61.4159L86.2463 67.5828C90.0106 69.1086 92.0874 73.2411 90.9841 77.1828L85.5973 97.3364L68.7231 79.4079L70.7351 61.4159Z" fill="#DEDEDF"/>
<path d="M35.2344 70.3166L50.7457 64.1497L52.498 79.6623L52.7576 79.3444L50.7457 61.4159L35.2344 67.5828C31.6649 68.9815 29.6529 72.7325 30.302 76.4199C30.8212 73.7497 32.5735 71.3974 35.2344 70.3166Z" fill="#FCFCFD"/>
<path d="M70.7351 64.1497L86.2463 70.3166C88.9073 71.3974 90.7245 73.7497 91.1788 76.4199C91.8278 72.6689 89.8159 68.9815 86.2463 67.5828L70.7351 61.4159L68.7231 79.3444L68.9827 79.6623L70.7351 64.1497Z" fill="#FCFCFD"/>
<path d="M60.7405 56.5205C66.117 56.5205 70.4756 52.2509 70.4756 46.9841C70.4756 41.7173 66.117 37.4477 60.7405 37.4477C55.3639 37.4477 51.0054 41.7173 51.0054 46.9841C51.0054 52.2509 55.3639 56.5205 60.7405 56.5205Z" fill="#FCFCFD"/>
<path d="M60.7403 54.1046C64.7548 54.1046 68.0092 50.9167 68.0092 46.9841C68.0092 43.0516 64.7548 39.8636 60.7403 39.8636C56.7258 39.8636 53.4714 43.0516 53.4714 46.9841C53.4714 50.9167 56.7258 54.1046 60.7403 54.1046Z" fill="#4485C5"/>
<path d="M60.7403 15.8318C53.4066 20.2821 49.1231 26.894 46.9165 34.2689H74.5642C72.3576 26.894 68.0741 20.3457 60.7403 15.8318Z" fill="#F0582F"/>
<path d="M45.4238 59.6993C47.1112 73.6861 51.5894 85.1298 51.5894 85.1298H69.9563C69.9563 85.1298 74.4344 73.6861 76.1218 59.6993H45.4238Z" fill="#BDBDBE"/>
<path d="M36.0132 35.0318C36.0781 34.7775 36.0781 34.5867 36.0781 34.3324C35.9483 32.9338 34.6503 31.9801 33.2873 32.1073C32.833 32.1708 32.3787 32.3616 31.9893 32.6159C30.1072 29.9457 26.9271 28.1656 23.4873 27.9748C20.3072 31.6622 17.6463 35.8583 15.7642 40.4358H40.6211C40.1668 37.8927 38.4145 35.8583 36.0132 35.0318Z" fill="white"/>
<path d="M26.927 53.6596L26.5376 56.8384L26.927 60.0172L27.3813 56.8384L26.927 53.6596Z" fill="white"/>
<path d="M30.237 56.8384L27.0569 56.3934L23.9417 56.8384L27.1218 57.2834L30.237 56.8384Z" fill="white"/>
<path d="M94.0343 37.6384L92.1521 40.245L91.0488 43.2331L92.9309 40.6265L94.0343 37.6384Z" fill="white"/>
<path d="M95.3972 41.898L92.8011 40.1179L89.8806 39.0371L92.4766 40.8808L95.3972 41.898Z" fill="white"/>
<path d="M44.4891 148.07C44.4891 147.836 44.4526 147.628 44.3797 147.445C44.312 147.263 44.1896 147.096 44.0125 146.945C43.8354 146.794 43.5854 146.648 43.2625 146.508C42.9448 146.362 42.5385 146.214 42.0438 146.062C41.5021 145.896 41.0021 145.711 40.5438 145.508C40.0906 145.299 39.6948 145.06 39.3563 144.789C39.0177 144.513 38.7547 144.198 38.5672 143.844C38.3797 143.484 38.2859 143.07 38.2859 142.602C38.2859 142.138 38.3823 141.716 38.575 141.336C38.7729 140.956 39.0516 140.628 39.4109 140.352C39.7755 140.07 40.2052 139.854 40.7 139.703C41.1948 139.547 41.7417 139.469 42.3406 139.469C43.1844 139.469 43.9109 139.625 44.5203 139.938C45.1349 140.25 45.6063 140.669 45.9344 141.195C46.2677 141.721 46.4344 142.302 46.4344 142.938H44.4891C44.4891 142.562 44.4083 142.232 44.2469 141.945C44.0906 141.654 43.851 141.424 43.5281 141.258C43.2104 141.091 42.8068 141.008 42.3172 141.008C41.8536 141.008 41.4682 141.078 41.1609 141.219C40.8536 141.359 40.6245 141.549 40.4734 141.789C40.3224 142.029 40.2469 142.299 40.2469 142.602C40.2469 142.815 40.2964 143.01 40.3953 143.188C40.4943 143.359 40.6453 143.521 40.8484 143.672C41.0516 143.818 41.3068 143.956 41.6141 144.086C41.9214 144.216 42.2833 144.341 42.7 144.461C43.3302 144.648 43.8797 144.857 44.3484 145.086C44.8172 145.31 45.2078 145.565 45.5203 145.852C45.8328 146.138 46.0672 146.464 46.2234 146.828C46.3797 147.188 46.4578 147.596 46.4578 148.055C46.4578 148.534 46.3615 148.966 46.1688 149.352C45.976 149.732 45.7 150.057 45.3406 150.328C44.9865 150.594 44.5594 150.799 44.0594 150.945C43.5646 151.086 43.0125 151.156 42.4031 151.156C41.8563 151.156 41.3172 151.083 40.7859 150.938C40.2599 150.792 39.7807 150.57 39.3484 150.273C38.9161 149.971 38.5724 149.596 38.3172 149.148C38.062 148.695 37.9344 148.167 37.9344 147.562H39.8953C39.8953 147.932 39.9578 148.247 40.0828 148.508C40.213 148.768 40.3927 148.982 40.6219 149.148C40.851 149.31 41.1167 149.43 41.4188 149.508C41.726 149.586 42.0542 149.625 42.4031 149.625C42.8615 149.625 43.2443 149.56 43.5516 149.43C43.8641 149.299 44.0984 149.117 44.2547 148.883C44.4109 148.648 44.4891 148.378 44.4891 148.07ZM52.6625 146.758H49.7016V145.203H52.6625C53.1781 145.203 53.5948 145.12 53.9125 144.953C54.2302 144.786 54.462 144.557 54.6078 144.266C54.7589 143.969 54.8344 143.63 54.8344 143.25C54.8344 142.891 54.7589 142.555 54.6078 142.242C54.462 141.924 54.2302 141.669 53.9125 141.477C53.5948 141.284 53.1781 141.188 52.6625 141.188H50.3031V151H48.3422V139.625H52.6625C53.5427 139.625 54.2901 139.781 54.9047 140.094C55.5245 140.401 55.9958 140.828 56.3188 141.375C56.6417 141.917 56.8031 142.536 56.8031 143.234C56.8031 143.969 56.6417 144.599 56.3188 145.125C55.9958 145.651 55.5245 146.055 54.9047 146.336C54.2901 146.617 53.5427 146.758 52.6625 146.758ZM61.9531 141.141L58.5547 151H56.5L60.7812 139.625H62.0938L61.9531 141.141ZM64.7969 151L61.3906 141.141L61.2422 139.625H62.5625L66.8594 151H64.7969ZM64.6328 146.781V148.336H58.4453V146.781H64.6328ZM74.8766 147.297H76.8297C76.7672 148.042 76.5589 148.706 76.2047 149.289C75.8505 149.867 75.3531 150.323 74.7125 150.656C74.0719 150.99 73.2932 151.156 72.3766 151.156C71.6734 151.156 71.0406 151.031 70.4781 150.781C69.9156 150.526 69.4339 150.167 69.0328 149.703C68.6318 149.234 68.3245 148.669 68.1109 148.008C67.9026 147.346 67.7984 146.607 67.7984 145.789V144.844C67.7984 144.026 67.9052 143.286 68.1188 142.625C68.3375 141.964 68.65 141.398 69.0563 140.93C69.4625 140.456 69.9495 140.094 70.5172 139.844C71.0901 139.594 71.7333 139.469 72.4469 139.469C73.3531 139.469 74.1188 139.635 74.7438 139.969C75.3688 140.302 75.8531 140.763 76.1969 141.352C76.5458 141.94 76.7594 142.615 76.8375 143.375H74.8844C74.8323 142.885 74.7177 142.466 74.5406 142.117C74.3688 141.768 74.1135 141.503 73.775 141.32C73.4365 141.133 72.9938 141.039 72.4469 141.039C71.999 141.039 71.6083 141.122 71.275 141.289C70.9417 141.456 70.663 141.701 70.4391 142.023C70.2151 142.346 70.0458 142.745 69.9313 143.219C69.8219 143.688 69.7672 144.224 69.7672 144.828V145.789C69.7672 146.362 69.8167 146.883 69.9156 147.352C70.0198 147.815 70.176 148.214 70.3844 148.547C70.5979 148.88 70.8688 149.138 71.1969 149.32C71.525 149.503 71.9182 149.594 72.3766 149.594C72.9339 149.594 73.3844 149.505 73.7281 149.328C74.0771 149.151 74.3401 148.893 74.5172 148.555C74.6995 148.211 74.8193 147.792 74.8766 147.297ZM86.2062 149.445V151H80.1672V149.445H86.2062ZM80.7219 139.625V151H78.7609V139.625H80.7219ZM85.4172 144.375V145.906H80.1672V144.375H85.4172ZM86.1672 139.625V141.188H80.1672V139.625H86.1672Z" fill="#263238"/>
</g>
<defs>
<filter id="filter0_ddd_368_27795" x="0" y="0" width="121.481" height="164.156" filterUnits="userSpaceOnUse" color-interpolation-filters="sRGB">
<feFlood flood-opacity="0" result="BackgroundImageFix"/>
<feColorMatrix in="SourceAlpha" type="matrix" values="0 0 0 0 0 0 0 0 0 0 0 0 0 0 0 0 0 0 127 0" result="hardAlpha"/>
<feOffset dy="1"/>
<feGaussianBlur stdDeviation="6"/>
<feColorMatrix type="matrix" values="0 0 0 0 0 0 0 0 0 0 0 0 0 0 0 0 0 0 0.04 0"/>
<feBlend mode="normal" in2="BackgroundImageFix" result="effect1_dropShadow_368_27795"/>
<feColorMatrix in="SourceAlpha" type="matrix" values="0 0 0 0 0 0 0 0 0 0 0 0 0 0 0 0 0 0 127 0" result="hardAlpha"/>
<feOffset dy="4"/>
<feGaussianBlur stdDeviation="4"/>
<feColorMatrix type="matrix" values="0 0 0 0 0 0 0 0 0 0 0 0 0 0 0 0 0 0 0.08 0"/>
<feBlend mode="normal" in2="effect1_dropShadow_368_27795" result="effect2_dropShadow_368_27795"/>
<feColorMatrix in="SourceAlpha" type="matrix" values="0 0 0 0 0 0 0 0 0 0 0 0 0 0 0 0 0 0 127 0" result="hardAlpha"/>
<feOffset dy="3"/>
<feGaussianBlur stdDeviation="3"/>
<feColorMatrix type="matrix" values="0 0 0 0 0 0 0 0 0 0 0 0 0 0 0 0 0 0 0.1 0"/>
<feBlend mode="normal" in2="effect2_dropShadow_368_27795" result="effect3_dropShadow_368_27795"/>
<feBlend mode="normal" in="SourceGraphic" in2="effect3_dropShadow_368_27795" result="shape"/>
</filter>
</defs>
</svg>
