<svg width="121" height="165" viewBox="0 0 121 165" fill="none" xmlns="http://www.w3.org/2000/svg">
<g filter="url(#filter0_ddd_368_27787)">
<g clip-path="url(#clip0_368_27787)">
<path d="M60.5 107C87.2858 107 109 85.5097 109 59C109 32.4903 87.2858 11 60.5 11C33.7142 11 12 32.4903 12 59C12 85.5097 33.7142 107 60.5 107Z" fill="#9DE1F7"/>
<path d="M30.5627 59C30.5627 66.2411 33.1874 72.8754 37.5464 78.0219C37.5464 78.0219 40.2713 78.9714 40.7083 79.4259C41.584 80.3362 41.6084 81.9856 41.6084 81.9856C46.0178 85.5395 51.4691 87.8754 57.4389 88.4755C57.4389 88.4755 59.4665 86.7536 60.4997 86.7536V31.2464C59.5413 31.2464 57.6578 29.5032 57.6578 29.5032C51.6023 30.0676 46.0716 32.417 41.6084 36.0144C41.6084 36.0144 42.2177 38.9705 41.6113 39.5497C40.8476 40.2789 37.5464 39.9781 37.5464 39.9781C33.1874 45.1246 30.5627 51.7589 30.5627 59Z" fill="#FFD300"/>
<path d="M60.5 31.2464V86.7534C61.4584 86.7534 63.342 88.4965 63.342 88.4965C69.3975 87.9322 74.9282 85.5828 79.3913 81.9854C79.3913 81.9854 78.9363 78.8932 79.6101 78.2364C80.2925 77.5711 83.4534 78.0219 83.4534 78.0219C87.8125 72.8752 90.437 66.2409 90.437 59C90.437 51.7589 87.8123 45.1246 83.4534 39.9779C83.4534 39.9779 80.3177 40.4553 79.6495 39.8019C78.9637 39.131 79.3913 36.0144 79.3913 36.0144C74.9282 32.4172 69.3975 30.0676 63.342 29.5034C63.342 29.5032 61.4584 31.2464 60.5 31.2464Z" fill="#FF9E00"/>
<path d="M52.3093 59C52.3093 49.8153 48.1552 41.5736 41.6098 36.0155C40.1322 37.2065 38.772 38.5342 37.5481 39.9791C43.0885 44.5049 46.6257 51.3513 46.6257 58.9998C46.6257 66.6483 43.0885 73.4947 37.5481 78.0206C38.772 79.4656 40.1322 80.7933 41.6098 81.9841C48.155 76.4264 52.3093 68.1847 52.3093 59Z" fill="white"/>
<path d="M83.4521 78.0207C77.9115 73.4949 74.3743 66.6485 74.3743 59C74.3743 51.3515 77.9115 44.5051 83.4519 39.9792C82.228 38.5342 80.8678 37.2065 79.3902 36.0157C72.8448 41.5736 68.6907 49.8153 68.6907 59C68.6907 68.1847 72.8448 76.4264 79.3902 81.9843C80.868 80.7935 82.2282 79.4656 83.4521 78.0207Z" fill="#E3EAEE"/>
<path d="M57.6582 29.5051V88.4947C58.5937 88.5819 59.5414 88.6284 60.5 88.6284L62.584 60.2546L60.5 29.3714C59.5414 29.3716 58.5937 29.4181 57.6582 29.5051Z" fill="white"/>
<path d="M60.5 29.3716V88.6286C61.4586 88.6286 62.4063 88.5821 63.3418 88.4949V29.5051C62.4063 29.4181 61.4586 29.3716 60.5 29.3716Z" fill="#E3EAEE"/>
</g>
<path d="M41.2234 148.07C41.2234 147.836 41.187 147.628 41.1141 147.445C41.0464 147.263 40.924 147.096 40.7469 146.945C40.5698 146.794 40.3198 146.648 39.9969 146.508C39.6792 146.362 39.2729 146.214 38.7781 146.062C38.2365 145.896 37.7365 145.711 37.2781 145.508C36.825 145.299 36.4292 145.06 36.0906 144.789C35.7521 144.513 35.4891 144.198 35.3016 143.844C35.1141 143.484 35.0203 143.07 35.0203 142.602C35.0203 142.138 35.1167 141.716 35.3094 141.336C35.5073 140.956 35.7859 140.628 36.1453 140.352C36.5099 140.07 36.9396 139.854 37.4344 139.703C37.9292 139.547 38.476 139.469 39.075 139.469C39.9188 139.469 40.6453 139.625 41.2547 139.938C41.8693 140.25 42.3406 140.669 42.6688 141.195C43.0021 141.721 43.1688 142.302 43.1688 142.938H41.2234C41.2234 142.562 41.1427 142.232 40.9813 141.945C40.825 141.654 40.5854 141.424 40.2625 141.258C39.9448 141.091 39.5411 141.008 39.0516 141.008C38.588 141.008 38.2026 141.078 37.8953 141.219C37.588 141.359 37.3589 141.549 37.2078 141.789C37.0568 142.029 36.9813 142.299 36.9813 142.602C36.9813 142.815 37.0307 143.01 37.1297 143.188C37.2286 143.359 37.3797 143.521 37.5828 143.672C37.7859 143.818 38.0411 143.956 38.3484 144.086C38.6557 144.216 39.0177 144.341 39.4344 144.461C40.0646 144.648 40.6141 144.857 41.0828 145.086C41.5516 145.31 41.9422 145.565 42.2547 145.852C42.5672 146.138 42.8016 146.464 42.9578 146.828C43.1141 147.188 43.1922 147.596 43.1922 148.055C43.1922 148.534 43.0958 148.966 42.9031 149.352C42.7104 149.732 42.4344 150.057 42.075 150.328C41.7208 150.594 41.2938 150.799 40.7938 150.945C40.299 151.086 39.7469 151.156 39.1375 151.156C38.5906 151.156 38.0516 151.083 37.5203 150.938C36.9943 150.792 36.5151 150.57 36.0828 150.273C35.6505 149.971 35.3068 149.596 35.0516 149.148C34.7964 148.695 34.6688 148.167 34.6688 147.562H36.6297C36.6297 147.932 36.6922 148.247 36.8172 148.508C36.9474 148.768 37.1271 148.982 37.3563 149.148C37.5854 149.31 37.851 149.43 38.1531 149.508C38.4604 149.586 38.7885 149.625 39.1375 149.625C39.5958 149.625 39.9786 149.56 40.2859 149.43C40.5984 149.299 40.8328 149.117 40.9891 148.883C41.1453 148.648 41.2234 148.378 41.2234 148.07ZM49.3969 146.758H46.4359V145.203H49.3969C49.9125 145.203 50.3292 145.12 50.6469 144.953C50.9646 144.786 51.1964 144.557 51.3422 144.266C51.4932 143.969 51.5688 143.63 51.5688 143.25C51.5688 142.891 51.4932 142.555 51.3422 142.242C51.1964 141.924 50.9646 141.669 50.6469 141.477C50.3292 141.284 49.9125 141.188 49.3969 141.188H47.0375V151H45.0766V139.625H49.3969C50.2771 139.625 51.0245 139.781 51.6391 140.094C52.2589 140.401 52.7302 140.828 53.0531 141.375C53.376 141.917 53.5375 142.536 53.5375 143.234C53.5375 143.969 53.376 144.599 53.0531 145.125C52.7302 145.651 52.2589 146.055 51.6391 146.336C51.0245 146.617 50.2771 146.758 49.3969 146.758ZM64.5156 145V145.625C64.5156 146.484 64.4036 147.255 64.1797 147.938C63.9557 148.62 63.6354 149.201 63.2188 149.68C62.8073 150.159 62.3125 150.526 61.7344 150.781C61.1562 151.031 60.5156 151.156 59.8125 151.156C59.1146 151.156 58.4766 151.031 57.8984 150.781C57.3255 150.526 56.8281 150.159 56.4062 149.68C55.9844 149.201 55.6562 148.62 55.4219 147.938C55.1927 147.255 55.0781 146.484 55.0781 145.625V145C55.0781 144.141 55.1927 143.372 55.4219 142.695C55.651 142.013 55.974 141.432 56.3906 140.953C56.8125 140.469 57.3099 140.102 57.8828 139.852C58.4609 139.596 59.099 139.469 59.7969 139.469C60.5 139.469 61.1406 139.596 61.7188 139.852C62.2969 140.102 62.7943 140.469 63.2109 140.953C63.6276 141.432 63.9479 142.013 64.1719 142.695C64.401 143.372 64.5156 144.141 64.5156 145ZM62.5547 145.625V144.984C62.5547 144.349 62.4922 143.789 62.3672 143.305C62.2474 142.815 62.0677 142.406 61.8281 142.078C61.5938 141.745 61.3047 141.495 60.9609 141.328C60.6172 141.156 60.2292 141.07 59.7969 141.07C59.3646 141.07 58.9792 141.156 58.6406 141.328C58.3021 141.495 58.013 141.745 57.7734 142.078C57.5391 142.406 57.3594 142.815 57.2344 143.305C57.1094 143.789 57.0469 144.349 57.0469 144.984V145.625C57.0469 146.26 57.1094 146.823 57.2344 147.312C57.3594 147.802 57.5417 148.216 57.7812 148.555C58.026 148.888 58.3177 149.141 58.6562 149.312C58.9948 149.479 59.3802 149.562 59.8125 149.562C60.25 149.562 60.638 149.479 60.9766 149.312C61.3151 149.141 61.6016 148.888 61.8359 148.555C62.0703 148.216 62.2474 147.802 62.3672 147.312C62.4922 146.823 62.5547 146.26 62.5547 145.625ZM66.6266 139.625H70.65C71.5146 139.625 72.2516 139.755 72.8609 140.016C73.4703 140.276 73.9365 140.661 74.2594 141.172C74.5875 141.677 74.7516 142.302 74.7516 143.047C74.7516 143.615 74.6474 144.115 74.4391 144.547C74.2307 144.979 73.9365 145.344 73.5563 145.641C73.176 145.932 72.7229 146.159 72.1969 146.32L71.6031 146.609H67.9859L67.9703 145.055H70.6813C71.15 145.055 71.5406 144.971 71.8531 144.805C72.1656 144.638 72.4 144.411 72.5563 144.125C72.7177 143.833 72.7984 143.505 72.7984 143.141C72.7984 142.745 72.7203 142.401 72.5641 142.109C72.413 141.812 72.1786 141.586 71.8609 141.43C71.5432 141.268 71.1396 141.188 70.65 141.188H68.5875V151H66.6266V139.625ZM73.1188 151L70.4469 145.891L72.5016 145.883L75.2125 150.898V151H73.1188ZM81.0031 139.625V151H79.0578V139.625H81.0031ZM84.5734 139.625V141.188H75.5187V139.625H84.5734Z" fill="#263238"/>
</g>
<defs>
<filter id="filter0_ddd_368_27787" x="0" y="0" width="121" height="164.156" filterUnits="userSpaceOnUse" color-interpolation-filters="sRGB">
<feFlood flood-opacity="0" result="BackgroundImageFix"/>
<feColorMatrix in="SourceAlpha" type="matrix" values="0 0 0 0 0 0 0 0 0 0 0 0 0 0 0 0 0 0 127 0" result="hardAlpha"/>
<feOffset dy="1"/>
<feGaussianBlur stdDeviation="6"/>
<feColorMatrix type="matrix" values="0 0 0 0 0 0 0 0 0 0 0 0 0 0 0 0 0 0 0.04 0"/>
<feBlend mode="normal" in2="BackgroundImageFix" result="effect1_dropShadow_368_27787"/>
<feColorMatrix in="SourceAlpha" type="matrix" values="0 0 0 0 0 0 0 0 0 0 0 0 0 0 0 0 0 0 127 0" result="hardAlpha"/>
<feOffset dy="4"/>
<feGaussianBlur stdDeviation="4"/>
<feColorMatrix type="matrix" values="0 0 0 0 0 0 0 0 0 0 0 0 0 0 0 0 0 0 0.08 0"/>
<feBlend mode="normal" in2="effect1_dropShadow_368_27787" result="effect2_dropShadow_368_27787"/>
<feColorMatrix in="SourceAlpha" type="matrix" values="0 0 0 0 0 0 0 0 0 0 0 0 0 0 0 0 0 0 127 0" result="hardAlpha"/>
<feOffset dy="3"/>
<feGaussianBlur stdDeviation="3"/>
<feColorMatrix type="matrix" values="0 0 0 0 0 0 0 0 0 0 0 0 0 0 0 0 0 0 0.1 0"/>
<feBlend mode="normal" in2="effect2_dropShadow_368_27787" result="effect3_dropShadow_368_27787"/>
<feBlend mode="normal" in="SourceGraphic" in2="effect3_dropShadow_368_27787" result="shape"/>
</filter>
<clipPath id="clip0_368_27787">
<rect width="97" height="96" fill="white" transform="translate(12 11)"/>
</clipPath>
</defs>
</svg>
