<svg width="1027" height="62" viewBox="0 0 1027 62" fill="none" xmlns="http://www.w3.org/2000/svg">
<g filter="url(#filter0_d_546_1711)">
<rect x="4" y="33.5" width="953.002" height="14" rx="7" fill="#7CA055"/>
</g>
<path d="M97.0625 22.3125V24H91.0156V22.3125H97.0625ZM91.6719 12.625V24H89.5234V12.625H91.6719ZM96.2734 17.3203V18.9688H91.0156V17.3203H96.2734ZM97.0391 12.625V14.3203H91.0156V12.625H97.0391ZM100.242 12.625H102.102L105.211 21.1875L108.312 12.625H110.18L105.953 24H104.461L100.242 12.625ZM99.3047 12.625H101.125L101.453 20.4922V24H99.3047V12.625ZM109.289 12.625H111.117V24H108.969V20.4922L109.289 12.625ZM118.719 14.3516L115.477 24H113.203L117.453 12.625H118.906L118.719 14.3516ZM121.43 24L118.172 14.3516L117.977 12.625H119.438L123.711 24H121.43ZM121.281 19.7734V21.4688H115.18V19.7734H121.281ZM127.922 12.625V24H125.773V12.625H127.922ZM138.211 22.3125V24H132.492V22.3125H138.211ZM133.141 12.625V24H130.992V12.625H133.141Z" fill="#5C4195"/>
<path d="M4 40.5C4 36.634 7.13401 33.5 11 33.5H229C232.866 33.5 236 36.634 236 40.5C236 44.366 232.866 47.5 229 47.5H11C7.13401 47.5 4 44.366 4 40.5Z" fill="#5C4195"/>
<g clip-path="url(#clip0_546_1711)">
<path d="M985.065 41.9345L993.852 38.3701L996 31L988.001 33.4581L985.065 41.9345Z" fill="#E75B70"/>
<path d="M992.663 34.3373L996 31L1004.91 34.1225L1006.93 41.9345L992.663 56.2063L988.001 47.5682L992.663 34.3373Z" fill="#30CA99"/>
<path d="M999.337 34.3373L996 31L999.337 20.5944L1006.93 20.0654L1021.21 34.3373L1012.57 38.9989L999.337 34.3373Z" fill="#2ECDF9"/>
<path d="M999.337 27.6629L996 31.0002L985.065 27.0482V20.0657L999.337 5.79395L1004 14.432L999.337 27.6629Z" fill="#FDCB71"/>
<path d="M985.066 41.9345L970.794 27.6626L979.432 23.001L992.663 27.6626L996 30.9999L985.066 41.9345Z" fill="#E75B70"/>
<path d="M973.881 8.88112L992.663 27.6625H970.794L968.392 25.261C963.869 20.738 963.869 13.4041 968.392 8.88112C969.908 7.36515 972.365 7.36515 973.881 8.88112Z" fill="#FD8B9B"/>
<path d="M973.881 53.1193L992.663 34.3379V56.2068L990.261 58.6083C985.738 63.1313 978.404 63.1313 973.881 58.6083C972.365 57.0923 972.365 54.6353 973.881 53.1193Z" fill="#71D9B8"/>
<path d="M1018.12 8.88129L999.338 27.6627V5.79376L1001.74 3.39223C1006.26 -1.13074 1013.6 -1.13074 1018.12 3.39223C1019.64 4.90832 1019.64 7.36532 1018.12 8.88129Z" fill="#FAE09D"/>
<path d="M1018.12 53.1193L999.338 34.3379H1021.21L1023.61 36.7394C1028.13 41.2624 1028.13 48.5963 1023.61 53.1193C1022.09 54.6353 1019.64 54.6353 1018.12 53.1193Z" fill="#7CE0FD"/>
<path d="M996 35.7198C998.607 35.7198 1000.72 33.6067 1000.72 31C1000.72 28.3934 998.607 26.2803 996 26.2803C993.393 26.2803 991.28 28.3934 991.28 31C991.28 33.6067 993.393 35.7198 996 35.7198Z" fill="#696EAF"/>
</g>
<defs>
<filter id="filter0_d_546_1711" x="0" y="33.5" width="961.002" height="22" filterUnits="userSpaceOnUse" color-interpolation-filters="sRGB">
<feFlood flood-opacity="0" result="BackgroundImageFix"/>
<feColorMatrix in="SourceAlpha" type="matrix" values="0 0 0 0 0 0 0 0 0 0 0 0 0 0 0 0 0 0 127 0" result="hardAlpha"/>
<feOffset dy="4"/>
<feGaussianBlur stdDeviation="2"/>
<feComposite in2="hardAlpha" operator="out"/>
<feColorMatrix type="matrix" values="0 0 0 0 0 0 0 0 0 0 0 0 0 0 0 0 0 0 0.25 0"/>
<feBlend mode="normal" in2="BackgroundImageFix" result="effect1_dropShadow_546_1711"/>
<feBlend mode="normal" in="SourceGraphic" in2="effect1_dropShadow_546_1711" result="shape"/>
</filter>
<clipPath id="clip0_546_1711">
<rect width="62" height="62" fill="white" transform="translate(965)"/>
</clipPath>
</defs>
</svg>
