<svg width="1027" height="62" viewBox="0 0 1027 62" fill="none" xmlns="http://www.w3.org/2000/svg">
<g filter="url(#filter0_d_546_1816)">
<rect x="4" y="33.5" width="953.002" height="14" rx="7" fill="#7CA055"/>
</g>
<path d="M97.0625 22.3125V24H91.0156V22.3125H97.0625ZM91.6719 12.625V24H89.5234V12.625H91.6719ZM96.2734 17.3203V18.9688H91.0156V17.3203H96.2734ZM97.0391 12.625V14.3203H91.0156V12.625H97.0391ZM100.242 12.625H102.102L105.211 21.1875L108.312 12.625H110.18L105.953 24H104.461L100.242 12.625ZM99.3047 12.625H101.125L101.453 20.4922V24H99.3047V12.625ZM109.289 12.625H111.117V24H108.969V20.4922L109.289 12.625ZM118.719 14.3516L115.477 24H113.203L117.453 12.625H118.906L118.719 14.3516ZM121.43 24L118.172 14.3516L117.977 12.625H119.438L123.711 24H121.43ZM121.281 19.7734V21.4688H115.18V19.7734H121.281ZM127.922 12.625V24H125.773V12.625H127.922ZM138.211 22.3125V24H132.492V22.3125H138.211ZM133.141 12.625V24H130.992V12.625H133.141Z" fill="#5C4195"/>
<path d="M4 40.5C4 36.634 7.13401 33.5 11 33.5H229C232.866 33.5 236 36.634 236 40.5C236 44.366 232.866 47.5 229 47.5H11C7.13401 47.5 4 44.366 4 40.5Z" fill="#5C4195"/>
<g clip-path="url(#clip0_546_1816)">
<path d="M985.065 41.9345L993.852 38.3701L996 31L988.001 33.4581L985.065 41.9345Z" fill="#E75B70"/>
<path d="M992.663 34.3373L996 31L1004.91 34.1225L1006.93 41.9345L992.663 56.2063L988.001 47.5682L992.663 34.3373Z" fill="#30CA99"/>
<path d="M999.337 34.3373L996 31L999.337 20.5944L1006.93 20.0654L1021.21 34.3373L1012.57 38.9989L999.337 34.3373Z" fill="#2ECDF9"/>
<path d="M999.337 27.6629L996 31.0002L985.065 27.0482V20.0657L999.337 5.79395L1004 14.432L999.337 27.6629Z" fill="#FDCB71"/>
<path d="M985.066 41.9345L970.794 27.6626L979.432 23.001L992.663 27.6626L996 30.9999L985.066 41.9345Z" fill="#E75B70"/>
<path d="M973.881 8.88112L992.663 27.6625H970.794L968.392 25.261C963.869 20.738 963.869 13.4041 968.392 8.88112C969.908 7.36515 972.365 7.36515 973.881 8.88112Z" fill="#FD8B9B"/>
<path d="M973.881 53.1193L992.663 34.3379V56.2068L990.261 58.6083C985.738 63.1313 978.404 63.1313 973.881 58.6083C972.365 57.0923 972.365 54.6353 973.881 53.1193Z" fill="#71D9B8"/>
<path d="M1018.12 8.88129L999.338 27.6627V5.79376L1001.74 3.39223C1006.26 -1.13074 1013.6 -1.13074 1018.12 3.39223C1019.64 4.90832 1019.64 7.36532 1018.12 8.88129Z" fill="#FAE09D"/>
<path d="M1018.12 53.1193L999.338 34.3379H1021.21L1023.61 36.7394C1028.13 41.2624 1028.13 48.5963 1023.61 53.1193C1022.09 54.6353 1019.64 54.6353 1018.12 53.1193Z" fill="#7CE0FD"/>
<path d="M996 35.7198C998.607 35.7198 1000.72 33.6067 1000.72 31C1000.72 28.3934 998.607 26.2803 996 26.2803C993.393 26.2803 991.28 28.3934 991.28 31C991.28 33.6067 993.393 35.7198 996 35.7198Z" fill="#696EAF"/>
</g>
<path d="M245 40C245 36.134 248.134 33 252 33H470C473.866 33 477 36.134 477 40C477 43.866 473.866 47 470 47H252C248.134 47 245 43.866 245 40Z" fill="#5C4195"/>
<path d="M323.82 12.625H325.969V20.1797C325.969 21.0495 325.781 21.7812 325.406 22.375C325.031 22.9635 324.521 23.4089 323.875 23.7109C323.229 24.0078 322.495 24.1562 321.672 24.1562C320.839 24.1562 320.096 24.0078 319.445 23.7109C318.794 23.4089 318.284 22.9635 317.914 22.375C317.544 21.7812 317.359 21.0495 317.359 20.1797V12.625H319.508V20.1797C319.508 20.7109 319.596 21.1458 319.773 21.4844C319.951 21.8177 320.201 22.0651 320.523 22.2266C320.846 22.388 321.229 22.4688 321.672 22.4688C322.12 22.4688 322.503 22.388 322.82 22.2266C323.143 22.0651 323.391 21.8177 323.562 21.4844C323.734 21.1458 323.82 20.7109 323.82 20.1797V12.625ZM334.711 21.0469C334.711 20.8281 334.677 20.6328 334.609 20.4609C334.547 20.2839 334.43 20.125 334.258 19.9844C334.091 19.8385 333.854 19.6979 333.547 19.5625C333.245 19.4219 332.854 19.276 332.375 19.125C331.844 18.9583 331.349 18.7708 330.891 18.5625C330.432 18.3542 330.029 18.112 329.68 17.8359C329.336 17.5599 329.068 17.2422 328.875 16.8828C328.682 16.5182 328.586 16.0964 328.586 15.6172C328.586 15.1484 328.685 14.7214 328.883 14.3359C329.086 13.9505 329.372 13.6198 329.742 13.3438C330.112 13.0625 330.547 12.8464 331.047 12.6953C331.552 12.5443 332.109 12.4688 332.719 12.4688C333.562 12.4688 334.292 12.6224 334.906 12.9297C335.526 13.237 336.005 13.6536 336.344 14.1797C336.682 14.7057 336.852 15.2969 336.852 15.9531H334.711C334.711 15.599 334.635 15.2865 334.484 15.0156C334.339 14.7448 334.115 14.5312 333.812 14.375C333.516 14.2188 333.141 14.1406 332.688 14.1406C332.25 14.1406 331.885 14.2057 331.594 14.3359C331.307 14.4661 331.091 14.6432 330.945 14.8672C330.805 15.0911 330.734 15.3411 330.734 15.6172C330.734 15.8255 330.784 16.013 330.883 16.1797C330.982 16.3411 331.13 16.4948 331.328 16.6406C331.526 16.7812 331.771 16.9141 332.062 17.0391C332.359 17.1589 332.703 17.2786 333.094 17.3984C333.719 17.5859 334.266 17.7943 334.734 18.0234C335.208 18.2526 335.602 18.513 335.914 18.8047C336.232 19.0964 336.469 19.4245 336.625 19.7891C336.786 20.1536 336.867 20.5677 336.867 21.0312C336.867 21.5208 336.771 21.9583 336.578 22.3438C336.385 22.7292 336.109 23.0573 335.75 23.3281C335.391 23.599 334.958 23.8047 334.453 23.9453C333.953 24.0859 333.393 24.1562 332.773 24.1562C332.221 24.1562 331.674 24.0833 331.133 23.9375C330.596 23.7865 330.109 23.5625 329.672 23.2656C329.234 22.9635 328.885 22.5833 328.625 22.125C328.365 21.6615 328.234 21.1198 328.234 20.5H330.391C330.391 20.8594 330.448 21.1667 330.562 21.4219C330.682 21.6719 330.849 21.8776 331.062 22.0391C331.281 22.1953 331.536 22.3099 331.828 22.3828C332.12 22.4557 332.435 22.4922 332.773 22.4922C333.211 22.4922 333.57 22.4323 333.852 22.3125C334.138 22.1875 334.352 22.0156 334.492 21.7969C334.638 21.5781 334.711 21.3281 334.711 21.0469ZM346.812 22.3125V24H340.766V22.3125H346.812ZM341.422 12.625V24H339.273V12.625H341.422ZM346.023 17.3203V18.9688H340.766V17.3203H346.023ZM346.789 12.625V14.3203H340.766V12.625H346.789ZM349.055 12.625H353.188C354.052 12.625 354.794 12.7552 355.414 13.0156C356.034 13.276 356.51 13.6615 356.844 14.1719C357.177 14.6823 357.344 15.3099 357.344 16.0547C357.344 16.6432 357.24 17.1536 357.031 17.5859C356.823 18.0182 356.529 18.3802 356.148 18.6719C355.773 18.9635 355.331 19.1927 354.82 19.3594L354.148 19.7031H350.5L350.484 18.0078H353.211C353.654 18.0078 354.021 17.9297 354.312 17.7734C354.604 17.6172 354.823 17.401 354.969 17.125C355.12 16.849 355.195 16.5339 355.195 16.1797C355.195 15.7995 355.122 15.4714 354.977 15.1953C354.831 14.9141 354.609 14.6979 354.312 14.5469C354.016 14.3958 353.641 14.3203 353.188 14.3203H351.203V24H349.055V12.625ZM355.477 24L352.844 18.9062L355.117 18.8984L357.781 23.8906V24H355.477ZM369.203 12.625V24H367.062V12.625H369.203ZM372.734 12.625V14.3203H363.57V12.625H372.734ZM376.367 12.625L378.867 17.9297L381.383 12.625H383.742L379.961 19.8359V24H377.781V19.8359L373.992 12.625H376.367ZM390.008 19.8516H387.078V18.1641H390.008C390.487 18.1641 390.875 18.0859 391.172 17.9297C391.474 17.7682 391.695 17.5495 391.836 17.2734C391.977 16.9922 392.047 16.6719 392.047 16.3125C392.047 15.9635 391.977 15.638 391.836 15.3359C391.695 15.0339 391.474 14.7891 391.172 14.6016C390.875 14.4141 390.487 14.3203 390.008 14.3203H387.781V24H385.633V12.625H390.008C390.893 12.625 391.648 12.7839 392.273 13.1016C392.904 13.4141 393.383 13.849 393.711 14.4062C394.044 14.9583 394.211 15.5885 394.211 16.2969C394.211 17.0312 394.044 17.6641 393.711 18.1953C393.383 18.7266 392.904 19.1354 392.273 19.4219C391.648 19.7083 390.893 19.8516 390.008 19.8516ZM404.188 22.3125V24H398.141V22.3125H404.188ZM398.797 12.625V24H396.648V12.625H398.797ZM403.398 17.3203V18.9688H398.141V17.3203H403.398ZM404.164 12.625V14.3203H398.141V12.625H404.164Z" fill="#5C4195"/>
<defs>
<filter id="filter0_d_546_1816" x="0" y="33.5" width="961.002" height="22" filterUnits="userSpaceOnUse" color-interpolation-filters="sRGB">
<feFlood flood-opacity="0" result="BackgroundImageFix"/>
<feColorMatrix in="SourceAlpha" type="matrix" values="0 0 0 0 0 0 0 0 0 0 0 0 0 0 0 0 0 0 127 0" result="hardAlpha"/>
<feOffset dy="4"/>
<feGaussianBlur stdDeviation="2"/>
<feComposite in2="hardAlpha" operator="out"/>
<feColorMatrix type="matrix" values="0 0 0 0 0 0 0 0 0 0 0 0 0 0 0 0 0 0 0.25 0"/>
<feBlend mode="normal" in2="BackgroundImageFix" result="effect1_dropShadow_546_1816"/>
<feBlend mode="normal" in="SourceGraphic" in2="effect1_dropShadow_546_1816" result="shape"/>
</filter>
<clipPath id="clip0_546_1816">
<rect width="62" height="62" fill="white" transform="translate(965)"/>
</clipPath>
</defs>
</svg>
