<svg width="1027" height="62" viewBox="0 0 1027 62" fill="none" xmlns="http://www.w3.org/2000/svg">
<g filter="url(#filter0_d_546_1864)">
<rect x="4" y="33.5" width="953.002" height="14" rx="7" fill="#7CA055"/>
<path d="M486 40C486 36.134 489.134 33 493 33H711C714.866 33 718 36.134 718 40C718 43.866 714.866 47 711 47H493C489.134 47 486 43.866 486 40Z" fill="#5C4195"/>
</g>
<path d="M97.0625 22.3125V24H91.0156V22.3125H97.0625ZM91.6719 12.625V24H89.5234V12.625H91.6719ZM96.2734 17.3203V18.9688H91.0156V17.3203H96.2734ZM97.0391 12.625V14.3203H91.0156V12.625H97.0391ZM100.242 12.625H102.102L105.211 21.1875L108.312 12.625H110.18L105.953 24H104.461L100.242 12.625ZM99.3047 12.625H101.125L101.453 20.4922V24H99.3047V12.625ZM109.289 12.625H111.117V24H108.969V20.4922L109.289 12.625ZM118.719 14.3516L115.477 24H113.203L117.453 12.625H118.906L118.719 14.3516ZM121.43 24L118.172 14.3516L117.977 12.625H119.438L123.711 24H121.43ZM121.281 19.7734V21.4688H115.18V19.7734H121.281ZM127.922 12.625V24H125.773V12.625H127.922ZM138.211 22.3125V24H132.492V22.3125H138.211ZM133.141 12.625V24H130.992V12.625H133.141Z" fill="#5C4195"/>
<path d="M4 40.5C4 36.634 7.13401 33.5 11 33.5H229C232.866 33.5 236 36.634 236 40.5C236 44.366 232.866 47.5 229 47.5H11C7.13401 47.5 4 44.366 4 40.5Z" fill="#5C4195"/>
<g clip-path="url(#clip0_546_1864)">
<path d="M985.065 41.9345L993.852 38.3701L996 31L988.001 33.4581L985.065 41.9345Z" fill="#E75B70"/>
<path d="M992.663 34.3373L996 31L1004.91 34.1225L1006.93 41.9345L992.663 56.2063L988.001 47.5682L992.663 34.3373Z" fill="#30CA99"/>
<path d="M999.337 34.3373L996 31L999.337 20.5944L1006.93 20.0654L1021.21 34.3373L1012.57 38.9989L999.337 34.3373Z" fill="#2ECDF9"/>
<path d="M999.337 27.6624L996 30.9997L985.065 27.0477V20.0652L999.337 5.79346L1004 14.4316L999.337 27.6624Z" fill="#FDCB71"/>
<path d="M985.066 41.9345L970.794 27.6626L979.432 23.001L992.663 27.6626L996 30.9999L985.066 41.9345Z" fill="#E75B70"/>
<path d="M973.881 8.88112L992.663 27.6625H970.794L968.392 25.261C963.869 20.738 963.869 13.4041 968.392 8.88112C969.908 7.36515 972.365 7.36515 973.881 8.88112Z" fill="#FD8B9B"/>
<path d="M973.881 53.1183L992.663 34.3369V56.2058L990.261 58.6074C985.738 63.1303 978.404 63.1303 973.881 58.6074C972.365 57.0913 972.365 54.6343 973.881 53.1183Z" fill="#71D9B8"/>
<path d="M1018.12 8.8808L999.338 27.6622V5.79327L1001.74 3.39174C1006.26 -1.13123 1013.6 -1.13123 1018.12 3.39174C1019.64 4.90784 1019.64 7.36483 1018.12 8.8808Z" fill="#FAE09D"/>
<path d="M1018.12 53.1183L999.338 34.3369H1021.21L1023.61 36.7384C1028.13 41.2614 1028.13 48.5953 1023.61 53.1183C1022.09 54.6343 1019.64 54.6343 1018.12 53.1183Z" fill="#7CE0FD"/>
<path d="M996 35.7193C998.607 35.7193 1000.72 33.6062 1000.72 30.9995C1000.72 28.3929 998.607 26.2798 996 26.2798C993.393 26.2798 991.28 28.3929 991.28 30.9995C991.28 33.6062 993.393 35.7193 996 35.7193Z" fill="#696EAF"/>
</g>
<path d="M245 40C245 36.134 248.134 33 252 33H470C473.866 33 477 36.134 477 40C477 43.866 473.866 47 470 47H252C248.134 47 245 43.866 245 40Z" fill="#5C4195"/>
<path d="M323.82 12.625H325.969V20.1797C325.969 21.0495 325.781 21.7812 325.406 22.375C325.031 22.9635 324.521 23.4089 323.875 23.7109C323.229 24.0078 322.495 24.1562 321.672 24.1562C320.839 24.1562 320.096 24.0078 319.445 23.7109C318.794 23.4089 318.284 22.9635 317.914 22.375C317.544 21.7812 317.359 21.0495 317.359 20.1797V12.625H319.508V20.1797C319.508 20.7109 319.596 21.1458 319.773 21.4844C319.951 21.8177 320.201 22.0651 320.523 22.2266C320.846 22.388 321.229 22.4688 321.672 22.4688C322.12 22.4688 322.503 22.388 322.82 22.2266C323.143 22.0651 323.391 21.8177 323.562 21.4844C323.734 21.1458 323.82 20.7109 323.82 20.1797V12.625ZM334.711 21.0469C334.711 20.8281 334.677 20.6328 334.609 20.4609C334.547 20.2839 334.43 20.125 334.258 19.9844C334.091 19.8385 333.854 19.6979 333.547 19.5625C333.245 19.4219 332.854 19.276 332.375 19.125C331.844 18.9583 331.349 18.7708 330.891 18.5625C330.432 18.3542 330.029 18.112 329.68 17.8359C329.336 17.5599 329.068 17.2422 328.875 16.8828C328.682 16.5182 328.586 16.0964 328.586 15.6172C328.586 15.1484 328.685 14.7214 328.883 14.3359C329.086 13.9505 329.372 13.6198 329.742 13.3438C330.112 13.0625 330.547 12.8464 331.047 12.6953C331.552 12.5443 332.109 12.4688 332.719 12.4688C333.562 12.4688 334.292 12.6224 334.906 12.9297C335.526 13.237 336.005 13.6536 336.344 14.1797C336.682 14.7057 336.852 15.2969 336.852 15.9531H334.711C334.711 15.599 334.635 15.2865 334.484 15.0156C334.339 14.7448 334.115 14.5312 333.812 14.375C333.516 14.2188 333.141 14.1406 332.688 14.1406C332.25 14.1406 331.885 14.2057 331.594 14.3359C331.307 14.4661 331.091 14.6432 330.945 14.8672C330.805 15.0911 330.734 15.3411 330.734 15.6172C330.734 15.8255 330.784 16.013 330.883 16.1797C330.982 16.3411 331.13 16.4948 331.328 16.6406C331.526 16.7812 331.771 16.9141 332.062 17.0391C332.359 17.1589 332.703 17.2786 333.094 17.3984C333.719 17.5859 334.266 17.7943 334.734 18.0234C335.208 18.2526 335.602 18.513 335.914 18.8047C336.232 19.0964 336.469 19.4245 336.625 19.7891C336.786 20.1536 336.867 20.5677 336.867 21.0312C336.867 21.5208 336.771 21.9583 336.578 22.3438C336.385 22.7292 336.109 23.0573 335.75 23.3281C335.391 23.599 334.958 23.8047 334.453 23.9453C333.953 24.0859 333.393 24.1562 332.773 24.1562C332.221 24.1562 331.674 24.0833 331.133 23.9375C330.596 23.7865 330.109 23.5625 329.672 23.2656C329.234 22.9635 328.885 22.5833 328.625 22.125C328.365 21.6615 328.234 21.1198 328.234 20.5H330.391C330.391 20.8594 330.448 21.1667 330.562 21.4219C330.682 21.6719 330.849 21.8776 331.062 22.0391C331.281 22.1953 331.536 22.3099 331.828 22.3828C332.12 22.4557 332.435 22.4922 332.773 22.4922C333.211 22.4922 333.57 22.4323 333.852 22.3125C334.138 22.1875 334.352 22.0156 334.492 21.7969C334.638 21.5781 334.711 21.3281 334.711 21.0469ZM346.812 22.3125V24H340.766V22.3125H346.812ZM341.422 12.625V24H339.273V12.625H341.422ZM346.023 17.3203V18.9688H340.766V17.3203H346.023ZM346.789 12.625V14.3203H340.766V12.625H346.789ZM349.055 12.625H353.188C354.052 12.625 354.794 12.7552 355.414 13.0156C356.034 13.276 356.51 13.6615 356.844 14.1719C357.177 14.6823 357.344 15.3099 357.344 16.0547C357.344 16.6432 357.24 17.1536 357.031 17.5859C356.823 18.0182 356.529 18.3802 356.148 18.6719C355.773 18.9635 355.331 19.1927 354.82 19.3594L354.148 19.7031H350.5L350.484 18.0078H353.211C353.654 18.0078 354.021 17.9297 354.312 17.7734C354.604 17.6172 354.823 17.401 354.969 17.125C355.12 16.849 355.195 16.5339 355.195 16.1797C355.195 15.7995 355.122 15.4714 354.977 15.1953C354.831 14.9141 354.609 14.6979 354.312 14.5469C354.016 14.3958 353.641 14.3203 353.188 14.3203H351.203V24H349.055V12.625ZM355.477 24L352.844 18.9062L355.117 18.8984L357.781 23.8906V24H355.477ZM369.203 12.625V24H367.062V12.625H369.203ZM372.734 12.625V14.3203H363.57V12.625H372.734ZM376.367 12.625L378.867 17.9297L381.383 12.625H383.742L379.961 19.8359V24H377.781V19.8359L373.992 12.625H376.367ZM390.008 19.8516H387.078V18.1641H390.008C390.487 18.1641 390.875 18.0859 391.172 17.9297C391.474 17.7682 391.695 17.5495 391.836 17.2734C391.977 16.9922 392.047 16.6719 392.047 16.3125C392.047 15.9635 391.977 15.638 391.836 15.3359C391.695 15.0339 391.474 14.7891 391.172 14.6016C390.875 14.4141 390.487 14.3203 390.008 14.3203H387.781V24H385.633V12.625H390.008C390.893 12.625 391.648 12.7839 392.273 13.1016C392.904 13.4141 393.383 13.849 393.711 14.4062C394.044 14.9583 394.211 15.5885 394.211 16.2969C394.211 17.0312 394.044 17.6641 393.711 18.1953C393.383 18.7266 392.904 19.1354 392.273 19.4219C391.648 19.7083 390.893 19.8516 390.008 19.8516ZM404.188 22.3125V24H398.141V22.3125H404.188ZM398.797 12.625V24H396.648V12.625H398.797ZM403.398 17.3203V18.9688H398.141V17.3203H403.398ZM404.164 12.625V14.3203H398.141V12.625H404.164Z" fill="#5C4195"/>
<path d="M526.258 14.625V26H524.117V14.625H526.258ZM529.789 14.625V16.3203H520.625V14.625H529.789ZM539.508 24.3125V26H533.461V24.3125H539.508ZM534.117 14.625V26H531.969V14.625H534.117ZM538.719 19.3203V20.9688H533.461V19.3203H538.719ZM539.484 14.625V16.3203H533.461V14.625H539.484ZM548.969 24.3125V26H543.25V24.3125H548.969ZM543.898 14.625V26H541.75V14.625H543.898ZM558.375 24.3125V26H552.656V24.3125H558.375ZM553.305 14.625V26H551.156V14.625H553.305ZM571.625 14.625H573.773V22.1797C573.773 23.0495 573.586 23.7812 573.211 24.375C572.836 24.9635 572.326 25.4089 571.68 25.7109C571.034 26.0078 570.299 26.1562 569.477 26.1562C568.643 26.1562 567.901 26.0078 567.25 25.7109C566.599 25.4089 566.089 24.9635 565.719 24.375C565.349 23.7812 565.164 23.0495 565.164 22.1797V14.625H567.312V22.1797C567.312 22.7109 567.401 23.1458 567.578 23.4844C567.755 23.8177 568.005 24.0651 568.328 24.2266C568.651 24.388 569.034 24.4688 569.477 24.4688C569.924 24.4688 570.307 24.388 570.625 24.2266C570.948 24.0651 571.195 23.8177 571.367 23.4844C571.539 23.1458 571.625 22.7109 571.625 22.1797V14.625ZM582.516 23.0469C582.516 22.8281 582.482 22.6328 582.414 22.4609C582.352 22.2839 582.234 22.125 582.062 21.9844C581.896 21.8385 581.659 21.6979 581.352 21.5625C581.049 21.4219 580.659 21.276 580.18 21.125C579.648 20.9583 579.154 20.7708 578.695 20.5625C578.237 20.3542 577.833 20.112 577.484 19.8359C577.141 19.5599 576.872 19.2422 576.68 18.8828C576.487 18.5182 576.391 18.0964 576.391 17.6172C576.391 17.1484 576.49 16.7214 576.688 16.3359C576.891 15.9505 577.177 15.6198 577.547 15.3438C577.917 15.0625 578.352 14.8464 578.852 14.6953C579.357 14.5443 579.914 14.4688 580.523 14.4688C581.367 14.4688 582.096 14.6224 582.711 14.9297C583.331 15.237 583.81 15.6536 584.148 16.1797C584.487 16.7057 584.656 17.2969 584.656 17.9531H582.516C582.516 17.599 582.44 17.2865 582.289 17.0156C582.143 16.7448 581.919 16.5312 581.617 16.375C581.32 16.2188 580.945 16.1406 580.492 16.1406C580.055 16.1406 579.69 16.2057 579.398 16.3359C579.112 16.4661 578.896 16.6432 578.75 16.8672C578.609 17.0911 578.539 17.3411 578.539 17.6172C578.539 17.8255 578.589 18.013 578.688 18.1797C578.786 18.3411 578.935 18.4948 579.133 18.6406C579.331 18.7812 579.576 18.9141 579.867 19.0391C580.164 19.1589 580.508 19.2786 580.898 19.3984C581.523 19.5859 582.07 19.7943 582.539 20.0234C583.013 20.2526 583.406 20.513 583.719 20.8047C584.036 21.0964 584.273 21.4245 584.43 21.7891C584.591 22.1536 584.672 22.5677 584.672 23.0312C584.672 23.5208 584.576 23.9583 584.383 24.3438C584.19 24.7292 583.914 25.0573 583.555 25.3281C583.195 25.599 582.763 25.8047 582.258 25.9453C581.758 26.0859 581.198 26.1562 580.578 26.1562C580.026 26.1562 579.479 26.0833 578.938 25.9375C578.401 25.7865 577.914 25.5625 577.477 25.2656C577.039 24.9635 576.69 24.5833 576.43 24.125C576.169 23.6615 576.039 23.1198 576.039 22.5H578.195C578.195 22.8594 578.253 23.1667 578.367 23.4219C578.487 23.6719 578.654 23.8776 578.867 24.0391C579.086 24.1953 579.341 24.3099 579.633 24.3828C579.924 24.4557 580.24 24.4922 580.578 24.4922C581.016 24.4922 581.375 24.4323 581.656 24.3125C581.943 24.1875 582.156 24.0156 582.297 23.7969C582.443 23.5781 582.516 23.3281 582.516 23.0469ZM596.336 16.3516L593.094 26H590.82L595.07 14.625H596.523L596.336 16.3516ZM599.047 26L595.789 16.3516L595.594 14.625H597.055L601.328 26H599.047ZM598.898 21.7734V23.4688H592.797V21.7734H598.898ZM607.609 20.9297H604.703L604.688 19.4141H607.18C607.607 19.4141 607.964 19.3542 608.25 19.2344C608.536 19.1146 608.753 18.9401 608.898 18.7109C609.049 18.4818 609.125 18.2031 609.125 17.875C609.125 17.5104 609.055 17.2135 608.914 16.9844C608.779 16.7552 608.565 16.5885 608.273 16.4844C607.982 16.375 607.612 16.3203 607.164 16.3203H605.398V26H603.25V14.625H607.164C607.81 14.625 608.385 14.6875 608.891 14.8125C609.401 14.9323 609.833 15.1198 610.188 15.375C610.542 15.6302 610.81 15.9505 610.992 16.3359C611.18 16.7214 611.273 17.1797 611.273 17.7109C611.273 18.1797 611.164 18.612 610.945 19.0078C610.732 19.3984 610.401 19.7161 609.953 19.9609C609.51 20.2057 608.948 20.3464 608.266 20.3828L607.609 20.9297ZM607.516 26H604.07L604.969 24.3125H607.516C607.943 24.3125 608.294 24.2422 608.57 24.1016C608.852 23.9609 609.06 23.7682 609.195 23.5234C609.336 23.2734 609.406 22.987 609.406 22.6641C609.406 22.3099 609.344 22.0026 609.219 21.7422C609.099 21.4818 608.906 21.2812 608.641 21.1406C608.38 21 608.036 20.9297 607.609 20.9297H605.375L605.391 19.4141H608.234L608.727 20C609.383 20.0052 609.917 20.1354 610.328 20.3906C610.745 20.6458 611.052 20.974 611.25 21.375C611.448 21.776 611.547 22.2083 611.547 22.6719C611.547 23.401 611.388 24.013 611.07 24.5078C610.758 25.0026 610.299 25.375 609.695 25.625C609.096 25.875 608.37 26 607.516 26ZM623.367 20.0234V20.6094C623.367 21.4688 623.253 22.2422 623.023 22.9297C622.794 23.612 622.469 24.1927 622.047 24.6719C621.625 25.151 621.122 25.5182 620.539 25.7734C619.956 26.0286 619.307 26.1562 618.594 26.1562C617.891 26.1562 617.245 26.0286 616.656 25.7734C616.073 25.5182 615.568 25.151 615.141 24.6719C614.714 24.1927 614.383 23.612 614.148 22.9297C613.914 22.2422 613.797 21.4688 613.797 20.6094V20.0234C613.797 19.1589 613.914 18.3854 614.148 17.7031C614.383 17.0208 614.711 16.4401 615.133 15.9609C615.555 15.4766 616.057 15.1068 616.641 14.8516C617.229 14.5964 617.875 14.4688 618.578 14.4688C619.292 14.4688 619.94 14.5964 620.523 14.8516C621.107 15.1068 621.609 15.4766 622.031 15.9609C622.458 16.4401 622.786 17.0208 623.016 17.7031C623.25 18.3854 623.367 19.1589 623.367 20.0234ZM621.195 20.6094V20.0078C621.195 19.388 621.138 18.8438 621.023 18.375C620.909 17.901 620.74 17.5026 620.516 17.1797C620.292 16.8568 620.016 16.6146 619.688 16.4531C619.359 16.2865 618.99 16.2031 618.578 16.2031C618.161 16.2031 617.792 16.2865 617.469 16.4531C617.151 16.6146 616.88 16.8568 616.656 17.1797C616.432 17.5026 616.26 17.901 616.141 18.375C616.026 18.8438 615.969 19.388 615.969 20.0078V20.6094C615.969 21.224 616.026 21.7682 616.141 22.2422C616.26 22.7161 616.432 23.1172 616.656 23.4453C616.885 23.7682 617.161 24.013 617.484 24.1797C617.807 24.3464 618.177 24.4297 618.594 24.4297C619.01 24.4297 619.38 24.3464 619.703 24.1797C620.026 24.013 620.297 23.7682 620.516 23.4453C620.74 23.1172 620.909 22.7161 621.023 22.2422C621.138 21.7682 621.195 21.224 621.195 20.6094ZM632.266 14.625H634.414V22.1797C634.414 23.0495 634.227 23.7812 633.852 24.375C633.477 24.9635 632.966 25.4089 632.32 25.7109C631.674 26.0078 630.94 26.1562 630.117 26.1562C629.284 26.1562 628.542 26.0078 627.891 25.7109C627.24 25.4089 626.729 24.9635 626.359 24.375C625.99 23.7812 625.805 23.0495 625.805 22.1797V14.625H627.953V22.1797C627.953 22.7109 628.042 23.1458 628.219 23.4844C628.396 23.8177 628.646 24.0651 628.969 24.2266C629.292 24.388 629.674 24.4688 630.117 24.4688C630.565 24.4688 630.948 24.388 631.266 24.2266C631.589 24.0651 631.836 23.8177 632.008 23.4844C632.18 23.1458 632.266 22.7109 632.266 22.1797V14.625ZM642.086 14.625V26H639.945V14.625H642.086ZM645.617 14.625V16.3203H636.453V14.625H645.617ZM653.469 14.625L655.969 19.9297L658.484 14.625H660.844L657.062 21.8359V26H654.883V21.8359L651.094 14.625H653.469ZM671.711 20.0234V20.6094C671.711 21.4688 671.596 22.2422 671.367 22.9297C671.138 23.612 670.812 24.1927 670.391 24.6719C669.969 25.151 669.466 25.5182 668.883 25.7734C668.299 26.0286 667.651 26.1562 666.938 26.1562C666.234 26.1562 665.589 26.0286 665 25.7734C664.417 25.5182 663.911 25.151 663.484 24.6719C663.057 24.1927 662.727 23.612 662.492 22.9297C662.258 22.2422 662.141 21.4688 662.141 20.6094V20.0234C662.141 19.1589 662.258 18.3854 662.492 17.7031C662.727 17.0208 663.055 16.4401 663.477 15.9609C663.898 15.4766 664.401 15.1068 664.984 14.8516C665.573 14.5964 666.219 14.4688 666.922 14.4688C667.635 14.4688 668.284 14.5964 668.867 14.8516C669.451 15.1068 669.953 15.4766 670.375 15.9609C670.802 16.4401 671.13 17.0208 671.359 17.7031C671.594 18.3854 671.711 19.1589 671.711 20.0234ZM669.539 20.6094V20.0078C669.539 19.388 669.482 18.8438 669.367 18.375C669.253 17.901 669.083 17.5026 668.859 17.1797C668.635 16.8568 668.359 16.6146 668.031 16.4531C667.703 16.2865 667.333 16.2031 666.922 16.2031C666.505 16.2031 666.135 16.2865 665.812 16.4531C665.495 16.6146 665.224 16.8568 665 17.1797C664.776 17.5026 664.604 17.901 664.484 18.375C664.37 18.8438 664.312 19.388 664.312 20.0078V20.6094C664.312 21.224 664.37 21.7682 664.484 22.2422C664.604 22.7161 664.776 23.1172 665 23.4453C665.229 23.7682 665.505 24.013 665.828 24.1797C666.151 24.3464 666.521 24.4297 666.938 24.4297C667.354 24.4297 667.724 24.3464 668.047 24.1797C668.37 24.013 668.641 23.7682 668.859 23.4453C669.083 23.1172 669.253 22.7161 669.367 22.2422C669.482 21.7682 669.539 21.224 669.539 20.6094ZM680.609 14.625H682.758V22.1797C682.758 23.0495 682.57 23.7812 682.195 24.375C681.82 24.9635 681.31 25.4089 680.664 25.7109C680.018 26.0078 679.284 26.1562 678.461 26.1562C677.628 26.1562 676.885 26.0078 676.234 25.7109C675.583 25.4089 675.073 24.9635 674.703 24.375C674.333 23.7812 674.148 23.0495 674.148 22.1797V14.625H676.297V22.1797C676.297 22.7109 676.385 23.1458 676.562 23.4844C676.74 23.8177 676.99 24.0651 677.312 24.2266C677.635 24.388 678.018 24.4688 678.461 24.4688C678.909 24.4688 679.292 24.388 679.609 24.2266C679.932 24.0651 680.18 23.8177 680.352 23.4844C680.523 23.1458 680.609 22.7109 680.609 22.1797V14.625Z" fill="#6750A4"/>
<defs>
<filter id="filter0_d_546_1864" x="0" y="33" width="961.002" height="22.5" filterUnits="userSpaceOnUse" color-interpolation-filters="sRGB">
<feFlood flood-opacity="0" result="BackgroundImageFix"/>
<feColorMatrix in="SourceAlpha" type="matrix" values="0 0 0 0 0 0 0 0 0 0 0 0 0 0 0 0 0 0 127 0" result="hardAlpha"/>
<feOffset dy="4"/>
<feGaussianBlur stdDeviation="2"/>
<feComposite in2="hardAlpha" operator="out"/>
<feColorMatrix type="matrix" values="0 0 0 0 0 0 0 0 0 0 0 0 0 0 0 0 0 0 0.25 0"/>
<feBlend mode="normal" in2="BackgroundImageFix" result="effect1_dropShadow_546_1864"/>
<feBlend mode="normal" in="SourceGraphic" in2="effect1_dropShadow_546_1864" result="shape"/>
</filter>
<clipPath id="clip0_546_1864">
<rect width="62" height="62" fill="white" transform="translate(965)"/>
</clipPath>
</defs>
</svg>
