<svg width="97" height="95" viewBox="0 0 97 95" fill="none" xmlns="http://www.w3.org/2000/svg">
<path d="M48.8066 94.875C75.2786 94.875 96.7383 73.6365 96.7383 47.4375C96.7383 21.2385 75.2786 0 48.8066 0C22.3347 0 0.875 21.2385 0.875 47.4375C0.875 73.6365 22.3347 94.875 48.8066 94.875Z" fill="#84DBFF"/>
<path d="M78.3069 17.868C77.8522 17.9242 67.186 19.443 64.2116 22.3867C61.1614 25.4055 60.8961 30.0555 63.6432 32.7742C64.8747 33.993 66.5418 34.6492 68.3606 34.6492C68.5122 34.6492 68.6448 34.6492 68.7963 34.6305C70.7666 34.518 72.6612 33.6555 74.1389 32.193C77.1133 29.2492 78.6479 18.693 78.7047 18.243L78.7616 17.793L78.3069 17.868Z" fill="#FF7058"/>
<path d="M62.8258 33.4115C61.4238 32.0615 59.4725 31.3678 57.3506 31.4615C54.7551 31.574 52.1406 32.8865 50.3598 34.949L48.7305 36.824V41.4553C48.7305 44.7928 51.4775 47.4928 54.8309 47.4928H59.4725L61.6701 45.6365C63.7162 43.9115 64.9287 41.4928 65.0045 38.9615C65.0992 36.824 64.3035 34.8365 62.8258 33.4115Z" fill="#324A5E"/>
<path d="M25.4486 64.5181L25.1644 64.1431L20.0492 70.0681C18.4767 71.8868 18.4578 74.4181 19.9924 75.9368C20.7502 76.6868 21.7543 77.0618 22.8152 77.0618C23.8951 77.0618 24.9939 76.6681 25.9222 75.8806L31.909 70.8181L31.5301 70.5368C29.2187 68.8306 27.1726 66.8056 25.4486 64.5181Z" fill="#324A5E"/>
<path d="M77.3974 49.0866C76.2228 47.6053 74.4609 46.7616 72.5664 46.7616H54.8525C51.897 46.7616 49.491 44.3803 49.491 41.4553V23.9241C49.491 22.0491 48.6384 20.3053 47.1418 19.1428C45.683 18.0178 43.8453 17.6053 42.0644 18.0178C27.7418 21.4116 18.0039 34.4616 18.9322 49.0491C19.8795 64.0678 32.0234 76.0866 47.1986 77.0241C47.8427 77.0616 48.4869 77.0803 49.1121 77.0803C63.0748 77.0803 75.2756 67.6866 78.5531 54.1303C78.9699 52.3678 78.5531 50.5303 77.3974 49.0866Z" fill="#FFD05B"/>
<path d="M38.8424 34.2926C41.2385 34.2926 43.1809 32.3702 43.1809 29.9988C43.1809 27.6275 41.2385 25.7051 38.8424 25.7051C36.4463 25.7051 34.5039 27.6275 34.5039 29.9988C34.5039 32.3702 36.4463 34.2926 38.8424 34.2926Z" fill="#324A5E"/>
<path d="M30.9439 47.4547C33.34 47.4547 35.2824 45.5323 35.2824 43.1609C35.2824 40.7896 33.34 38.8672 30.9439 38.8672C28.5479 38.8672 26.6055 40.7896 26.6055 43.1609C26.6055 45.5323 28.5479 47.4547 30.9439 47.4547Z" fill="#4CDBC4"/>
<path d="M32.6471 62.1734C35.0431 62.1734 36.9855 60.2511 36.9855 57.8797C36.9855 55.5083 35.0431 53.5859 32.6471 53.5859C30.251 53.5859 28.3086 55.5083 28.3086 57.8797C28.3086 60.2511 30.251 62.1734 32.6471 62.1734Z" fill="#2FB5A0"/>
<path d="M44.7742 45.543C41.3072 45.543 38.4844 48.3367 38.4844 51.768C38.4844 55.1992 41.3072 57.993 44.7742 57.993C48.2412 57.993 51.0641 55.1992 51.0641 51.768C51.0641 48.3367 48.2412 45.543 44.7742 45.543Z" fill="#F1543F"/>
<path d="M43.1822 72.1676C45.5783 72.1676 47.5207 70.2452 47.5207 67.8738C47.5207 65.5025 45.5783 63.5801 43.1822 63.5801C40.7862 63.5801 38.8438 65.5025 38.8438 67.8738C38.8438 70.2452 40.7862 72.1676 43.1822 72.1676Z" fill="#CED5E0"/>
<path d="M57.733 69.5426C60.1291 69.5426 62.0715 67.6202 62.0715 65.2488C62.0715 62.8775 60.1291 60.9551 57.733 60.9551C55.3369 60.9551 53.3945 62.8775 53.3945 65.2488C53.3945 67.6202 55.3369 69.5426 57.733 69.5426Z" fill="white"/>
<path d="M67.2057 59.6246C69.6017 59.6246 71.5441 57.7022 71.5441 55.3309C71.5441 52.9595 69.6017 51.0371 67.2057 51.0371C64.8096 51.0371 62.8672 52.9595 62.8672 55.3309C62.8672 57.7022 64.8096 59.6246 67.2057 59.6246Z" fill="#FF7058"/>
</svg>
