<svg width="135" height="135" viewBox="0 0 135 135" fill="none" xmlns="http://www.w3.org/2000/svg">
<g filter="url(#filter0_ddd_817_53576)">
<path d="M67.4158 121.796C98.0212 121.796 122.832 96.9932 122.832 66.3978C122.832 35.8024 98.0212 11 67.4158 11C36.8105 11 12 35.8024 12 66.3978C12 96.9932 36.8105 121.796 67.4158 121.796Z" fill="#F7B239"/>
<path d="M67.4158 121.796C98.0212 121.796 122.832 96.9932 122.832 66.3978C122.832 35.8024 98.0212 11 67.4158 11C36.8105 11 12 35.8024 12 66.3978C12 96.9932 36.8105 121.796 67.4158 121.796Z" stroke="#5C4195"/>
</g>
<path d="M56.2839 99.7983H58.237C58.1745 100.543 57.9662 101.207 57.612 101.791C57.2579 102.369 56.7605 102.824 56.1198 103.158C55.4792 103.491 54.7006 103.658 53.7839 103.658C53.0808 103.658 52.448 103.533 51.8855 103.283C51.323 103.028 50.8412 102.668 50.4402 102.205C50.0391 101.736 49.7318 101.171 49.5183 100.509C49.31 99.8478 49.2058 99.1082 49.2058 98.2905V97.3452C49.2058 96.5275 49.3126 95.7879 49.5261 95.1265C49.7448 94.465 50.0573 93.8999 50.4636 93.4312C50.8698 92.9572 51.3568 92.5952 51.9245 92.3452C52.4975 92.0952 53.1407 91.9702 53.8542 91.9702C54.7605 91.9702 55.5261 92.1369 56.1511 92.4702C56.7761 92.8035 57.2605 93.2645 57.6042 93.853C57.9532 94.4416 58.1667 95.116 58.2448 95.8765H56.2917C56.2396 95.3869 56.1251 94.9676 55.948 94.6187C55.7761 94.2697 55.5209 94.0041 55.1823 93.8218C54.8438 93.6343 54.4011 93.5405 53.8542 93.5405C53.4063 93.5405 53.0157 93.6239 52.6823 93.7905C52.349 93.9572 52.0704 94.202 51.8464 94.5249C51.6225 94.8478 51.4532 95.2463 51.3386 95.7202C51.2292 96.189 51.1745 96.7254 51.1745 97.3296V98.2905C51.1745 98.8634 51.224 99.3843 51.323 99.853C51.4271 100.317 51.5834 100.715 51.7917 101.048C52.0053 101.382 52.2761 101.639 52.6042 101.822C52.9323 102.004 53.3256 102.095 53.7839 102.095C54.3412 102.095 54.7917 102.007 55.1355 101.83C55.4844 101.653 55.7475 101.395 55.9245 101.056C56.1068 100.712 56.2266 100.293 56.2839 99.7983ZM61.8402 91.5015V103.501H59.9652V91.5015H61.8402ZM61.512 98.9624L60.9027 98.9546C60.9079 98.3713 60.9886 97.8322 61.1448 97.3374C61.3063 96.8426 61.5303 96.4129 61.8167 96.0483C62.1084 95.6785 62.4573 95.3947 62.8636 95.1968C63.2698 94.9937 63.7204 94.8921 64.2152 94.8921C64.6318 94.8921 65.0068 94.9494 65.3402 95.064C65.6787 95.1785 65.9704 95.3634 66.2152 95.6187C66.46 95.8687 66.6448 96.1968 66.7698 96.603C66.9001 97.0041 66.9652 97.4937 66.9652 98.0718V103.501H65.0745V98.0562C65.0745 97.6499 65.0146 97.327 64.8948 97.0874C64.7803 96.8478 64.611 96.6759 64.387 96.5718C64.1631 96.4624 63.8896 96.4077 63.5667 96.4077C63.2282 96.4077 62.9287 96.4754 62.6683 96.6108C62.4131 96.7463 62.1995 96.9312 62.0277 97.1655C61.8558 97.3999 61.7256 97.6707 61.637 97.978C61.5537 98.2853 61.512 98.6134 61.512 98.9624ZM71.037 95.0483V103.501H69.1464V95.0483H71.037ZM69.0214 92.8296C69.0214 92.5431 69.1152 92.3062 69.3027 92.1187C69.4954 91.9259 69.761 91.8296 70.0995 91.8296C70.4329 91.8296 70.6959 91.9259 70.8886 92.1187C71.0813 92.3062 71.1777 92.5431 71.1777 92.8296C71.1777 93.1108 71.0813 93.3452 70.8886 93.5327C70.6959 93.7202 70.4329 93.814 70.0995 93.814C69.761 93.814 69.4954 93.7202 69.3027 93.5327C69.1152 93.3452 69.0214 93.1108 69.0214 92.8296ZM75.2652 91.5015V103.501H73.3745V91.5015H75.2652ZM82.6339 101.751V91.5015H84.5245V103.501H82.8136L82.6339 101.751ZM77.1339 99.3687V99.2046C77.1339 98.564 77.2094 97.9806 77.3605 97.4546C77.5115 96.9233 77.7303 96.4676 78.0167 96.0874C78.3032 95.702 78.6521 95.4077 79.0636 95.2046C79.4751 94.9963 79.9386 94.8921 80.4542 94.8921C80.9646 94.8921 81.4126 94.991 81.798 95.189C82.1834 95.3869 82.5115 95.6707 82.7823 96.0405C83.0532 96.4051 83.2693 96.8426 83.4308 97.353C83.5922 97.8582 83.7068 98.4207 83.7745 99.0405V99.564C83.7068 100.168 83.5922 100.72 83.4308 101.22C83.2693 101.72 83.0532 102.153 82.7823 102.517C82.5115 102.882 82.1808 103.163 81.7902 103.361C81.4047 103.559 80.9542 103.658 80.4386 103.658C79.9282 103.658 79.4672 103.551 79.0558 103.337C78.6495 103.124 78.3032 102.824 78.0167 102.439C77.7303 102.054 77.5115 101.6 77.3605 101.08C77.2094 100.554 77.1339 99.9832 77.1339 99.3687ZM79.0167 99.2046V99.3687C79.0167 99.7541 79.0506 100.113 79.1183 100.447C79.1912 100.78 79.3032 101.074 79.4542 101.33C79.6053 101.58 79.8006 101.778 80.0402 101.923C80.285 102.064 80.5766 102.134 80.9152 102.134C81.3422 102.134 81.6938 102.041 81.9698 101.853C82.2459 101.666 82.462 101.413 82.6183 101.095C82.7797 100.772 82.8891 100.413 82.9464 100.017V98.603C82.9152 98.2957 82.8501 98.0093 82.7511 97.7437C82.6573 97.478 82.5297 97.2463 82.3683 97.0483C82.2068 96.8452 82.0063 96.689 81.7667 96.5796C81.5323 96.465 81.2537 96.4077 80.9308 96.4077C80.587 96.4077 80.2954 96.4806 80.0558 96.6265C79.8162 96.7723 79.6183 96.9728 79.462 97.228C79.311 97.4832 79.199 97.7801 79.1261 98.1187C79.0532 98.4572 79.0167 98.8192 79.0167 99.2046Z" fill="#263238"/>
<path d="M70.4395 67.6318C78.5103 54.9383 86.8878 49.1495 92.1414 47.1588C94.1856 46.5501 95.0404 50.144 92.8197 51.1497C94.4904 52.1516 95.7578 54.3202 93.8381 56.6762C95.44 58.3579 96.4063 58.2643 95.8358 61.109C95.2579 63.9912 85.2543 78.4826 70.4395 67.6337V67.6318Z" fill="#9677D9"/>
<path d="M58.5882 76.2876H58.4023V82.0014H58.5882V76.2876Z" fill="#7A6576"/>
<path d="M63.596 76.2876H63.4102V82.0014H63.596V76.2876Z" fill="#7A6576"/>
<path d="M38 69.9501C42.1423 53.2469 46.4147 30.9573 66.537 34.9762C86.6612 38.9971 88.7054 54.7901 79.2519 80.3196C79.2519 80.3196 56.9739 78.0723 38 69.9501Z" fill="#5C4195"/>
<path d="M67.2154 50.6232C68.1557 47.9226 66.7452 44.9655 64.0654 44.0161C61.3857 43.0684 58.4495 44.488 57.5091 47.1885C56.5669 49.8909 57.9774 52.848 60.6591 53.7975C63.3388 54.7451 66.275 53.3256 67.2154 50.6232Z" fill="#F9F1EE"/>
<path d="M65.8434 48.2225C65.6222 48.8573 65.1112 49.2506 64.7005 49.1045C64.2879 48.9585 64.1337 48.3292 64.3548 47.6944C64.576 47.0614 65.087 46.6681 65.4977 46.8142C65.9084 46.9602 66.0627 47.5895 65.8434 48.2225Z" fill="#7A6576"/>
<path d="M83.4021 55.2714C84.3425 52.5708 82.9338 49.6137 80.2541 48.6642C77.5724 47.7148 74.6381 49.1362 73.6959 51.8367C72.7556 54.5391 74.1642 57.4962 76.8458 58.4457C79.5256 59.3933 82.4599 57.9719 83.4021 55.2714Z" fill="#F9F1EE"/>
<path d="M82.032 52.8707C81.8109 53.5056 81.2998 53.8989 80.8891 53.7547C80.4766 53.6086 80.3242 52.9793 80.5435 52.3445C80.7628 51.7115 81.2738 51.3182 81.6864 51.4624C82.0989 51.6085 82.2513 52.2377 82.032 52.8707Z" fill="#7A6576"/>
<path d="M66.7539 54.1235L67.7983 58.959L72.0038 55.1011L66.7539 54.1235Z" fill="#846C30"/>
<path d="M66.7949 54.0635L68.7536 58.6031L72.0485 55.0205L66.7949 54.0635Z" fill="#E2C464"/>
<path d="M42.0957 71.5961C57.1856 77.3005 73.1694 79.5816 77.8692 80.1621C78.1944 67.5285 72.5505 64.826 63.7902 62.6555C55.7658 60.6648 46.8494 64.062 42.0957 71.5961Z" fill="white"/>
<path d="M43.6388 52.0409C58.2827 55.1235 66.6323 60.9534 70.349 65.1934C71.6425 66.9013 68.6115 68.9857 66.8888 67.2515C66.5561 69.1805 64.9951 71.145 62.1277 70.1768C61.1371 72.2836 61.5683 73.1601 58.7287 73.6339C55.8483 74.1152 38.8517 69.8528 43.637 52.0391L43.6388 52.0409Z" fill="#9677D9"/>
<path d="M88.8587 37.147C84.0902 37.147 83.3561 42.799 84.8855 44.7466C86.415 46.6962 86.4298 48.1307 86.4298 48.9772C86.4298 49.8237 86.6993 50.0203 87.0301 50.202H91.02C91.3489 50.0203 91.6202 49.8237 91.6202 48.9772C91.6202 48.1307 91.6351 46.6962 93.1645 44.7466C94.694 42.7971 93.9599 37.147 89.1914 37.147H88.8587Z" fill="#EAE8DF"/>
<path d="M87.8378 54.0336C88.0199 54.3856 88.4176 54.7639 89.081 54.7639C89.7445 54.7639 90.2091 54.543 90.3243 54.0729C90.4414 53.6028 87.8861 53.4474 87.8359 54.0336H87.8378Z" fill="url(#paint0_radial_817_53576)"/>
<path d="M87.1406 53.4196C87.425 53.7717 88.0475 54.15 89.0826 54.15C90.1177 54.15 90.8425 53.929 91.0246 53.4589C91.2067 52.9888 87.2187 52.8315 87.1406 53.4196Z" fill="url(#paint1_linear_817_53576)"/>
<path d="M91.2812 50.1588C91.4243 50.2768 91.2942 50.4977 91.3462 50.5895C91.3982 50.6813 91.3202 50.7599 91.2421 50.876C91.1641 50.994 91.1901 51.2806 91.2942 51.3985C91.3982 51.5165 91.3945 51.5521 91.2737 51.6326C91.1529 51.7132 91.205 52.0521 91.2942 52.1682C91.3852 52.2862 91.3852 52.1683 91.2552 52.3518C91.1251 52.5353 91.1325 52.8331 91.2682 52.9136C91.4038 52.9941 91.2421 53.3312 90.9968 53.4623C90.7906 53.6065 89.6124 53.6196 89.25 53.6196H88.9099C88.5475 53.6196 87.3693 53.6065 87.163 53.4623C86.9475 53.3968 86.7784 53.2807 86.8824 53.2282C86.9865 53.1758 87.0515 52.7582 86.9605 52.6926C86.8694 52.6271 86.862 52.5372 86.9438 52.4585C87.0255 52.3799 87.0868 52.0784 86.9661 51.9754C86.8453 51.8705 86.8453 51.8199 86.9084 51.7413C86.9735 51.6626 87.0776 51.1925 86.9605 51.0633C86.8434 50.9322 86.7914 50.9978 86.8824 50.8667C86.9735 50.7356 87.0645 50.6719 86.9475 50.5801C86.8304 50.4884 86.7282 50.2412 86.8694 50.1494L91.2849 50.1625L91.2812 50.1588Z" fill="url(#paint2_linear_817_53576)"/>
<path d="M91.3797 50.6161C91.3741 50.5374 91.3053 50.4775 91.2273 50.485L86.9159 50.8259C86.8378 50.8315 86.7784 50.9008 86.7858 50.9794C86.7914 51.0581 86.8601 51.118 86.9382 51.1105L91.2496 50.7697C91.3276 50.7641 91.3871 50.6948 91.3797 50.6161Z" fill="#CFD5BA"/>
<path d="M91.3797 51.4774C91.3741 51.3988 91.3053 51.3388 91.2273 51.3463L86.9159 51.6872C86.8378 51.6928 86.7784 51.7621 86.7858 51.8407C86.7914 51.9194 86.8601 51.9793 86.9382 51.9718L91.2496 51.631C91.3276 51.6254 91.3871 51.5561 91.3797 51.4774Z" fill="#CFD5BA"/>
<path d="M91.3797 52.2471C91.3741 52.1684 91.3053 52.1085 91.2273 52.1141L86.9159 52.455C86.8378 52.4606 86.7784 52.5299 86.7858 52.6085C86.7914 52.6872 86.8601 52.7471 86.9382 52.7396L91.2496 52.3988C91.3276 52.3932 91.3871 52.3239 91.3797 52.2452V52.2471Z" fill="#CFD5BA"/>
<path d="M91.3797 52.9906C91.3741 52.912 91.3053 52.852 91.2273 52.8595L86.9159 53.2004C86.8378 53.206 86.7784 53.2753 86.7858 53.3539C86.7914 53.4326 86.8601 53.4925 86.9382 53.485L91.2496 53.1442C91.3276 53.1386 91.3871 53.0693 91.3797 52.9906Z" fill="#CFD5BA"/>
<defs>
<filter id="filter0_ddd_817_53576" x="0" y="0" width="134.832" height="134.795" filterUnits="userSpaceOnUse" color-interpolation-filters="sRGB">
<feFlood flood-opacity="0" result="BackgroundImageFix"/>
<feColorMatrix in="SourceAlpha" type="matrix" values="0 0 0 0 0 0 0 0 0 0 0 0 0 0 0 0 0 0 127 0" result="hardAlpha"/>
<feOffset dy="1"/>
<feGaussianBlur stdDeviation="6"/>
<feColorMatrix type="matrix" values="0 0 0 0 0 0 0 0 0 0 0 0 0 0 0 0 0 0 0.04 0"/>
<feBlend mode="normal" in2="BackgroundImageFix" result="effect1_dropShadow_817_53576"/>
<feColorMatrix in="SourceAlpha" type="matrix" values="0 0 0 0 0 0 0 0 0 0 0 0 0 0 0 0 0 0 127 0" result="hardAlpha"/>
<feOffset dy="4"/>
<feGaussianBlur stdDeviation="4"/>
<feColorMatrix type="matrix" values="0 0 0 0 0 0 0 0 0 0 0 0 0 0 0 0 0 0 0.08 0"/>
<feBlend mode="normal" in2="effect1_dropShadow_817_53576" result="effect2_dropShadow_817_53576"/>
<feColorMatrix in="SourceAlpha" type="matrix" values="0 0 0 0 0 0 0 0 0 0 0 0 0 0 0 0 0 0 127 0" result="hardAlpha"/>
<feOffset dy="3"/>
<feGaussianBlur stdDeviation="3"/>
<feColorMatrix type="matrix" values="0 0 0 0 0 0 0 0 0 0 0 0 0 0 0 0 0 0 0.1 0"/>
<feBlend mode="normal" in2="effect2_dropShadow_817_53576" result="effect3_dropShadow_817_53576"/>
<feBlend mode="normal" in="SourceGraphic" in2="effect3_dropShadow_817_53576" result="shape"/>
</filter>
<radialGradient id="paint0_radial_817_53576" cx="0" cy="0" r="1" gradientUnits="userSpaceOnUse" gradientTransform="translate(88.9964 53.9549) rotate(90) scale(0.756598 1.32137)">
<stop stop-color="#0F0F0F"/>
<stop offset="1" stop-color="#757575"/>
</radialGradient>
<linearGradient id="paint1_linear_817_53576" x1="87.1406" y1="53.5956" x2="91.0302" y2="53.5956" gradientUnits="userSpaceOnUse">
<stop stop-color="#E1E5D1"/>
<stop offset="0.55" stop-color="#5E5E5E"/>
<stop offset="1" stop-color="#CFD5BA"/>
</linearGradient>
<linearGradient id="paint2_linear_817_53576" x1="86.7969" y1="51.8798" x2="91.3685" y2="51.8798" gradientUnits="userSpaceOnUse">
<stop stop-color="#E1E5D1"/>
<stop offset="0.55" stop-color="#9D9E97"/>
<stop offset="1" stop-color="#CFD5BA"/>
</linearGradient>
</defs>
</svg>
