<svg width="336" height="396" viewBox="0 0 336 396" fill="none" xmlns="http://www.w3.org/2000/svg">
<g filter="url(#filter0_ddd_489_1700)">
<rect x="8" y="7" width="320" height="380" rx="160" fill="white" fill-opacity="0.75"/>
<path d="M129.778 153.077C99.3189 118.143 70.8564 104.197 53.7032 100.399C47.1027 99.4224 45.9851 110.639 53.3016 112.74C48.5462 116.47 45.5428 123.557 52.4983 129.862C48.2493 135.619 45.211 135.744 48.197 144.094C51.2237 152.558 88.4403 192.106 129.772 153.077H129.778Z" fill="#9677D9"/>
<path d="M197.842 156.684C235.28 129.043 266.152 121.47 283.73 121.401C290.389 121.847 289.003 133.04 281.396 133.532C285.214 138.18 286.588 145.736 278.404 150.413C281.285 156.935 284.219 157.701 279.463 165.216C274.644 172.84 229.587 203.548 197.836 156.673L197.842 156.684Z" fill="#9677D9"/>
<path d="M170.691 230.576H170.109V248H170.691V230.576Z" fill="#5C4195"/>
<path d="M155.004 230.576H154.422V248H155.004V230.576Z" fill="#5C4195"/>
<path d="M224.816 234.066C229.769 181.787 240.095 113.301 176.488 104.386C112.881 95.4652 90.5763 138.829 92.2294 221.907C92.2294 221.907 160.382 238.12 224.816 234.066Z" fill="#5C4195"/>
<path d="M181.445 156.658C181.445 147.931 188.657 140.855 197.557 140.855C206.456 140.855 213.668 147.931 213.668 156.658C213.668 165.384 206.456 172.466 197.557 172.466C188.657 172.466 181.445 165.39 181.445 156.658Z" fill="#F9F1EE"/>
<path d="M117.836 149.765C117.836 141.039 125.048 133.963 133.941 133.963C142.835 133.963 150.053 141.039 150.053 149.765C150.053 158.492 142.841 165.573 133.941 165.573C125.042 165.573 117.836 158.497 117.836 149.765Z" fill="#F9F1EE"/>
<path d="M169.93 162.837L163.521 176.555L153.219 162.295L169.93 162.837Z" fill="#846C30"/>
<path d="M169.851 162.632L160.841 174.865L153.141 162.021L169.851 162.632Z" fill="white"/>
<path d="M211.025 234.624C160.555 235.681 110.97 225.967 96.4883 222.854C108.537 186.172 127.995 184.145 156.12 186.818C181.882 189.262 204.739 208.114 211.031 234.624H211.025Z" fill="white"/>
<path d="M206.149 160.13C205.771 156.275 202.139 152.494 197.884 151.523C195.393 150.958 190.661 150.906 186.866 156.932L186.371 156.629C189.281 152.003 193.525 149.941 198.012 150.964C202.494 151.986 206.324 155.984 206.726 160.073L206.143 160.13H206.149Z" fill="#5C4195"/>
<path d="M142.813 153.488C142.435 149.633 138.803 145.853 134.548 144.882C132.063 144.316 127.325 144.265 123.53 150.29L123.035 149.987C125.945 145.361 130.189 143.3 134.676 144.322C139.158 145.344 142.988 149.342 143.39 153.431L142.808 153.488H142.813Z" fill="#5C4195"/>
<path d="M169.371 89.3134C152.841 76.338 141.269 75.5271 146.229 64.1736C151.188 52.8201 166.065 68.2284 166.065 68.2284C166.065 68.2284 178.463 57.6859 186.728 64.1736C194.993 70.6613 179.289 82.8257 169.371 89.3134Z" fill="#E29E3B"/>
<path d="M147.066 324.283H149.986C149.928 325.24 149.664 326.09 149.195 326.832C148.733 327.574 148.085 328.154 147.252 328.57C146.425 328.987 145.429 329.195 144.264 329.195C143.352 329.195 142.535 329.039 141.812 328.727C141.09 328.408 140.471 327.952 139.957 327.359C139.449 326.767 139.062 326.051 138.795 325.211C138.528 324.371 138.395 323.43 138.395 322.389V321.402C138.395 320.361 138.531 319.42 138.805 318.58C139.085 317.734 139.482 317.014 139.996 316.422C140.517 315.829 141.139 315.374 141.861 315.055C142.584 314.736 143.391 314.576 144.283 314.576C145.468 314.576 146.467 314.791 147.281 315.221C148.102 315.65 148.736 316.243 149.186 316.998C149.641 317.753 149.915 318.613 150.006 319.576H147.076C147.044 319.003 146.93 318.518 146.734 318.121C146.539 317.717 146.243 317.415 145.846 317.213C145.455 317.005 144.934 316.9 144.283 316.9C143.795 316.9 143.368 316.992 143.004 317.174C142.639 317.356 142.333 317.633 142.086 318.004C141.839 318.375 141.653 318.844 141.529 319.41C141.412 319.97 141.354 320.628 141.354 321.383V322.389C141.354 323.124 141.409 323.772 141.52 324.332C141.63 324.885 141.799 325.354 142.027 325.738C142.262 326.116 142.561 326.402 142.926 326.598C143.297 326.786 143.743 326.881 144.264 326.881C144.876 326.881 145.38 326.783 145.777 326.588C146.174 326.393 146.477 326.103 146.686 325.719C146.9 325.335 147.027 324.856 147.066 324.283ZM162.143 320.572V322.857H154.721V320.572H162.143ZM155.59 314.781V329H152.66V314.781H155.59ZM164.232 314.781V329H161.312V314.781H164.232ZM170.646 314.781V329H167.727V314.781H170.646ZM183.281 326.715V329H176.123V326.715H183.281ZM177.07 314.781V329H174.141V314.781H177.07ZM190.076 329H186.98L187 326.715H190.076C190.844 326.715 191.492 326.542 192.02 326.197C192.547 325.846 192.944 325.335 193.211 324.664C193.484 323.993 193.621 323.183 193.621 322.232V321.539C193.621 320.81 193.543 320.169 193.387 319.615C193.237 319.062 193.012 318.596 192.713 318.219C192.413 317.841 192.046 317.558 191.609 317.369C191.173 317.174 190.672 317.076 190.105 317.076H186.922V314.781H190.105C191.056 314.781 191.925 314.944 192.713 315.27C193.507 315.589 194.194 316.048 194.773 316.646C195.353 317.245 195.799 317.962 196.111 318.795C196.43 319.622 196.59 320.543 196.59 321.559V322.232C196.59 323.242 196.43 324.163 196.111 324.996C195.799 325.829 195.353 326.546 194.773 327.145C194.201 327.737 193.514 328.196 192.713 328.521C191.919 328.84 191.04 329 190.076 329ZM188.641 314.781V329H185.711V314.781H188.641Z" fill="#263238"/>
<rect x="8.5" y="7.5" width="319" height="379" rx="159.5" stroke="#6750A4"/>
</g>
<defs>
<filter id="filter0_ddd_489_1700" x="0" y="0" width="336" height="396" filterUnits="userSpaceOnUse" color-interpolation-filters="sRGB">
<feFlood flood-opacity="0" result="BackgroundImageFix"/>
<feColorMatrix in="SourceAlpha" type="matrix" values="0 0 0 0 0 0 0 0 0 0 0 0 0 0 0 0 0 0 127 0" result="hardAlpha"/>
<feOffset dy="1"/>
<feGaussianBlur stdDeviation="4"/>
<feColorMatrix type="matrix" values="0 0 0 0 0 0 0 0 0 0 0 0 0 0 0 0 0 0 0.1 0"/>
<feBlend mode="normal" in2="BackgroundImageFix" result="effect1_dropShadow_489_1700"/>
<feColorMatrix in="SourceAlpha" type="matrix" values="0 0 0 0 0 0 0 0 0 0 0 0 0 0 0 0 0 0 127 0" result="hardAlpha"/>
<feOffset dy="2"/>
<feGaussianBlur stdDeviation="2"/>
<feColorMatrix type="matrix" values="0 0 0 0 0 0 0 0 0 0 0 0 0 0 0 0 0 0 0.12 0"/>
<feBlend mode="normal" in2="effect1_dropShadow_489_1700" result="effect2_dropShadow_489_1700"/>
<feColorMatrix in="SourceAlpha" type="matrix" values="0 0 0 0 0 0 0 0 0 0 0 0 0 0 0 0 0 0 127 0" result="hardAlpha"/>
<feOffset dy="1"/>
<feGaussianBlur stdDeviation="1"/>
<feColorMatrix type="matrix" values="0 0 0 0 0 0 0 0 0 0 0 0 0 0 0 0 0 0 0.16 0"/>
<feBlend mode="normal" in2="effect2_dropShadow_489_1700" result="effect3_dropShadow_489_1700"/>
<feBlend mode="normal" in="SourceGraphic" in2="effect3_dropShadow_489_1700" result="shape"/>
</filter>
</defs>
</svg>
