<svg width="135" height="137" viewBox="0 0 135 137" fill="none" xmlns="http://www.w3.org/2000/svg">
<g filter="url(#filter0_ddd_1164_34062)">
<path d="M67.4949 123.109C98.1438 123.109 122.99 98.0128 122.99 67.0547C122.99 36.0965 98.1438 11 67.4949 11C36.8459 11 12 36.0965 12 67.0547C12 98.0128 36.8459 123.109 67.4949 123.109Z" fill="#F7B239"/>
<path d="M56.2839 99.7988H58.237C58.1745 100.544 57.9662 101.208 57.612 101.791C57.2579 102.369 56.7605 102.825 56.1198 103.158C55.4792 103.492 54.7006 103.658 53.7839 103.658C53.0808 103.658 52.448 103.533 51.8855 103.283C51.323 103.028 50.8412 102.669 50.4402 102.205C50.0391 101.736 49.7318 101.171 49.5183 100.51C49.31 99.8483 49.2058 99.1087 49.2058 98.291V97.3457C49.2058 96.528 49.3126 95.7884 49.5261 95.127C49.7448 94.4655 50.0573 93.9004 50.4636 93.4316C50.8698 92.9577 51.3568 92.5957 51.9245 92.3457C52.4975 92.0957 53.1407 91.9707 53.8542 91.9707C54.7605 91.9707 55.5261 92.1374 56.1511 92.4707C56.7761 92.804 57.2605 93.265 57.6042 93.8535C57.9532 94.4421 58.1667 95.1165 58.2448 95.877H56.2917C56.2396 95.3874 56.1251 94.9681 55.948 94.6191C55.7761 94.2702 55.5209 94.0046 55.1823 93.8223C54.8438 93.6348 54.4011 93.541 53.8542 93.541C53.4063 93.541 53.0157 93.6243 52.6823 93.791C52.349 93.9577 52.0704 94.2025 51.8464 94.5254C51.6225 94.8483 51.4532 95.2467 51.3386 95.7207C51.2292 96.1895 51.1745 96.7259 51.1745 97.3301V98.291C51.1745 98.8639 51.224 99.3848 51.323 99.8535C51.4271 100.317 51.5834 100.715 51.7917 101.049C52.0053 101.382 52.2761 101.64 52.6042 101.822C52.9323 102.005 53.3256 102.096 53.7839 102.096C54.3412 102.096 54.7917 102.007 55.1355 101.83C55.4844 101.653 55.7475 101.395 55.9245 101.057C56.1068 100.713 56.2266 100.294 56.2839 99.7988ZM61.8402 91.502V103.502H59.9652V91.502H61.8402ZM61.512 98.9629L60.9027 98.9551C60.9079 98.3717 60.9886 97.8327 61.1448 97.3379C61.3063 96.8431 61.5303 96.4134 61.8167 96.0488C62.1084 95.679 62.4573 95.3952 62.8636 95.1973C63.2698 94.9941 63.7204 94.8926 64.2152 94.8926C64.6318 94.8926 65.0068 94.9499 65.3402 95.0645C65.6787 95.179 65.9704 95.3639 66.2152 95.6191C66.46 95.8691 66.6448 96.1973 66.7698 96.6035C66.9001 97.0046 66.9652 97.4941 66.9652 98.0723V103.502H65.0745V98.0566C65.0745 97.6504 65.0146 97.3275 64.8948 97.0879C64.7803 96.8483 64.611 96.6764 64.387 96.5723C64.1631 96.4629 63.8896 96.4082 63.5667 96.4082C63.2282 96.4082 62.9287 96.4759 62.6683 96.6113C62.4131 96.7467 62.1995 96.9316 62.0277 97.166C61.8558 97.4004 61.7256 97.6712 61.637 97.9785C61.5537 98.2858 61.512 98.6139 61.512 98.9629ZM71.037 95.0488V103.502H69.1464V95.0488H71.037ZM69.0214 92.8301C69.0214 92.5436 69.1152 92.3066 69.3027 92.1191C69.4954 91.9264 69.761 91.8301 70.0995 91.8301C70.4329 91.8301 70.6959 91.9264 70.8886 92.1191C71.0813 92.3066 71.1777 92.5436 71.1777 92.8301C71.1777 93.1113 71.0813 93.3457 70.8886 93.5332C70.6959 93.7207 70.4329 93.8145 70.0995 93.8145C69.761 93.8145 69.4954 93.7207 69.3027 93.5332C69.1152 93.3457 69.0214 93.1113 69.0214 92.8301ZM75.2652 91.502V103.502H73.3745V91.502H75.2652ZM82.6339 101.752V91.502H84.5245V103.502H82.8136L82.6339 101.752ZM77.1339 99.3691V99.2051C77.1339 98.5645 77.2094 97.9811 77.3605 97.4551C77.5115 96.9238 77.7303 96.4681 78.0167 96.0879C78.3032 95.7025 78.6521 95.4082 79.0636 95.2051C79.4751 94.9967 79.9386 94.8926 80.4542 94.8926C80.9646 94.8926 81.4126 94.9915 81.798 95.1895C82.1834 95.3874 82.5115 95.6712 82.7823 96.041C83.0532 96.4056 83.2693 96.8431 83.4308 97.3535C83.5922 97.8587 83.7068 98.4212 83.7745 99.041V99.5645C83.7068 100.169 83.5922 100.721 83.4308 101.221C83.2693 101.721 83.0532 102.153 82.7823 102.518C82.5115 102.882 82.1808 103.163 81.7902 103.361C81.4047 103.559 80.9542 103.658 80.4386 103.658C79.9282 103.658 79.4672 103.551 79.0558 103.338C78.6495 103.124 78.3032 102.825 78.0167 102.439C77.7303 102.054 77.5115 101.601 77.3605 101.08C77.2094 100.554 77.1339 99.9837 77.1339 99.3691ZM79.0167 99.2051V99.3691C79.0167 99.7546 79.0506 100.114 79.1183 100.447C79.1912 100.781 79.3032 101.075 79.4542 101.33C79.6053 101.58 79.8006 101.778 80.0402 101.924C80.285 102.064 80.5766 102.135 80.9152 102.135C81.3422 102.135 81.6938 102.041 81.9698 101.854C82.2459 101.666 82.462 101.413 82.6183 101.096C82.7797 100.773 82.8891 100.413 82.9464 100.018V98.6035C82.9152 98.2962 82.8501 98.0098 82.7511 97.7441C82.6573 97.4785 82.5297 97.2467 82.3683 97.0488C82.2068 96.8457 82.0063 96.6895 81.7667 96.5801C81.5323 96.4655 81.2537 96.4082 80.9308 96.4082C80.587 96.4082 80.2954 96.4811 80.0558 96.627C79.8162 96.7728 79.6183 96.9733 79.462 97.2285C79.311 97.4837 79.199 97.7806 79.1261 98.1191C79.0532 98.4577 79.0167 98.8197 79.0167 99.2051Z" fill="#263238"/>
<path d="M70.4395 67.6318C78.5103 54.9383 86.8878 49.1495 92.1414 47.1588C94.1856 46.5501 95.0404 50.144 92.8197 51.1497C94.4904 52.1516 95.7578 54.3202 93.8381 56.6762C95.44 58.3579 96.4063 58.2643 95.8358 61.109C95.2579 63.9912 85.2543 78.4826 70.4395 67.6337V67.6318Z" fill="#9677D9"/>
<path d="M58.5887 76.2871H58.4028V82.0009H58.5887V76.2871Z" fill="#7A6576"/>
<path d="M63.595 76.2871H63.4092V82.0009H63.595V76.2871Z" fill="#7A6576"/>
<path d="M38 69.9496C42.1423 53.2464 46.4147 30.9568 66.537 34.9758C86.6612 38.9966 88.7054 54.7896 79.2519 80.3191C79.2519 80.3191 56.9739 78.0718 38 69.9496V69.9496Z" fill="#5C4195"/>
<path d="M67.2154 50.6236C68.1557 47.9231 66.7452 44.966 64.0654 44.0165C61.3857 43.0689 58.4495 44.4885 57.5091 47.189C56.5669 49.8914 57.9774 52.8485 60.6591 53.798C63.3388 54.7456 66.275 53.326 67.2154 50.6236Z" fill="#F9F1EE"/>
<path d="M65.8439 48.222C65.6227 48.8568 65.1117 49.2501 64.701 49.1041C64.2884 48.958 64.1342 48.3287 64.3553 47.6939C64.5765 47.0609 65.0875 46.6676 65.4982 46.8137C65.9089 46.9597 66.0632 47.589 65.8439 48.222Z" fill="#7A6576"/>
<path d="M83.4016 55.2709C84.342 52.5703 82.9333 49.6133 80.2536 48.6638C77.572 47.7143 74.6376 49.1357 73.6954 51.8362C72.7551 54.5386 74.1637 57.4957 76.8453 58.4452C79.5251 59.3928 82.4594 57.9714 83.4016 55.2709V55.2709Z" fill="#F9F1EE"/>
<path d="M82.032 52.8697C81.8109 53.5046 81.2998 53.8979 80.8891 53.7537C80.4766 53.6076 80.3242 52.9784 80.5435 52.3435C80.7628 51.7105 81.2738 51.3172 81.6864 51.4614C82.0989 51.6075 82.2513 52.2367 82.032 52.8697Z" fill="#7A6576"/>
<path d="M66.7544 54.123L67.7988 58.9585L72.0043 55.1006L66.7544 54.123Z" fill="#846C30"/>
<path d="M66.7954 54.0625L68.7541 58.6021L72.049 55.0195L66.7954 54.0625Z" fill="#E2C464"/>
<path d="M42.0957 71.5961C57.1856 77.3005 73.1694 79.5816 77.8692 80.1621C78.1944 67.5285 72.5505 64.826 63.7902 62.6555C55.7658 60.6648 46.8494 64.062 42.0957 71.5961V71.5961Z" fill="white"/>
<path d="M43.6383 52.0409C58.2822 55.1235 66.6318 60.9534 70.3486 65.1934C71.642 66.9013 68.611 68.9857 66.8883 67.2515C66.5556 69.1805 64.9946 71.145 62.1272 70.1768C61.1367 72.2836 61.5678 73.1601 58.7282 73.6339C55.8478 74.1152 38.8512 69.8528 43.6365 52.0391L43.6383 52.0409Z" fill="#9677D9"/>
<path d="M88.8597 37.1465C84.0911 37.1465 83.3571 42.7985 84.8865 44.7462C86.4159 46.6957 86.4308 48.1302 86.4308 48.9767C86.4308 49.8232 86.7003 50.0199 87.0311 50.2015H91.021C91.3499 50.0199 91.6212 49.8232 91.6212 48.9767C91.6212 48.1302 91.6361 46.6957 93.1655 44.7462C94.6949 42.7966 93.9609 37.1465 89.1923 37.1465H88.8597V37.1465Z" fill="#EAE8DF"/>
<path d="M87.8393 54.034C88.0214 54.3861 88.4191 54.7644 89.0825 54.7644C89.7459 54.7644 90.2105 54.5434 90.3258 54.0734C90.4428 53.6033 87.8876 53.4479 87.8374 54.034H87.8393Z" fill="url(#paint0_radial_1164_34062)"/>
<path d="M87.1406 53.4196C87.425 53.7717 88.0475 54.15 89.0826 54.15C90.1177 54.15 90.8425 53.929 91.0246 53.4589C91.2067 52.9888 87.2187 52.8315 87.1406 53.4196V53.4196Z" fill="url(#paint1_linear_1164_34062)"/>
<path d="M91.2831 50.1578C91.4262 50.2758 91.2961 50.4968 91.3482 50.5885C91.4002 50.6803 91.3221 50.759 91.2441 50.8751C91.166 50.9931 91.1921 51.2796 91.2961 51.3976C91.4002 51.5156 91.3965 51.5511 91.2757 51.6317C91.1549 51.7122 91.2069 52.0512 91.2961 52.1673C91.3872 52.2853 91.3872 52.1673 91.2571 52.3508C91.127 52.5343 91.1345 52.8321 91.2701 52.9126C91.4058 52.9932 91.2441 53.3303 90.9988 53.4614C90.7925 53.6056 89.6143 53.6187 89.2519 53.6187H88.9119C88.5495 53.6187 87.3713 53.6056 87.165 53.4614C86.9494 53.3958 86.7803 53.2797 86.8844 53.2273C86.9885 53.1748 87.0535 52.7572 86.9624 52.6917C86.8714 52.6261 86.8639 52.5362 86.9457 52.4576C87.0275 52.3789 87.0888 52.0774 86.968 51.9744C86.8472 51.8695 86.8472 51.8189 86.9104 51.7403C86.9754 51.6616 87.0795 51.1916 86.9624 51.0623C86.8454 50.9313 86.7933 50.9968 86.8844 50.8657C86.9754 50.7346 87.0665 50.6709 86.9494 50.5792C86.8323 50.4874 86.7301 50.2402 86.8714 50.1484L91.2868 50.1615L91.2831 50.1578Z" fill="url(#paint2_linear_1164_34062)"/>
<path d="M91.3816 50.6161C91.376 50.5374 91.3073 50.4775 91.2292 50.485L86.9178 50.8259C86.8398 50.8315 86.7803 50.9008 86.7877 50.9794C86.7933 51.0581 86.8621 51.118 86.9401 51.1105L91.2515 50.7697C91.3296 50.7641 91.389 50.6948 91.3816 50.6161Z" fill="#CFD5BA"/>
<path d="M91.3816 51.4774C91.376 51.3988 91.3073 51.3388 91.2292 51.3463L86.9178 51.6872C86.8398 51.6928 86.7803 51.7621 86.7877 51.8407C86.7933 51.9194 86.8621 51.9793 86.9401 51.9718L91.2515 51.631C91.3296 51.6254 91.389 51.5561 91.3816 51.4774Z" fill="#CFD5BA"/>
<path d="M91.3816 52.2466C91.376 52.168 91.3073 52.108 91.2292 52.1136L86.9178 52.4545C86.8398 52.4601 86.7803 52.5294 86.7877 52.6081C86.7933 52.6867 86.8621 52.7466 86.9401 52.7392L91.2515 52.3983C91.3296 52.3927 91.389 52.3234 91.3816 52.2447V52.2466Z" fill="#CFD5BA"/>
<path d="M91.3816 52.9892C91.376 52.9105 91.3073 52.8506 91.2292 52.8581L86.9178 53.1989C86.8398 53.2045 86.7803 53.2738 86.7877 53.3525C86.7933 53.4311 86.8621 53.4911 86.9401 53.4836L91.2515 53.1427C91.3296 53.1371 91.389 53.0678 91.3816 52.9892Z" fill="#CFD5BA"/>
</g>
<defs>
<filter id="filter0_ddd_1164_34062" x="0" y="0" width="134.99" height="136.109" filterUnits="userSpaceOnUse" color-interpolation-filters="sRGB">
<feFlood flood-opacity="0" result="BackgroundImageFix"/>
<feColorMatrix in="SourceAlpha" type="matrix" values="0 0 0 0 0 0 0 0 0 0 0 0 0 0 0 0 0 0 127 0" result="hardAlpha"/>
<feOffset dy="1"/>
<feGaussianBlur stdDeviation="6"/>
<feColorMatrix type="matrix" values="0 0 0 0 0 0 0 0 0 0 0 0 0 0 0 0 0 0 0.04 0"/>
<feBlend mode="normal" in2="BackgroundImageFix" result="effect1_dropShadow_1164_34062"/>
<feColorMatrix in="SourceAlpha" type="matrix" values="0 0 0 0 0 0 0 0 0 0 0 0 0 0 0 0 0 0 127 0" result="hardAlpha"/>
<feOffset dy="4"/>
<feGaussianBlur stdDeviation="4"/>
<feColorMatrix type="matrix" values="0 0 0 0 0 0 0 0 0 0 0 0 0 0 0 0 0 0 0.08 0"/>
<feBlend mode="normal" in2="effect1_dropShadow_1164_34062" result="effect2_dropShadow_1164_34062"/>
<feColorMatrix in="SourceAlpha" type="matrix" values="0 0 0 0 0 0 0 0 0 0 0 0 0 0 0 0 0 0 127 0" result="hardAlpha"/>
<feOffset dy="3"/>
<feGaussianBlur stdDeviation="3"/>
<feColorMatrix type="matrix" values="0 0 0 0 0 0 0 0 0 0 0 0 0 0 0 0 0 0 0.1 0"/>
<feBlend mode="normal" in2="effect2_dropShadow_1164_34062" result="effect3_dropShadow_1164_34062"/>
<feBlend mode="normal" in="SourceGraphic" in2="effect3_dropShadow_1164_34062" result="shape"/>
</filter>
<radialGradient id="paint0_radial_1164_34062" cx="0" cy="0" r="1" gradientUnits="userSpaceOnUse" gradientTransform="translate(88.9979 53.9554) rotate(90) scale(0.756598 1.32137)">
<stop stop-color="#0F0F0F"/>
<stop offset="1" stop-color="#757575"/>
</radialGradient>
<linearGradient id="paint1_linear_1164_34062" x1="87.1406" y1="53.5956" x2="91.0302" y2="53.5956" gradientUnits="userSpaceOnUse">
<stop stop-color="#E1E5D1"/>
<stop offset="0.55" stop-color="#5E5E5E"/>
<stop offset="1" stop-color="#CFD5BA"/>
</linearGradient>
<linearGradient id="paint2_linear_1164_34062" x1="86.7989" y1="51.8789" x2="91.3705" y2="51.8789" gradientUnits="userSpaceOnUse">
<stop stop-color="#E1E5D1"/>
<stop offset="0.55" stop-color="#9D9E97"/>
<stop offset="1" stop-color="#CFD5BA"/>
</linearGradient>
</defs>
</svg>
