<svg width="97" height="96" viewBox="0 0 97 96" fill="none" xmlns="http://www.w3.org/2000/svg">
<path d="M48.875 96C75.3847 96 96.875 74.5097 96.875 48C96.875 21.4903 75.3847 0 48.875 0C22.3653 0 0.875 21.4903 0.875 48C0.875 74.5097 22.3653 96 48.875 96Z" fill="#494CB5"/>
<path d="M69.7098 12.4004H28.0373C26.1199 12.4004 24.5859 13.9343 24.5859 15.8518V80.0861C24.5859 82.0036 26.1199 83.5375 28.0373 83.5375H69.6459C71.5633 83.5375 73.0973 82.0036 73.0973 80.0861V15.9157C73.1612 13.9983 71.6272 12.4004 69.7098 12.4004Z" fill="white"/>
<path d="M32.1271 24.5449C31.4879 24.5449 30.9127 24.9284 30.5931 25.4397C30.2735 24.9284 29.6983 24.5449 29.0591 24.5449C28.1004 24.5449 27.2695 25.3758 27.2695 26.3345C27.2695 27.2933 28.9313 28.7633 30.5931 30.489C32.3188 28.7633 33.9167 27.3572 33.9167 26.3345C33.9167 25.3758 33.0858 24.5449 32.1271 24.5449Z" fill="#F0582F"/>
<path d="M29.2513 21.2209L28.74 22.4352H27.7812L30.1461 17.0664H31.1048L33.4697 22.4352H32.5109L31.9357 21.2209H29.2513ZM31.5522 20.39L30.5935 18.153L29.6348 20.39H31.5522Z" fill="#F0582F"/>
<path d="M65.6177 71.4577C66.2569 71.4577 66.8321 71.0743 67.1517 70.5629C67.4713 71.0743 68.0465 71.4577 68.6856 71.4577C69.6444 71.4577 70.4753 70.6269 70.4753 69.6681C70.4753 68.7094 68.8774 67.2394 67.1517 65.5137C65.426 67.2394 63.8281 68.6455 63.8281 69.6681C63.8281 70.6269 64.659 71.4577 65.6177 71.4577Z" fill="#F0582F"/>
<path d="M68.4957 74.7808L69.007 73.5664H69.9658L67.6009 78.9352H66.6422L64.2773 73.5664H65.2361L65.7474 74.7808H68.4957ZM66.1948 75.6117L67.1535 77.8487L68.1122 75.6117H66.1948Z" fill="#F0582F"/>
<path d="M53.4107 39.373C51.4932 39.373 49.7675 40.4596 48.8727 41.9936C47.9779 40.3957 46.3161 39.373 44.3348 39.373C41.4586 39.373 39.0938 41.7379 39.0938 44.6141C39.0938 47.4902 43.8234 51.7086 48.8088 56.694C53.8581 51.6447 58.5238 47.4902 58.5238 44.6141C58.5878 41.674 56.2868 39.373 53.4107 39.373Z" fill="#F0582F"/>
</svg>
