<svg width="313" height="254" viewBox="0 0 313 254" fill="none" xmlns="http://www.w3.org/2000/svg">
<path d="M174.559 176.911C217.989 109.131 263.069 78.2208 291.339 67.5908C302.339 64.3408 306.939 83.5308 294.989 88.9008C303.979 94.2508 310.799 105.831 300.469 118.411C309.089 127.391 314.289 126.891 311.219 142.081C308.109 157.471 254.279 234.851 174.559 176.921V176.911Z" fill="#9677D9"/>
<path d="M110.789 223.131H109.789V253.641H110.789V223.131Z" fill="#7A6576"/>
<path d="M137.73 223.131H136.73V253.641H137.73V223.131Z" fill="#7A6576"/>
<path d="M0 189.29C22.29 100.1 45.28 -18.9196 153.56 2.54041C261.85 24.0104 272.85 108.34 221.98 244.66C221.98 244.66 102.1 232.66 0 189.29Z" fill="#5C4195"/>
<path d="M157.209 86.0894C162.269 71.6694 154.679 55.8795 140.259 50.8095C125.839 45.7495 110.039 53.3295 104.979 67.7495C99.9093 82.1795 107.499 97.9695 121.929 103.039C136.349 108.099 152.149 100.519 157.209 86.0894Z" fill="#F9F1EE"/>
<path d="M149.83 73.2705C148.64 76.6605 145.89 78.7605 143.68 77.9805C141.46 77.2005 140.63 73.8406 141.82 70.4506C143.01 67.0706 145.76 64.9705 147.97 65.7505C150.18 66.5305 151.01 69.8905 149.83 73.2705Z" fill="#7A6576"/>
<path d="M244.311 110.91C249.371 96.4898 241.791 80.6998 227.371 75.6298C212.941 70.5598 197.151 78.1498 192.081 92.5698C187.021 107 194.601 122.79 209.031 127.86C223.451 132.92 239.241 125.33 244.311 110.91Z" fill="#F9F1EE"/>
<path d="M236.939 98.0911C235.749 101.481 232.999 103.581 230.789 102.811C228.569 102.031 227.749 98.6711 228.929 95.2811C230.109 91.9011 232.859 89.8011 235.079 90.5711C237.299 91.3511 238.119 94.7111 236.939 98.0911Z" fill="#7A6576"/>
<path d="M154.73 104.781L160.35 130.601L182.98 110.001L154.73 104.781Z" fill="#846C30"/>
<path d="M154.949 104.461L165.489 128.701L183.219 109.571L154.949 104.461Z" fill="#E2C464"/>
<path d="M22.0391 198.081C103.239 228.541 189.249 240.721 214.539 243.821C216.289 176.361 185.919 161.931 138.779 150.341C95.5991 139.711 47.6191 157.851 22.0391 198.081Z" fill="white"/>
<path d="M30.3407 93.6604C109.141 110.12 154.071 141.25 174.071 163.89C181.031 173.01 164.721 184.14 155.451 174.88C153.661 185.18 145.261 195.67 129.831 190.5C124.501 201.75 126.821 206.43 111.541 208.96C96.0407 211.53 4.58067 188.77 30.3307 93.6504L30.3407 93.6604Z" fill="#9677D9"/>
<path d="M273.679 14.1309C248.019 14.1309 244.069 44.3108 252.299 54.7108C260.529 65.1208 260.609 72.7809 260.609 77.3009C260.609 81.8209 262.059 82.8708 263.839 83.8409H285.309C287.079 82.8708 288.539 81.8209 288.539 77.3009C288.539 72.7809 288.619 65.1208 296.849 54.7108C305.079 44.3008 301.129 14.1309 275.469 14.1309H273.679Z" fill="#EAE8DF"/>
<path d="M268.19 104.301C269.17 106.181 271.31 108.201 274.88 108.201C278.45 108.201 280.95 107.021 281.57 104.511C282.2 102.001 268.45 101.171 268.18 104.301H268.19Z" fill="url(#paint0_radial_736_26094)"/>
<path d="M264.43 101.02C265.96 102.9 269.31 104.92 274.88 104.92C280.45 104.92 284.35 103.74 285.33 101.23C286.31 98.7201 264.85 97.8801 264.43 101.02Z" fill="url(#paint1_linear_736_26094)"/>
<path d="M286.719 83.6105C287.489 84.2405 286.789 85.4205 287.069 85.9105C287.349 86.4005 286.929 86.8206 286.509 87.4406C286.089 88.0706 286.229 89.6005 286.789 90.2305C287.349 90.8605 287.329 91.0505 286.679 91.4805C286.029 91.9105 286.309 93.7205 286.789 94.3405C287.279 94.9705 287.279 94.3406 286.579 95.3206C285.879 96.3006 285.919 97.8906 286.649 98.3206C287.379 98.7506 286.509 100.551 285.189 101.251C284.079 102.021 277.739 102.091 275.789 102.091H273.959C272.009 102.091 265.669 102.021 264.559 101.251C263.399 100.901 262.489 100.281 263.049 100.001C263.609 99.7205 263.959 97.4906 263.469 97.1406C262.979 96.7906 262.939 96.3106 263.379 95.8906C263.819 95.4706 264.149 93.8605 263.499 93.3105C262.849 92.7505 262.849 92.4805 263.189 92.0605C263.539 91.6405 264.099 89.1306 263.469 88.4406C262.839 87.7406 262.559 88.0906 263.049 87.3906C263.539 86.6906 264.029 86.3505 263.399 85.8605C262.769 85.3705 262.219 84.0505 262.979 83.5605L286.739 83.6306L286.719 83.6105Z" fill="url(#paint2_linear_736_26094)"/>
<path d="M287.247 86.051C287.217 85.631 286.847 85.311 286.427 85.351L263.227 87.171C262.807 87.201 262.487 87.571 262.527 87.9911C262.557 88.4111 262.927 88.7311 263.347 88.6911L286.547 86.8711C286.967 86.8411 287.287 86.471 287.247 86.051Z" fill="#CFD5BA"/>
<path d="M287.247 90.6506C287.217 90.2306 286.847 89.9106 286.427 89.9506L263.227 91.7706C262.807 91.8006 262.487 92.1706 262.527 92.5906C262.557 93.0106 262.927 93.3306 263.347 93.2906L286.547 91.4706C286.967 91.4406 287.287 91.0706 287.247 90.6506Z" fill="#CFD5BA"/>
<path d="M287.247 94.7608C287.217 94.3408 286.847 94.0208 286.427 94.0508L263.227 95.8708C262.807 95.9008 262.487 96.2708 262.527 96.6908C262.557 97.1108 262.927 97.4308 263.347 97.3908L286.547 95.5708C286.967 95.5408 287.287 95.1708 287.247 94.7508V94.7608Z" fill="#CFD5BA"/>
<path d="M287.247 98.7307C287.217 98.3107 286.847 97.9907 286.427 98.0307L263.227 99.8507C262.807 99.8807 262.487 100.251 262.527 100.671C262.557 101.091 262.927 101.411 263.347 101.371L286.547 99.5507C286.967 99.5207 287.287 99.1507 287.247 98.7307Z" fill="#CFD5BA"/>
<defs>
<radialGradient id="paint0_radial_736_26094" cx="0" cy="0" r="1" gradientUnits="userSpaceOnUse" gradientTransform="translate(274.424 103.881) rotate(90) scale(4.04001 7.11041)">
<stop stop-color="#0F0F0F"/>
<stop offset="1" stop-color="#757575"/>
</radialGradient>
<linearGradient id="paint1_linear_736_26094" x1="264.43" y1="101.96" x2="285.36" y2="101.96" gradientUnits="userSpaceOnUse">
<stop stop-color="#E1E5D1"/>
<stop offset="0.55" stop-color="#5E5E5E"/>
<stop offset="1" stop-color="#CFD5BA"/>
</linearGradient>
<linearGradient id="paint2_linear_736_26094" x1="262.589" y1="92.8005" x2="287.189" y2="92.8005" gradientUnits="userSpaceOnUse">
<stop stop-color="#E1E5D1"/>
<stop offset="0.55" stop-color="#9D9E97"/>
<stop offset="1" stop-color="#CFD5BA"/>
</linearGradient>
</defs>
</svg>
