<svg width="190" height="83" viewBox="0 0 190 83" fill="none" xmlns="http://www.w3.org/2000/svg">
<g filter="url(#filter0_ddd_875_12719)">
<path d="M180.82 0C180.82 0 193.042 56.515 138.803 69.9193C84.5635 83.3237 0 59.4125 0 59.4125V0H180.82Z" fill="white"/>
<g clip-path="url(#clip0_875_12719)">
<path d="M107.394 20.4449C106.274 19.6097 104.985 19.1918 103.528 19.1918C102.212 19.1918 101.163 19.6983 100.381 20.7118C99.6521 21.6362 99.2878 22.7743 99.2878 24.1249C99.2878 25.3874 99.8384 26.3827 100.941 27.1115C101.901 27.7515 103.039 28.0716 104.354 28.0716C105.706 28.0716 106.834 27.7249 107.741 27.0312C108.754 26.2672 109.261 25.2276 109.261 23.9117C109.261 22.5074 108.638 21.3521 107.394 20.4449ZM100.674 30.4714C100.212 33.8141 99.9814 37.2889 99.9814 40.8978V44.4709L100.088 47.1371C102.745 47.1371 105.359 46.7281 107.927 45.9111C108.105 43.7418 108.194 41.1279 108.194 38.0712C108.194 37.3776 108.185 36.8448 108.167 36.4715L108.061 34.2309C107.989 32.7377 107.954 31.4489 107.954 30.3648L107.98 30.1779C103.501 30.1779 101.066 30.2759 100.674 30.4714ZM109.501 28.9248C109.287 29.1206 109.065 29.2712 108.834 29.3781H108.887L108.861 29.5379L110.141 30.7915L110.008 31.8045C110.008 32.8006 110.042 34.0451 110.114 35.5374L110.22 37.778C110.238 38.151 110.247 38.6935 110.247 39.4038C110.247 42.4084 110.141 45.1992 109.927 47.7773C106.958 48.7194 103.901 49.1907 100.755 49.1907L99.5008 47.9371H99.3413L99.1811 44.4977V40.8978C99.1811 37.2352 99.43 33.5909 99.9278 29.9646C100.283 29.7874 101.217 29.6445 102.728 29.5379C102.194 29.3429 101.651 28.9694 101.101 28.418L100.487 27.8046C99.1551 26.8808 98.4882 25.6543 98.4882 24.1249C98.4882 22.5609 98.9323 21.2366 99.8206 20.1519C100.763 18.9786 101.999 18.3918 103.528 18.3918C105.181 18.3918 106.63 18.8631 107.874 19.8052C108.407 20.2142 108.852 20.6584 109.208 21.1386L109.9 21.8317C110.843 22.7743 111.314 23.9117 111.314 25.2451C111.314 26.7742 110.709 28.0004 109.501 28.9248ZM90.6484 19.2716C89.6172 19.2716 87.6704 21.6362 84.8084 26.3649C84.8084 25.7961 84.799 25.352 84.7819 25.0315L84.675 23.1648C84.6041 21.9211 84.5686 20.8542 84.5686 19.9653V19.2187C81.5699 19.6983 79.3213 19.9919 77.822 20.0984C77.822 20.9874 77.822 21.8852 77.822 22.7918C77.822 26.276 77.5913 30.0538 77.1294 34.124L75.8492 45.4041C76.809 45.6525 77.9912 45.7774 79.3952 45.7774C81.7063 45.7774 82.9062 45.786 82.9954 45.8043C83.2621 45.1992 83.3953 44.4083 83.3953 43.4308C83.3953 43.0752 83.3859 42.7728 83.3684 42.5239L83.1818 39.9108C83.1463 39.4135 83.1289 39.111 83.1289 39.0045C83.1289 38.0623 83.2438 37.2441 83.4753 36.5512C84.6484 39.3066 86.0526 42.2217 87.6884 45.2975C88.7723 45.0126 90.0788 44.7462 91.6083 44.4977L95.5278 43.8572C95.457 43.0212 94.4608 41.1373 92.5413 38.2042C91.066 35.947 89.777 34.0174 88.6748 32.4179C89.7769 29.3958 91.8655 25.5029 94.9414 20.7384L90.6484 19.2716ZM90.8082 33.6709C92.1412 35.6269 93.3684 37.449 94.4876 39.1374C96.4614 42.1417 97.5099 44.3643 97.635 45.8043L93.048 46.5508C91.4305 46.8172 89.9636 47.1282 88.6482 47.4841L87.3683 46.2036C87.3506 46.2211 87.3325 46.2305 87.315 46.2305C87.2973 46.2305 87.2794 46.2393 87.2619 46.2576L86.2484 44.3374C85.8754 43.6263 85.5641 43.0126 85.3151 42.4975L85.4218 43.8041C85.4398 44.017 85.4484 44.3374 85.4484 44.7644C85.4484 45.8843 85.226 46.9416 84.7818 47.9371C84.4263 47.8659 83.0749 47.8305 80.7288 47.8305C79.2354 47.8305 77.7865 47.6439 76.382 47.2706L75.1557 46.0172H75.0488C75.0137 45.999 74.9871 45.9904 74.9685 45.9904L76.3288 34.0451C76.7907 29.9915 77.0224 26.2406 77.0224 22.7918V21.4316C77.0224 21.0048 76.9596 20.3117 76.8358 19.3519L77.6893 19.2985C79.2528 19.1918 80.7462 19.0318 82.1688 18.8185L85.3686 18.2852V18.4453L86.6219 19.6983V22.1516C88.3993 19.6983 89.8036 18.4718 90.8348 18.4718L96.1947 20.2851C96.1761 20.3211 96.15 20.3563 96.1149 20.392L97.3951 21.6719C94.1054 26.7917 91.9102 30.7915 90.8082 33.6709ZM70.4361 20.4449C69.3163 19.6097 68.0272 19.1918 66.5695 19.1918C65.2539 19.1918 64.2055 19.6983 63.4229 20.7118C62.694 21.6362 62.3298 22.7743 62.3298 24.1249C62.3298 25.3874 62.8804 26.3827 63.983 27.1115C64.9431 27.7515 66.0805 28.0716 67.3961 28.0716C68.7472 28.0716 69.8762 27.7249 70.7828 27.0312C71.7961 26.2672 72.3029 25.2276 72.3029 23.9117C72.3029 22.5074 71.6801 21.3521 70.4361 20.4449ZM63.7161 30.4714C63.2539 33.8141 63.0232 37.2889 63.0232 40.8978V44.4709L63.1299 47.1371C65.7875 47.1371 68.4008 46.7281 70.9692 45.9111C71.1467 43.7418 71.2362 41.1279 71.2362 38.0712C71.2362 37.3776 71.227 36.8448 71.2096 36.4715L71.103 34.2309C71.0318 32.7377 70.9961 31.4489 70.9961 30.3648L71.023 30.1779C66.5429 30.1779 64.1074 30.2759 63.7161 30.4714ZM72.5427 28.9248C72.3295 29.1206 72.1068 29.2712 71.8764 29.3781H71.9293L71.9028 29.5379L73.183 30.7915L73.0495 31.8045C73.0495 32.8006 73.0849 34.0451 73.1564 35.5374L73.2627 37.778C73.2802 38.151 73.2895 38.6935 73.2895 39.4038C73.2895 42.4084 73.183 45.1992 72.9692 47.7773C70.0006 48.7194 66.9431 49.1907 63.7964 49.1907L62.5431 47.9371H62.3833L62.2233 44.4977V40.8978C62.2233 37.2352 62.4722 33.5909 62.9698 29.9646C63.3257 29.7874 64.2583 29.6445 65.7697 29.5379C65.2364 29.3429 64.6936 28.9694 64.1428 28.418L63.5295 27.8046C62.1966 26.8808 61.5298 25.6543 61.5298 24.1249C61.5298 22.5609 61.9742 21.2366 62.8629 20.1519C63.8053 18.9786 65.0409 18.3918 66.5695 18.3918C68.223 18.3918 69.6713 18.8631 70.9163 19.8052C71.4497 20.2142 71.8939 20.6584 72.2492 21.1386L72.9428 21.8317C73.885 22.7743 74.356 23.9117 74.356 25.2451C74.356 26.7742 73.7515 28.0004 72.5427 28.9248ZM58.41 19.1649C55.3702 19.4496 52.7035 19.628 50.4103 19.6983C50.2148 21.7249 49.8861 23.761 49.4239 25.805L48.0639 31.8314C47.6729 30.6758 47.388 29.7245 47.2107 28.978L46.5173 26.0714C45.9131 23.5649 45.3529 21.6633 44.8375 20.3654C44.055 20.1879 42.7393 20.0273 40.8911 19.885C39.1844 19.7612 38.2864 19.7166 38.1978 19.7518L37.2114 25.9116C36.7846 28.5249 36.2776 30.534 35.6914 31.9379C35.2647 30.6758 34.6513 28.5604 33.8512 25.5915C33.1221 22.8896 32.5002 20.7831 31.9845 19.2716C30.4553 19.5211 28.2159 19.9744 25.265 20.6321C26.9 28.1339 28.2604 34.507 29.3449 39.751C29.6118 41.0307 29.8602 41.9379 30.0914 42.4709C30.4828 43.3596 31.0067 43.8218 31.6649 43.8572L35.451 44.017C37.8331 44.1236 39.1222 44.168 39.3177 44.1505C39.7978 42.9414 40.2065 41.3508 40.5444 39.3777C40.9529 36.9071 41.273 35.289 41.5045 34.5245C42.0016 35.9998 42.5086 37.8308 43.0245 40.0177C43.8414 43.5551 44.2682 45.3947 44.3036 45.537L55.53 44.7373L59.29 20.045L58.41 19.1649ZM60.1167 19.885L61.3966 21.1386L57.5036 46.7375L45.1042 47.6439L43.824 46.3642L43.7174 46.3902C43.575 45.8746 43.4513 45.3773 43.3444 44.8971L42.4912 41.3242C42.1528 43.155 41.6994 44.7819 41.131 46.2036H40.3578C39.895 46.2036 38.6949 46.1596 36.758 46.0701C34.4286 45.9632 33.1755 45.9103 32.998 45.9103C32.4289 45.9103 31.9402 45.7054 31.5315 45.2959L30.6248 44.3876C30.1089 44.0667 29.6824 43.5323 29.3449 42.7844C28.989 41.6618 28.7312 40.7092 28.5714 39.9256L24.332 20.0219L25.0249 19.8082L27.2386 19.3272C29.3715 18.8642 31.1222 18.5346 32.4916 18.3389C32.527 18.4463 32.5536 18.517 32.5713 18.5532L33.7715 19.7601C34.5355 21.8342 35.2733 24.3016 35.9846 27.1623L36.0915 27.5912L36.251 26.7114C36.3402 26.2494 36.3931 25.9473 36.4108 25.805L37.4244 19.4053C37.7447 19.0855 38.0912 18.9252 38.4647 18.9252C38.7843 18.9252 39.6112 18.9786 40.9443 19.0855C42.8999 19.2452 44.3928 19.4408 45.4241 19.6717L45.5044 19.9118L46.704 21.0851C47.3442 22.7567 47.9041 24.6231 48.3838 26.6848C48.4192 26.5959 48.4372 26.5341 48.4372 26.4981C48.5078 26.1249 48.5793 25.8141 48.6508 25.5649C49.0775 23.3249 49.4148 21.1117 49.6637 18.9252C52.0104 18.872 55.0238 18.6765 58.7033 18.3389L60.1433 19.7786C60.1433 19.7964 60.1341 19.8141 60.1167 19.832V19.885Z" fill="#F58332"/>
<path d="M153.419 35.068C153.419 35.8535 153.448 37.0317 153.505 38.6027C153.564 40.1737 153.593 41.3519 153.593 42.1377C153.593 42.2806 153.494 42.3526 153.296 42.3526C153.173 42.3526 152.985 42.3423 152.732 42.3222C152.48 42.3016 152.292 42.2913 152.169 42.2913C152.039 42.2913 151.848 42.3016 151.595 42.3222C151.342 42.3423 151.154 42.3526 151.032 42.3526C150.861 42.3526 150.775 42.2739 150.775 42.1168C150.775 41.338 150.811 40.1649 150.883 38.5974C150.954 37.0298 150.99 35.8535 150.99 35.068C150.99 34.3099 150.954 33.1712 150.883 31.6512C150.811 30.1314 150.775 28.9925 150.775 28.2344C150.775 28.0636 150.854 27.9785 151.01 27.9785C151.141 27.9785 151.339 27.9884 151.606 28.0091C151.871 28.0295 152.073 28.0397 152.209 28.0397C152.332 28.0397 152.517 28.0295 152.763 28.0091C153.009 27.9884 153.193 27.9785 153.316 27.9785C153.494 27.9785 153.582 28.0467 153.582 28.1828C153.582 28.9482 153.555 30.0957 153.501 31.6256C153.446 33.1556 153.419 34.3032 153.419 35.068ZM148.521 31.7589C148.467 33.3434 148.439 34.5323 148.439 35.3236C148.439 36.0689 148.446 37.1834 148.46 38.6693C148.474 40.155 148.48 41.2703 148.48 42.0142C148.48 42.2395 148.395 42.3526 148.225 42.3526C148.122 42.3526 147.968 42.3423 147.763 42.3222C147.558 42.3016 147.404 42.2913 147.303 42.2913C147.193 42.2913 147.025 42.3016 146.8 42.3222C146.575 42.3423 146.408 42.3526 146.298 42.3526C146.175 42.3526 146.028 42.2395 145.858 42.0142C144.382 40.0269 142.146 37.0625 139.147 33.1215C138.682 32.5208 138.413 32.1856 138.338 32.1174C138.269 32.1174 138.235 32.2576 138.235 32.5374C138.235 33.5896 138.252 35.1692 138.286 37.2761C138.32 39.3828 138.338 40.9628 138.338 42.0142C138.338 42.2395 138.269 42.3526 138.133 42.3526C138.017 42.3526 137.839 42.3423 137.599 42.3222C137.361 42.3016 137.183 42.2913 137.067 42.2913C136.943 42.2913 136.761 42.3016 136.519 42.3222C136.277 42.3423 136.094 42.3526 135.971 42.3526C135.799 42.3526 135.714 42.2846 135.714 42.1476C135.714 41.3965 135.751 40.2646 135.822 38.7512C135.894 37.2385 135.93 36.1025 135.93 35.3443C135.93 34.518 135.899 33.0291 135.838 30.8777C135.823 30.3175 135.79 29.4775 135.736 28.3573L135.725 28.2239C135.718 28.1219 135.799 28.0671 135.971 28.0603C136.415 28.0536 136.763 28.0397 137.016 28.0192C137.111 28.0126 137.292 27.9851 137.559 27.9373C137.784 27.8965 137.962 27.8755 138.092 27.8755C138.153 27.8755 138.259 27.9747 138.409 28.1729C139.979 30.3312 142.384 33.5413 145.622 37.8032C145.765 37.981 145.899 38.1346 146.021 38.2652C146.069 37.9778 146.093 37.3225 146.093 36.2972C146.093 35.4096 146.061 34.0775 145.996 32.3016C145.931 30.5259 145.899 29.1971 145.899 28.3166C145.899 28.0907 145.966 27.9785 146.104 27.9785C146.226 27.9785 146.412 27.9884 146.662 28.0091C146.911 28.0295 147.097 28.0397 147.221 28.0397C147.35 28.0397 147.544 28.0295 147.804 28.0091C148.064 27.9884 148.258 27.9785 148.388 27.9785C148.532 27.9785 148.603 28.0536 148.603 28.2035C148.603 28.9893 148.576 30.1741 148.521 31.7589ZM133.389 35.068C133.389 35.8535 133.417 37.0317 133.476 38.6027C133.533 40.1737 133.563 41.3519 133.563 42.1377C133.563 42.2806 133.464 42.3526 133.266 42.3526C133.143 42.3526 132.955 42.3423 132.702 42.3222C132.449 42.3016 132.262 42.2913 132.139 42.2913C132.009 42.2913 131.817 42.3016 131.565 42.3222C131.313 42.3423 131.124 42.3526 131.002 42.3526C130.831 42.3526 130.746 42.2739 130.746 42.1168C130.746 41.338 130.781 40.1649 130.854 38.5974C130.925 37.0298 130.961 35.8535 130.961 35.068C130.961 34.3099 130.925 33.1712 130.854 31.6512C130.781 30.1314 130.746 28.9925 130.746 28.2344C130.746 28.0636 130.824 27.9785 130.981 27.9785C131.111 27.9785 131.309 27.9884 131.575 28.0091C131.842 28.0295 132.043 28.0397 132.18 28.0397C132.303 28.0397 132.488 28.0295 132.733 28.0091C132.979 27.9884 133.164 27.9785 133.287 27.9785C133.464 27.9785 133.553 28.0467 133.553 28.1828C133.553 28.9482 133.526 30.0957 133.472 31.6256C133.416 33.1556 133.389 34.3032 133.389 35.068ZM128.4 35.3443C128.4 36.0966 128.429 37.2229 128.487 38.7257C128.545 40.228 128.574 41.3519 128.574 42.0966C128.574 42.2672 128.489 42.3526 128.317 42.3526C128.194 42.3526 128.008 42.3423 127.759 42.3222C127.51 42.3016 127.323 42.2913 127.2 42.2913C127.078 42.2913 126.889 42.3016 126.637 42.3222C126.385 42.3423 126.196 42.3526 126.074 42.3526C125.903 42.3526 125.818 42.2395 125.818 42.0142C125.818 41.1473 125.845 39.8462 125.899 38.1113C125.954 36.3764 125.982 35.0744 125.982 34.2078C125.982 34.0775 125.954 34.0123 125.899 34.0123C125.838 34.0123 125.79 34.0507 125.756 34.1254C125.408 34.8698 124.585 36.8579 123.287 40.0884C123.075 40.7095 122.771 41.4852 122.375 42.414C122.328 42.5027 122.081 42.5473 121.638 42.5473C120.996 42.5473 120.639 42.4895 120.572 42.3732C120.34 41.82 120.009 41.0444 119.579 40.0475C119.011 38.6949 118.14 36.6799 116.966 34.0024C116.945 33.9546 116.901 33.907 116.832 33.8587C116.778 33.8998 116.75 33.9747 116.75 34.0843C116.75 34.9657 116.766 36.287 116.797 38.0495C116.827 39.8121 116.842 41.133 116.842 42.0142C116.842 42.2395 116.757 42.3526 116.587 42.3526C116.47 42.3526 116.292 42.3423 116.054 42.3222C115.815 42.3016 115.637 42.2913 115.521 42.2913C115.398 42.2913 115.216 42.3016 114.972 42.3222C114.73 42.3423 114.547 42.3526 114.424 42.3526C114.253 42.3526 114.168 42.2873 114.168 42.1579C114.168 41.3997 114.204 40.2646 114.277 38.7512C114.347 37.2385 114.384 36.1025 114.384 35.3443C114.384 34.5588 114.347 33.3793 114.277 31.8051C114.204 30.2305 114.168 29.0505 114.168 28.2652C114.168 28.1356 114.247 28.0603 114.404 28.0397C115.333 27.9167 116.033 27.8555 116.505 27.8555C116.572 27.8555 116.668 27.9956 116.791 28.2755C118.444 31.909 119.865 35.154 121.053 38.0084C121.333 38.6779 121.5 39.013 121.556 39.013C121.624 39.013 121.77 38.7389 121.996 38.1932C122.925 35.9794 124.212 32.6945 125.858 28.3367C125.961 28.0703 126.074 27.9373 126.196 27.9373C126.428 27.9373 126.779 27.9508 127.247 27.9785C127.715 28.0056 128.064 28.0192 128.297 28.0192C128.467 28.0192 128.553 28.1012 128.553 28.2652C128.553 29.0505 128.528 30.2305 128.476 31.8051C128.425 33.3793 128.4 34.5588 128.4 35.3443V35.3443Z" fill="#6B4CAB"/>
</g>
</g>
<defs>
<filter id="filter0_ddd_875_12719" x="-8" y="-7" width="198" height="90" filterUnits="userSpaceOnUse" color-interpolation-filters="sRGB">
<feFlood flood-opacity="0" result="BackgroundImageFix"/>
<feColorMatrix in="SourceAlpha" type="matrix" values="0 0 0 0 0 0 0 0 0 0 0 0 0 0 0 0 0 0 127 0" result="hardAlpha"/>
<feOffset dy="1"/>
<feGaussianBlur stdDeviation="4"/>
<feColorMatrix type="matrix" values="0 0 0 0 0 0 0 0 0 0 0 0 0 0 0 0 0 0 0.1 0"/>
<feBlend mode="normal" in2="BackgroundImageFix" result="effect1_dropShadow_875_12719"/>
<feColorMatrix in="SourceAlpha" type="matrix" values="0 0 0 0 0 0 0 0 0 0 0 0 0 0 0 0 0 0 127 0" result="hardAlpha"/>
<feOffset dy="2"/>
<feGaussianBlur stdDeviation="2"/>
<feColorMatrix type="matrix" values="0 0 0 0 0 0 0 0 0 0 0 0 0 0 0 0 0 0 0.12 0"/>
<feBlend mode="normal" in2="effect1_dropShadow_875_12719" result="effect2_dropShadow_875_12719"/>
<feColorMatrix in="SourceAlpha" type="matrix" values="0 0 0 0 0 0 0 0 0 0 0 0 0 0 0 0 0 0 127 0" result="hardAlpha"/>
<feOffset dy="1"/>
<feGaussianBlur stdDeviation="1"/>
<feColorMatrix type="matrix" values="0 0 0 0 0 0 0 0 0 0 0 0 0 0 0 0 0 0 0.16 0"/>
<feBlend mode="normal" in2="effect2_dropShadow_875_12719" result="effect3_dropShadow_875_12719"/>
<feBlend mode="normal" in="SourceGraphic" in2="effect3_dropShadow_875_12719" result="shape"/>
</filter>
<clipPath id="clip0_875_12719">
<rect width="132" height="33" fill="white" transform="translate(23 17)"/>
</clipPath>
</defs>
</svg>
