<svg width="237" height="188" viewBox="0 0 237 188" fill="none" xmlns="http://www.w3.org/2000/svg">
<path d="M81.0773 92.9134C51.2441 58.0405 23.3663 44.1187 6.56549 40.3276C0.100578 39.3527 -0.994012 50.5494 6.17212 52.6474C1.51442 56.3701 -1.42729 63.4451 5.38538 69.7389C1.22367 75.4855 -1.75222 75.611 1.17238 83.9458C4.13689 92.3946 40.5889 131.874 81.0716 92.9134H81.0773Z" fill="#9677D9"/>
<path d="M147.739 96.5166C184.408 68.9238 214.646 61.3643 231.863 61.2959C238.385 61.7406 237.028 72.9145 229.577 73.4048C233.316 78.0454 234.662 85.5878 226.646 90.2569C229.468 96.7674 232.342 97.5313 227.684 105.034C222.964 112.645 178.832 143.299 147.733 96.5052L147.739 96.5166Z" fill="#9677D9"/>
<path d="M121.149 170.275H120.579V187.669H121.149V170.275Z" fill="#5C4195"/>
<path d="M105.785 170.275H105.215V187.669H105.785V170.275Z" fill="#5C4195"/>
<path d="M174.163 173.759C179.014 121.572 189.128 53.2058 126.827 44.3066C64.527 35.4017 42.6808 78.6892 44.2999 161.621C44.2999 161.621 111.053 177.806 174.163 173.759Z" fill="#5C4195"/>
<path d="M131.685 96.4875C131.685 87.7764 138.748 80.7129 147.465 80.7129C156.182 80.7129 163.245 87.7764 163.245 96.4875C163.245 105.199 156.182 112.268 147.465 112.268C138.748 112.268 131.685 105.204 131.685 96.4875Z" fill="#F9F1EE"/>
<path d="M69.3848 89.6066C69.3848 80.8955 76.4483 73.832 85.1594 73.832C93.8705 73.832 100.94 80.8955 100.94 89.6066C100.94 98.3177 93.8762 105.387 85.1594 105.387C76.4426 105.387 69.3848 98.3234 69.3848 89.6066Z" fill="#F9F1EE"/>
<path d="M120.409 102.657L114.132 116.351L104.041 102.115L120.409 102.657Z" fill="#846C30"/>
<path d="M120.328 102.451L111.503 114.662L103.961 101.841L120.328 102.451Z" fill="white"/>
<path d="M160.652 174.317C111.218 175.372 62.6518 165.675 48.4678 162.568C60.2688 125.95 79.3272 123.926 106.874 126.595C132.107 129.035 154.495 147.853 160.657 174.317H160.652Z" fill="white"/>
<path d="M155.88 99.954C155.509 96.1059 151.952 92.3318 147.784 91.3627C145.344 90.7983 140.709 90.747 136.992 96.7615L136.508 96.4593C139.358 91.8415 143.514 89.7835 147.91 90.804C152.3 91.8244 156.051 95.8151 156.444 99.897L155.874 99.954H155.88Z" fill="#5C4195"/>
<path d="M93.8475 93.3242C93.477 89.476 89.9196 85.702 85.7521 84.7328C83.3178 84.1684 78.6772 84.1171 74.9602 90.1316L74.4756 89.8295C77.3261 85.2117 81.4821 83.1536 85.8775 84.1741C90.2673 85.1946 94.0186 89.1853 94.4119 93.2672L93.8418 93.3242H93.8475Z" fill="#5C4195"/>
<path d="M119.855 29.262C103.665 16.3093 92.331 15.4998 97.1882 4.16625C102.045 -7.1673 116.617 8.21395 116.617 8.21395C116.617 8.21395 128.76 -2.31006 136.856 4.16625C144.951 10.6426 129.57 22.7857 119.855 29.262Z" fill="#E29E3B"/>
</svg>
