<svg width="330" height="257" viewBox="0 0 330 257" fill="none" xmlns="http://www.w3.org/2000/svg">
<path d="M213.236 96.2207C276.17 108.215 312.361 132.356 328.598 150.097C334.258 157.261 321.443 166.342 313.937 159.107C312.648 167.329 306.113 175.798 293.768 171.906C289.685 180.932 291.596 184.625 279.465 186.854C267.176 189.114 194.062 172.288 213.228 96.2207H213.236Z" fill="#9677D9"/>
<path d="M96.6316 107.38C39.412 136.209 11.2518 169.375 0.522635 190.897C-2.95559 199.334 11.8726 204.547 17.094 195.53C20.5881 203.083 29.2001 209.427 40.0009 202.287C46.4082 209.84 45.5804 213.916 57.8537 212.73C70.3021 211.528 135.967 175.241 96.6237 107.388L96.6316 107.38Z" fill="#9677D9"/>
<path d="M155.698 232.237H154.902V256.521H155.698V232.237Z" fill="#7A6576"/>
<path d="M177.148 232.237H176.353V256.521H177.148V232.237Z" fill="#7A6576"/>
<path d="M111.922 68.9044L103.453 42.9251L159.933 23.1621L165.576 55.9148L111.922 68.9044Z" fill="#696A6E"/>
<path d="M80.8882 237.1C74.1148 164.24 59.9949 68.7921 146.975 56.3676C233.954 43.9351 264.454 104.37 262.194 220.155C262.194 220.155 168.998 242.751 80.8882 237.1Z" fill="#6B4CAB"/>
<path d="M140.193 129.22C140.193 117.058 130.331 107.196 118.161 107.196C105.992 107.196 96.1299 117.058 96.1299 129.22C96.1299 141.382 105.992 151.251 118.161 151.251C130.331 151.251 140.193 141.39 140.193 129.22Z" fill="#F9F1EE"/>
<path d="M136.285 123.617C136.285 126.474 134.773 128.782 132.91 128.782C131.048 128.782 129.527 126.474 129.527 123.617C129.527 120.759 131.04 118.459 132.91 118.459C134.781 118.459 136.285 120.767 136.285 123.617Z" fill="#7A6576"/>
<path d="M227.173 119.613C227.173 107.451 217.311 97.5898 205.15 97.5898C192.988 97.5898 183.118 107.451 183.118 119.613C183.118 131.775 192.98 141.645 205.15 141.645C217.319 141.645 227.173 131.783 227.173 119.613Z" fill="#F9F1EE"/>
<path d="M223.256 114.009C223.256 116.867 221.744 119.175 219.882 119.175C218.019 119.175 216.507 116.867 216.507 114.009C216.507 111.152 218.011 108.852 219.882 108.852C221.752 108.852 223.256 111.16 223.256 114.009Z" fill="#7A6576"/>
<path d="M154.361 140.578L167.892 156.671L176.194 133.772L154.361 140.578Z" fill="#846C30"/>
<path d="M154.393 140.268L170.805 153.433L176.201 133.375L154.393 140.268Z" fill="#E2C464"/>
<path d="M65.041 46.3074L119.825 1.69534L194.388 0L196.641 5.64317L139.596 42.3596L66.7364 50.2632L65.041 46.3074Z" fill="#474344"/>
<path d="M111.922 68.9038L165.576 55.9142L164.278 48.3369L109.335 60.9684L111.922 68.9038Z" fill="#585455"/>
<path d="M99.7599 237.881C168.775 239.353 236.581 225.815 256.384 221.477C239.908 170.354 213.3 167.528 174.84 171.253C139.612 174.66 108.356 200.934 99.752 237.881H99.7599Z" fill="white"/>
<path d="M185.585 35.8646L180.435 27.2844V5.03809L131.215 15.5365L131.382 16.3165L179.639 6.01708V25.9632L179.337 25.4617L173.829 37.8544L174.553 38.1808L179.44 27.181L179.639 27.5073V39.9637H180.435V28.8365L184.901 36.2705L185.585 35.8646Z" fill="#7A6576"/>
</svg>
