<svg width="241" height="188" viewBox="0 0 241 188" fill="none" xmlns="http://www.w3.org/2000/svg">
<path d="M134.586 97.41C183.174 80.1837 218.669 80.8736 237.614 85.431C244.648 87.6169 239.803 98.216 231.463 96.6968C234.178 102.257 233.386 110.015 223.176 112.445C224.319 119.588 227.248 121.113 219.877 127.224C212.401 133.422 154.694 151.652 134.586 97.4042V97.41Z" fill="#9677D9"/>
<path d="M82.5759 76.0321C63.5719 32.5458 38.8069 9.83438 22.1606 0.568907C15.5748 -2.53311 10.197 7.8572 17.1206 12.2696C10.7101 14.2816 4.89072 20.0913 9.8593 28.4175C3.22803 32.54 -0.0193975 31.6645 8.71549e-05 40.6459C0.0130769 49.7548 24.4143 99.88 82.5759 76.0321Z" fill="#9677D9"/>
<path d="M48.104 150.15L16.3398 159.32L16.5397 159.872L48.3038 150.702L48.104 150.15Z" fill="#7A6576"/>
<path d="M62.9516 158.42L31.1875 167.59L31.3873 168.142L63.1515 158.972L62.9516 158.42Z" fill="#7A6576"/>
<path d="M5.03906 128.678C31.7655 81.0114 63.1487 16.5474 128.76 42.3492C194.378 68.1511 189.441 117.267 137.944 187.999C137.944 187.999 63.6358 166.094 5.03906 128.678Z" fill="#5C4195"/>
<path d="M130.976 90.5905C136.224 83.0703 133.639 73.1728 125.215 68.4879C116.785 63.803 105.705 66.1048 100.457 73.6251C95.2092 81.1511 97.7876 91.0486 106.218 95.7335C114.648 100.418 125.729 98.1165 130.983 90.5905H130.976Z" fill="#F9F1EE"/>
<path d="M130.365 84.9088C129.807 86.9266 128.157 88.3008 126.683 87.9703C125.202 87.6456 124.455 85.7496 125.013 83.7318C125.572 81.714 127.215 80.3457 128.696 80.6762C130.177 81.0009 130.924 82.8969 130.365 84.9088Z" fill="#7A6576"/>
<path d="M173.438 108.607C175.205 99.8866 171.451 91.9779 165.054 90.9458C158.65 89.9137 152.031 96.141 150.265 104.861C148.498 113.582 152.252 121.491 158.65 122.528C165.047 123.561 171.672 117.333 173.438 108.607Z" fill="#F9F1EE"/>
<path d="M171.571 105.672C171.383 107.748 170.104 109.336 168.714 109.238C167.324 109.133 166.349 107.377 166.544 105.307C166.733 103.237 168.012 101.648 169.402 101.747C170.792 101.851 171.76 103.608 171.571 105.672Z" fill="#7A6576"/>
<path d="M129.413 101.348L127.73 116.597L145.832 109.262L129.413 101.348Z" fill="#CE7549"/>
<path d="M129.605 101.213L131.288 116.462L146.063 109.064L129.605 101.213Z" fill="#F79760"/>
<path d="M41.5234 149.291C90.4948 174.008 137.953 187.999 137.953 187.999C148.059 174.113 156.366 161.067 162.705 148.862C133.842 118.479 66.7106 120.735 41.5234 149.291Z" fill="white"/>
</svg>
