<svg width="336" height="396" viewBox="0 0 336 396" fill="none" xmlns="http://www.w3.org/2000/svg">
<g filter="url(#filter0_ddd_489_1738)">
<rect x="8" y="7" width="320" height="380" rx="160" fill="white" fill-opacity="0.75"/>
<path d="M181.586 157.41C230.174 140.184 265.669 140.874 284.614 145.431C291.648 147.617 286.803 158.216 278.463 156.697C281.178 162.257 280.386 170.015 270.176 172.445C271.319 179.588 274.248 181.113 266.877 187.224C259.401 193.422 201.694 211.652 181.586 157.404V157.41Z" fill="#9677D9"/>
<path d="M129.576 136.032C110.572 92.5458 85.8069 69.8344 69.1606 60.5689C62.5748 57.4669 57.197 67.8572 64.1206 72.2696C57.7101 74.2816 51.8907 80.0913 56.8593 88.4175C50.228 92.54 46.9806 91.6645 47.0001 100.646C47.0131 109.755 71.4143 159.88 129.576 136.032Z" fill="#9677D9"/>
<path d="M95.104 210.15L63.3398 219.32L63.5397 219.872L95.3038 210.702L95.104 210.15Z" fill="#7A6576"/>
<path d="M109.952 218.42L78.1875 227.59L78.3873 228.142L110.151 218.972L109.952 218.42Z" fill="#7A6576"/>
<path d="M52.0391 188.678C78.7655 141.011 110.149 76.5474 175.76 102.349C241.378 128.151 236.441 177.267 184.944 247.999C184.944 247.999 110.636 226.094 52.0391 188.678Z" fill="#5C4195"/>
<path d="M177.976 150.591C183.224 143.07 180.639 133.173 172.215 128.488C163.785 123.803 152.705 126.105 147.457 133.625C142.209 141.151 144.788 151.049 153.218 155.733C161.648 160.418 172.729 158.117 177.983 150.591H177.976Z" fill="#F9F1EE"/>
<path d="M177.365 144.909C176.807 146.927 175.157 148.301 173.683 147.97C172.202 147.646 171.455 145.75 172.013 143.732C172.572 141.714 174.215 140.346 175.696 140.676C177.177 141.001 177.924 142.897 177.365 144.909Z" fill="#7A6576"/>
<path d="M220.438 168.607C222.205 159.887 218.451 151.978 212.054 150.946C205.65 149.914 199.031 156.141 197.265 164.861C195.498 173.582 199.252 181.491 205.65 182.528C212.047 183.561 218.672 177.333 220.438 168.607Z" fill="#F9F1EE"/>
<path d="M218.571 165.672C218.383 167.748 217.104 169.336 215.714 169.238C214.324 169.133 213.349 167.377 213.544 165.307C213.733 163.237 215.012 161.648 216.402 161.747C217.792 161.851 218.76 163.608 218.571 165.672Z" fill="#7A6576"/>
<path d="M176.413 161.348L174.73 176.597L192.832 169.262L176.413 161.348Z" fill="#CE7549"/>
<path d="M176.605 161.213L178.288 176.462L193.063 169.064L176.605 161.213Z" fill="#F79760"/>
<path d="M88.5234 209.291C137.495 234.008 184.953 247.999 184.953 247.999C195.059 234.113 203.366 221.067 209.705 208.862C180.842 178.479 113.711 180.735 88.5234 209.291Z" fill="white"/>
<path d="M134.932 328.931H131.309V326.646H134.932C135.492 326.646 135.947 326.554 136.299 326.372C136.65 326.183 136.908 325.923 137.07 325.591C137.233 325.259 137.314 324.884 137.314 324.468C137.314 324.045 137.233 323.651 137.07 323.286C136.908 322.922 136.65 322.629 136.299 322.407C135.947 322.186 135.492 322.075 134.932 322.075H132.324V333.999H129.395V319.78H134.932C136.045 319.78 136.999 319.982 137.793 320.386C138.594 320.783 139.206 321.333 139.629 322.036C140.052 322.739 140.264 323.543 140.264 324.448C140.264 325.366 140.052 326.16 139.629 326.831C139.206 327.502 138.594 328.019 137.793 328.384C136.999 328.748 136.045 328.931 134.932 328.931ZM147.195 322.212L143.328 333.999H140.213L145.496 319.78H147.479L147.195 322.212ZM150.408 333.999L146.531 322.212L146.219 319.78H148.221L153.533 333.999H150.408ZM150.232 328.706V331.001H142.723V328.706H150.232ZM155.602 319.78H160.904C161.992 319.78 162.926 319.943 163.707 320.269C164.495 320.594 165.1 321.076 165.523 321.714C165.947 322.352 166.158 323.136 166.158 324.067C166.158 324.829 166.028 325.483 165.768 326.03C165.514 326.571 165.152 327.023 164.684 327.388C164.221 327.746 163.678 328.032 163.053 328.247L162.125 328.735H157.516L157.496 326.45H160.924C161.438 326.45 161.865 326.359 162.203 326.177C162.542 325.994 162.796 325.741 162.965 325.415C163.141 325.09 163.229 324.712 163.229 324.282C163.229 323.826 163.144 323.433 162.975 323.101C162.805 322.769 162.548 322.515 162.203 322.339C161.858 322.163 161.425 322.075 160.904 322.075H158.531V333.999H155.602V319.78ZM163.551 333.999L160.309 327.661L163.404 327.642L166.686 333.862V333.999H163.551ZM178.705 331.714V333.999H171.137V331.714H178.705ZM172.094 319.78V333.999H169.164V319.78H172.094ZM177.719 325.571V327.798H171.137V325.571H177.719ZM178.695 319.78V322.075H171.137V319.78H178.695ZM192.736 319.78V333.999H189.807L184.094 324.468V333.999H181.164V319.78H184.094L189.816 329.321V319.78H192.736ZM202.1 319.78V333.999H199.18V319.78H202.1ZM206.475 319.78V322.075H194.873V319.78H206.475Z" fill="#263238"/>
<rect x="8.5" y="7.5" width="319" height="379" rx="159.5" stroke="#6750A4"/>
</g>
<defs>
<filter id="filter0_ddd_489_1738" x="0" y="0" width="336" height="396" filterUnits="userSpaceOnUse" color-interpolation-filters="sRGB">
<feFlood flood-opacity="0" result="BackgroundImageFix"/>
<feColorMatrix in="SourceAlpha" type="matrix" values="0 0 0 0 0 0 0 0 0 0 0 0 0 0 0 0 0 0 127 0" result="hardAlpha"/>
<feOffset dy="1"/>
<feGaussianBlur stdDeviation="4"/>
<feColorMatrix type="matrix" values="0 0 0 0 0 0 0 0 0 0 0 0 0 0 0 0 0 0 0.1 0"/>
<feBlend mode="normal" in2="BackgroundImageFix" result="effect1_dropShadow_489_1738"/>
<feColorMatrix in="SourceAlpha" type="matrix" values="0 0 0 0 0 0 0 0 0 0 0 0 0 0 0 0 0 0 127 0" result="hardAlpha"/>
<feOffset dy="2"/>
<feGaussianBlur stdDeviation="2"/>
<feColorMatrix type="matrix" values="0 0 0 0 0 0 0 0 0 0 0 0 0 0 0 0 0 0 0.12 0"/>
<feBlend mode="normal" in2="effect1_dropShadow_489_1738" result="effect2_dropShadow_489_1738"/>
<feColorMatrix in="SourceAlpha" type="matrix" values="0 0 0 0 0 0 0 0 0 0 0 0 0 0 0 0 0 0 127 0" result="hardAlpha"/>
<feOffset dy="1"/>
<feGaussianBlur stdDeviation="1"/>
<feColorMatrix type="matrix" values="0 0 0 0 0 0 0 0 0 0 0 0 0 0 0 0 0 0 0.16 0"/>
<feBlend mode="normal" in2="effect2_dropShadow_489_1738" result="effect3_dropShadow_489_1738"/>
<feBlend mode="normal" in="SourceGraphic" in2="effect3_dropShadow_489_1738" result="shape"/>
</filter>
</defs>
</svg>
