<svg width="136" height="137" viewBox="0 0 136 137" fill="none" xmlns="http://www.w3.org/2000/svg">
<g filter="url(#filter0_ddd_817_53570)">
<path d="M68.4714 123.109C99.1204 123.109 123.966 98.0128 123.966 67.0547C123.966 36.0965 99.1204 11 68.4714 11C37.8225 11 12.9766 36.0965 12.9766 67.0547C12.9766 98.0128 37.8225 123.109 68.4714 123.109Z" fill="#7CA055"/>
<path d="M50.0424 100.758H47.0814V99.2031H50.0424C50.558 99.2031 50.9747 99.1198 51.2924 98.9531C51.6101 98.7865 51.8418 98.5573 51.9877 98.2656C52.1387 97.9688 52.2142 97.6302 52.2142 97.25C52.2142 96.8906 52.1387 96.5547 51.9877 96.2422C51.8418 95.9245 51.6101 95.6693 51.2924 95.4766C50.9747 95.2839 50.558 95.1875 50.0424 95.1875H47.683V105H45.722V93.625H50.0424C50.9226 93.625 51.67 93.7812 52.2845 94.0938C52.9043 94.401 53.3757 94.8281 53.6986 95.375C54.0215 95.9167 54.183 96.5365 54.183 97.2344C54.183 97.9688 54.0215 98.599 53.6986 99.125C53.3757 99.651 52.9043 100.055 52.2845 100.336C51.67 100.617 50.9226 100.758 50.0424 100.758ZM60.5752 103.305V99.2734C60.5752 98.9714 60.5205 98.7109 60.4111 98.4922C60.3017 98.2734 60.1351 98.1042 59.9111 97.9844C59.6924 97.8646 59.4163 97.8047 59.083 97.8047C58.7757 97.8047 58.5101 97.8568 58.2861 97.9609C58.0622 98.0651 57.8877 98.2057 57.7627 98.3828C57.6377 98.5599 57.5752 98.7604 57.5752 98.9844H55.7002C55.7002 98.651 55.7809 98.3281 55.9424 98.0156C56.1038 97.7031 56.3382 97.4245 56.6455 97.1797C56.9528 96.9349 57.32 96.7422 57.747 96.6016C58.1741 96.4609 58.6533 96.3906 59.1845 96.3906C59.82 96.3906 60.3825 96.4974 60.872 96.7109C61.3668 96.9245 61.7549 97.2474 62.0361 97.6797C62.3226 98.1068 62.4658 98.6432 62.4658 99.2891V103.047C62.4658 103.432 62.4918 103.779 62.5439 104.086C62.6012 104.388 62.6819 104.651 62.7861 104.875V105H60.8564C60.7679 104.797 60.6976 104.539 60.6455 104.227C60.5986 103.909 60.5752 103.602 60.5752 103.305ZM60.8486 99.8594L60.8642 101.023H59.5127C59.1637 101.023 58.8564 101.057 58.5908 101.125C58.3252 101.188 58.1038 101.281 57.9267 101.406C57.7497 101.531 57.6168 101.682 57.5283 101.859C57.4398 102.036 57.3955 102.237 57.3955 102.461C57.3955 102.685 57.4476 102.891 57.5517 103.078C57.6559 103.26 57.8069 103.404 58.0049 103.508C58.208 103.612 58.4528 103.664 58.7392 103.664C59.1247 103.664 59.4606 103.586 59.747 103.43C60.0387 103.268 60.2679 103.073 60.4345 102.844C60.6012 102.609 60.6898 102.388 60.7002 102.18L61.3095 103.016C61.247 103.229 61.1403 103.458 60.9892 103.703C60.8382 103.948 60.6403 104.182 60.3955 104.406C60.1559 104.625 59.8668 104.805 59.5283 104.945C59.195 105.086 58.8095 105.156 58.372 105.156C57.82 105.156 57.3278 105.047 56.8955 104.828C56.4632 104.604 56.1247 104.305 55.8799 103.93C55.6351 103.549 55.5127 103.12 55.5127 102.641C55.5127 102.193 55.596 101.797 55.7627 101.453C55.9345 101.104 56.1845 100.812 56.5127 100.578C56.846 100.344 57.2523 100.167 57.7314 100.047C58.2106 99.9219 58.7575 99.8594 59.372 99.8594H60.8486ZM66.4752 98.1562V105H64.5924V96.5469H66.3892L66.4752 98.1562ZM69.0611 96.4922L69.0455 98.2422C68.9309 98.2214 68.8059 98.2057 68.6705 98.1953C68.5403 98.1849 68.4101 98.1797 68.2799 98.1797C67.9569 98.1797 67.6731 98.2266 67.4283 98.3203C67.1835 98.4089 66.9778 98.5391 66.8111 98.7109C66.6497 98.8776 66.5247 99.0807 66.4361 99.3203C66.3476 99.5599 66.2955 99.8281 66.2799 100.125L65.8502 100.156C65.8502 99.625 65.9023 99.1328 66.0064 98.6797C66.1106 98.2266 66.2668 97.8281 66.4752 97.4844C66.6887 97.1406 66.9543 96.8724 67.272 96.6797C67.595 96.487 67.9674 96.3906 68.3892 96.3906C68.5038 96.3906 68.6262 96.401 68.7564 96.4219C68.8918 96.4427 68.9934 96.4661 69.0611 96.4922ZM73.9611 105.156C73.3361 105.156 72.771 105.055 72.2658 104.852C71.7658 104.643 71.3387 104.354 70.9845 103.984C70.6356 103.615 70.3674 103.18 70.1799 102.68C69.9924 102.18 69.8986 101.641 69.8986 101.062V100.75C69.8986 100.089 69.995 99.4896 70.1877 98.9531C70.3804 98.4167 70.6486 97.9583 70.9924 97.5781C71.3361 97.1927 71.7424 96.8984 72.2111 96.6953C72.6799 96.4922 73.1877 96.3906 73.7345 96.3906C74.3387 96.3906 74.8674 96.4922 75.3205 96.6953C75.7736 96.8984 76.1486 97.1849 76.4455 97.5547C76.7476 97.9193 76.9715 98.3542 77.1174 98.8594C77.2684 99.3646 77.3439 99.9219 77.3439 100.531V101.336H70.8127V99.9844H75.4845V99.8359C75.4741 99.4974 75.4064 99.1797 75.2814 98.8828C75.1616 98.5859 74.9767 98.3464 74.7267 98.1641C74.4767 97.9818 74.1434 97.8906 73.7267 97.8906C73.4142 97.8906 73.1356 97.9583 72.8908 98.0938C72.6512 98.224 72.4507 98.4141 72.2892 98.6641C72.1278 98.9141 72.0028 99.2161 71.9142 99.5703C71.8309 99.9193 71.7892 100.312 71.7892 100.75V101.062C71.7892 101.432 71.8387 101.776 71.9377 102.094C72.0418 102.406 72.1929 102.68 72.3908 102.914C72.5887 103.148 72.8283 103.333 73.1095 103.469C73.3908 103.599 73.7111 103.664 74.0705 103.664C74.5236 103.664 74.9273 103.573 75.2814 103.391C75.6356 103.208 75.9429 102.951 76.2033 102.617L77.1955 103.578C77.0132 103.844 76.7762 104.099 76.4845 104.344C76.1929 104.583 75.8361 104.779 75.4142 104.93C74.9976 105.081 74.5132 105.156 73.9611 105.156ZM80.8299 98.3516V105H78.947V96.5469H80.7205L80.8299 98.3516ZM80.4939 100.461L79.8845 100.453C79.8898 99.8542 79.9731 99.3047 80.1345 98.8047C80.3012 98.3047 80.5304 97.875 80.822 97.5156C81.1189 97.1562 81.4731 96.8802 81.8845 96.6875C82.296 96.4896 82.7543 96.3906 83.2595 96.3906C83.6658 96.3906 84.033 96.4479 84.3611 96.5625C84.6944 96.6719 84.9783 96.8516 85.2127 97.1016C85.4523 97.3516 85.6345 97.6771 85.7595 98.0781C85.8845 98.474 85.947 98.9609 85.947 99.5391V105H84.0564V99.5312C84.0564 99.125 83.9965 98.8047 83.8767 98.5703C83.7621 98.3307 83.5929 98.1615 83.3689 98.0625C83.1502 97.9583 82.8767 97.9062 82.5486 97.9062C82.2257 97.9062 81.9366 97.974 81.6814 98.1094C81.4262 98.2448 81.2101 98.4297 81.033 98.6641C80.8611 98.8984 80.7283 99.1693 80.6345 99.4766C80.5408 99.7839 80.4939 100.112 80.4939 100.461ZM91.8939 96.5469V97.9219H87.1283V96.5469H91.8939ZM88.5033 94.4766H90.3861V102.664C90.3861 102.924 90.4226 103.125 90.4955 103.266C90.5736 103.401 90.6804 103.492 90.8158 103.539C90.9512 103.586 91.1101 103.609 91.2924 103.609C91.4226 103.609 91.5476 103.602 91.6674 103.586C91.7872 103.57 91.8835 103.555 91.9564 103.539L91.9642 104.977C91.808 105.023 91.6257 105.065 91.4174 105.102C91.2142 105.138 90.9799 105.156 90.7142 105.156C90.2819 105.156 89.8991 105.081 89.5658 104.93C89.2325 104.773 88.972 104.521 88.7845 104.172C88.597 103.823 88.5033 103.359 88.5033 102.781V94.4766Z" fill="#263238"/>
</g>
<path d="M78.5098 59.1071C92.4211 53.5176 102.584 53.7415 108.008 55.2203C110.022 55.9295 108.635 59.3686 106.247 58.8757C107.024 60.6799 106.797 63.1972 103.874 63.9855C104.201 66.3033 105.04 66.7981 102.93 68.781C100.789 70.7922 84.267 76.7072 78.5098 59.1053V59.1071Z" fill="#9677D9"/>
<path d="M63.6191 52.1708C58.178 38.0607 51.0875 30.6915 46.3214 27.6851C44.4358 26.6786 42.8961 30.0499 44.8784 31.4816C43.043 32.1345 41.3768 34.0196 42.7994 36.7212C40.9008 38.0588 39.971 37.7748 39.9766 40.689C39.9803 43.6446 46.9667 59.9088 63.6191 52.1708Z" fill="#9677D9"/>
<path d="M53.7488 76.2199L44.6543 79.1953L44.7115 79.3743L53.806 76.3989L53.7488 76.2199Z" fill="#7A6576"/>
<path d="M58.0007 78.903L48.9062 81.8784L48.9635 82.0574L58.0579 79.082L58.0007 78.903Z" fill="#7A6576"/>
<path d="M41.4199 69.2534C49.072 53.7868 58.0574 32.8699 76.8427 41.2419C95.6298 49.6139 94.2166 65.5509 79.4721 88.5014C79.4721 88.5014 58.1969 81.3937 41.4199 69.2534Z" fill="#5C4195"/>
<path d="M77.4774 56.8949C78.98 54.4548 78.2398 51.2433 75.828 49.7232C73.4143 48.203 70.2419 48.9499 68.7393 51.39C67.2368 53.832 67.9751 57.0435 70.3888 58.5636C72.8025 60.0837 75.9749 59.3369 77.4793 56.8949H77.4774Z" fill="#F9F1EE"/>
<path d="M77.3021 55.051C77.1422 55.7057 76.6699 56.1516 76.2478 56.0443C75.8238 55.939 75.6099 55.3238 75.7698 54.6691C75.9298 54.0143 76.4002 53.5704 76.8242 53.6776C77.2482 53.783 77.4621 54.3982 77.3021 55.051Z" fill="#7A6576"/>
<path d="M89.6349 62.7405C90.1407 59.911 89.0659 57.3448 87.2342 57.0099C85.4007 56.675 83.5058 58.6956 83 61.5252C82.4942 64.3547 83.569 66.9209 85.4007 67.2576C87.2324 67.5925 89.1291 65.5719 89.6349 62.7405Z" fill="#F9F1EE"/>
<path d="M89.0988 61.7883C89.0448 62.4618 88.6785 62.9773 88.2805 62.9453C87.8826 62.9114 87.6037 62.3414 87.6594 61.6697C87.7134 60.9981 88.0797 60.4826 88.4777 60.5146C88.8756 60.5485 89.1527 61.1185 89.0988 61.7883Z" fill="#7A6576"/>
<path d="M77.0285 60.3848L76.5469 65.3327L81.7295 62.9528L77.0285 60.3848Z" fill="#CE7549"/>
<path d="M77.084 60.3413L77.5656 65.2893L81.7961 62.8887L77.084 60.3413Z" fill="#F79760"/>
<path d="M51.8652 75.9416C65.8863 83.9618 79.4741 88.5015 79.4741 88.5015C82.3676 83.9956 84.746 79.7626 86.5609 75.8024C78.297 65.9441 59.0766 66.6759 51.8652 75.9416Z" fill="white"/>
<defs>
<filter id="filter0_ddd_817_53570" x="0.976562" y="0" width="134.99" height="136.109" filterUnits="userSpaceOnUse" color-interpolation-filters="sRGB">
<feFlood flood-opacity="0" result="BackgroundImageFix"/>
<feColorMatrix in="SourceAlpha" type="matrix" values="0 0 0 0 0 0 0 0 0 0 0 0 0 0 0 0 0 0 127 0" result="hardAlpha"/>
<feOffset dy="1"/>
<feGaussianBlur stdDeviation="6"/>
<feColorMatrix type="matrix" values="0 0 0 0 0 0 0 0 0 0 0 0 0 0 0 0 0 0 0.04 0"/>
<feBlend mode="normal" in2="BackgroundImageFix" result="effect1_dropShadow_817_53570"/>
<feColorMatrix in="SourceAlpha" type="matrix" values="0 0 0 0 0 0 0 0 0 0 0 0 0 0 0 0 0 0 127 0" result="hardAlpha"/>
<feOffset dy="4"/>
<feGaussianBlur stdDeviation="4"/>
<feColorMatrix type="matrix" values="0 0 0 0 0 0 0 0 0 0 0 0 0 0 0 0 0 0 0.08 0"/>
<feBlend mode="normal" in2="effect1_dropShadow_817_53570" result="effect2_dropShadow_817_53570"/>
<feColorMatrix in="SourceAlpha" type="matrix" values="0 0 0 0 0 0 0 0 0 0 0 0 0 0 0 0 0 0 127 0" result="hardAlpha"/>
<feOffset dy="3"/>
<feGaussianBlur stdDeviation="3"/>
<feColorMatrix type="matrix" values="0 0 0 0 0 0 0 0 0 0 0 0 0 0 0 0 0 0 0.1 0"/>
<feBlend mode="normal" in2="effect2_dropShadow_817_53570" result="effect3_dropShadow_817_53570"/>
<feBlend mode="normal" in="SourceGraphic" in2="effect3_dropShadow_817_53570" result="shape"/>
</filter>
</defs>
</svg>
