<svg width="111" height="103" viewBox="0 0 111 103" fill="none" xmlns="http://www.w3.org/2000/svg">
<path d="M56.4375 102.875C82.6365 102.875 103.875 81.6365 103.875 55.4375C103.875 29.2385 82.6365 8 56.4375 8C30.2385 8 9 29.2385 9 55.4375C9 81.6365 30.2385 102.875 56.4375 102.875Z" fill="#C8D3D8"/>
<mask id="mask0_1028_33870" style="mask-type:alpha" maskUnits="userSpaceOnUse" x="0" y="0" width="111" height="103">
<path d="M55.5 103C86.1518 103 111 79.9427 111 51.5C111 23.0573 86.1518 0 55.5 0C24.8482 0 0 23.0573 0 51.5C0 79.9427 24.8482 103 55.5 103Z" fill="#C8D3D8"/>
</mask>
<g mask="url(#mask0_1028_33870)">
<path d="M75.6747 106.46C75.6216 106.951 75.1723 107.325 74.6407 107.325H35.195C34.6634 107.325 34.2141 106.951 34.161 106.46C33.6516 101.698 34.5142 96.6939 36.2274 91.7911C37.0402 89.4567 50.3002 90.2681 51.4406 88.0166C51.4406 88.0166 72.7955 89.4567 73.6083 91.7911C75.3215 96.6937 76.1841 101.698 75.6747 106.46Z" fill="#F9F3F1"/>
<path d="M38.3881 107.326H35.195C34.6634 107.326 34.2141 106.952 34.161 106.46C33.6516 101.699 34.5142 96.6944 36.2274 91.7916C37.0402 89.4572 38.0452 87.1467 39.1856 84.895H43.3664C39.8063 92.1957 37.6062 100.023 38.3881 107.326Z" fill="#F3EAE6"/>
<path d="M73.6105 91.7912C68.9271 94.8157 62.2845 96.7025 54.9195 96.7025C47.5544 96.7025 40.9118 94.8157 36.2285 91.7912C37.0412 89.4567 38.0465 87.147 39.1875 84.8945H70.6513C71.7927 87.147 72.7978 89.4567 73.6105 91.7912V91.7912Z" fill="#F3EAE6"/>
<path d="M43.0062 58.733C42.501 59.5543 41.418 59.9198 40.4621 59.592C36.883 58.3641 33.537 56.1018 30.8535 53.038C33.4027 47.6545 38.6727 43.63 45.0484 42.4644C46.6172 48.3758 45.7622 54.2511 43.0062 58.733Z" fill="#F9F3F1"/>
<path d="M43.0072 58.7324C42.9249 58.8677 42.8254 58.9886 42.7122 59.0984C42.1498 59.6554 41.2632 59.8654 40.4623 59.5917C34.4585 57.5326 29.1064 52.5566 26.4466 45.7746C23.7868 38.9941 24.4385 31.9893 27.611 26.8304C28.1169 26.0093 29.199 25.6433 30.1559 25.9711C30.6789 26.1509 31.1985 26.353 31.7096 26.5774C37.072 28.9118 41.7433 33.5997 44.1716 39.7882C46.8314 46.5702 46.1797 53.5751 43.0072 58.7324Z" fill="#F9F3F1"/>
<path d="M40.2895 51.209C40.2517 51.4333 40.2071 51.6577 40.1591 51.8789C39.9516 52.8369 38.7186 53.2538 37.8955 52.6443C35.0865 50.5661 32.7954 47.5809 31.427 44.0928C30.0585 40.6047 29.7464 36.9511 30.4598 33.6842C30.6673 32.7262 31.9003 32.3109 32.7234 32.9188C33.3373 33.3723 33.9255 33.8688 34.4846 34.405C36.4893 36.3241 38.1219 38.7445 39.1919 41.4703C40.4678 44.7229 40.8245 48.1171 40.2895 51.209V51.209Z" fill="#FE646F"/>
<path d="M42.7122 59.0984C42.1498 59.6554 41.2632 59.8654 40.4623 59.5917C34.4585 57.5326 29.1064 52.5566 26.4466 45.7746C23.7868 38.9941 24.4385 31.9893 27.611 26.8304C28.1169 26.0093 29.199 25.6433 30.1559 25.9711C30.6789 26.1509 31.1985 26.353 31.7096 26.5774C28.5388 31.8556 27.9111 38.9671 30.6138 45.8526C33.0009 51.9392 37.499 56.6096 42.7122 59.0984V59.0984Z" fill="#F3EAE6"/>
<path d="M43.0062 58.733C42.501 59.5543 41.418 59.9198 40.4621 59.592C36.883 58.3641 33.537 56.1018 30.8535 53.038C33.4027 47.6545 38.6727 43.63 45.0484 42.4644C46.6172 48.3758 45.7622 54.2511 43.0062 58.733Z" fill="#F3EAE6"/>
<path d="M40.1597 51.8796C39.9495 52.8369 38.7182 53.2534 37.8949 52.6452C36.3827 51.5255 35.0206 50.1453 33.874 48.5634C35.5682 46.7125 37.6546 45.1782 40.0112 44.0732C40.6509 46.7372 40.6968 49.4174 40.1597 51.8796Z" fill="#FD4755"/>
<path d="M40.1597 51.8796C39.9495 52.8369 38.7182 53.2534 37.8949 52.6452C36.3827 51.5255 35.0206 50.1453 33.874 48.5634C35.5682 46.7125 37.6546 45.1782 40.0112 44.0732C40.6509 46.7372 40.6968 49.4174 40.1597 51.8796Z" fill="#FD4755"/>
<path d="M40.2885 51.2095C40.2508 51.4338 40.2062 51.6582 40.1582 51.8794C39.9507 52.8373 38.7177 53.2543 37.8945 52.6448C35.0855 50.5666 32.7945 47.5813 31.426 44.0932C30.0575 40.6052 29.7454 36.9516 30.4588 33.6847C30.6663 32.7267 31.8993 32.3114 32.7224 32.9193C33.3364 33.3728 33.9246 33.8693 34.4836 34.4055C34.0292 37.5197 34.427 40.9043 35.7012 44.1521C35.9721 44.8443 36.2774 45.5174 36.6152 46.1683C37.5944 48.0571 38.8411 49.7582 40.2885 51.2095V51.2095Z" fill="#FD4755"/>
<path d="M83.3913 45.7745C80.9631 51.9646 76.2917 56.6509 70.9293 58.9869C70.4183 59.2097 69.8987 59.4118 69.3756 59.5916C68.4187 59.9194 67.3366 59.555 66.8307 58.7323C63.6582 53.575 63.0066 46.5702 65.6663 39.7881C68.3261 33.0077 73.6783 28.0301 79.682 25.971C80.4829 25.6973 81.3695 25.9074 81.932 26.4643C82.0451 26.5741 82.1446 26.695 82.2269 26.8303C85.3994 31.9892 86.0511 38.9941 83.3913 45.7745V45.7745Z" fill="#F9F3F1"/>
<path d="M78.4107 44.0928C77.3406 46.8186 75.708 49.239 73.7034 51.1581C73.1443 51.6943 72.5561 52.1908 71.9422 52.6443C71.119 53.2538 69.886 52.8369 69.6785 51.8789C68.9651 48.612 69.2772 44.96 70.6457 41.4703C72.0142 37.9822 74.3053 34.997 77.1142 32.9188C77.9374 32.3109 79.1704 32.7262 79.3779 33.6842C79.4259 33.907 79.4705 34.1297 79.5082 34.3557C80.0433 37.4476 79.6866 40.8418 78.4107 44.0928V44.0928Z" fill="#FE646F"/>
<path d="M69.8335 39.7101C67.1309 46.5972 67.7585 53.7087 70.9293 58.9869C70.4183 59.2097 69.8987 59.4118 69.3756 59.5916C68.4187 59.9194 67.3366 59.555 66.8307 58.7323C63.6582 53.575 63.0066 46.5702 65.6663 39.7881C68.3261 33.0077 73.6783 28.0301 79.682 25.971C80.4829 25.6973 81.3695 25.9074 81.932 26.4643C76.7187 28.9547 72.2206 33.6251 69.8335 39.7101Z" fill="#F3EAE6"/>
<path d="M74.9209 41.4114C73.6468 44.6608 73.2489 48.0439 73.7034 51.1581C73.1443 51.6943 72.5561 52.1908 71.9422 52.6443C71.119 53.2538 69.886 52.8369 69.6785 51.8789C68.9651 48.612 69.2772 44.96 70.6457 41.4703C72.0142 37.9822 74.3053 34.997 77.1142 32.9188C77.9374 32.3109 79.1704 32.7262 79.3779 33.6842C79.4259 33.907 79.4705 34.1297 79.5082 34.3557C77.5618 36.3066 75.979 38.7142 74.9209 41.4114V41.4114Z" fill="#FD4755"/>
<path d="M80.6018 78.1221C80.6018 86.6769 69.3111 93.6244 55.3039 93.7485C55.1753 93.7517 55.0467 93.7517 54.9181 93.7517H54.8426C40.6915 93.7263 29.2344 86.7389 29.2344 78.1221C29.2344 75.4933 30.301 73.0157 32.1857 70.8404C32.2731 70.7386 32.3229 70.6129 32.3229 70.4824V63.2723C32.3229 53.1899 41.1305 45.0171 51.996 45.0171H57.8403C68.7057 45.0171 77.5133 53.1899 77.5133 63.2723V70.4824C77.5133 70.6129 77.5631 70.7386 77.6505 70.8404C79.5352 73.0157 80.6018 75.4933 80.6018 78.1221Z" fill="#FAF7F7"/>
<path d="M44.3192 66.9996C45.9291 66.9996 47.2342 65.7886 47.2342 64.2947C47.2342 62.8009 45.9291 61.5898 44.3192 61.5898C42.7094 61.5898 41.4043 62.8009 41.4043 64.2947C41.4043 65.7886 42.7094 66.9996 44.3192 66.9996Z" fill="#8D9CA8"/>
<path d="M65.5194 66.9996C67.1293 66.9996 68.4344 65.7886 68.4344 64.2947C68.4344 62.8009 67.1293 61.5898 65.5194 61.5898C63.9096 61.5898 62.6045 62.8009 62.6045 64.2947C62.6045 65.7886 63.9096 66.9996 65.5194 66.9996Z" fill="#8D9CA8"/>
<path d="M60.3007 79.8617L59.174 86.6517C59.1208 86.9715 58.8259 87.2086 58.476 87.2086H56.2055L54.7259 85.3761L53.6332 87.2086H51.3627C51.0129 87.2086 50.7179 86.9715 50.6648 86.6517L49.5381 79.8617C49.7422 79.8887 49.9479 79.9015 50.1589 79.9015C51.5171 79.9015 52.7449 79.3748 53.6144 78.5298C53.8407 78.3118 54.0414 78.0731 54.2163 77.8169H55.6225C55.7974 78.0731 55.998 78.3118 56.2244 78.5298C57.0938 79.3748 58.3217 79.9015 59.6799 79.9015C59.8908 79.9015 60.0966 79.8887 60.3007 79.8617Z" fill="#F3EAE6"/>
<path d="M56.9554 93.6929C56.4083 93.7231 55.8579 93.7406 55.3039 93.7485C55.1496 93.7501 54.997 93.7517 54.8426 93.7517C40.6915 93.7263 29.2344 86.7389 29.2344 78.1221C29.2344 75.4933 30.301 73.0157 32.1857 70.8404C32.2731 70.7386 32.3229 70.6129 32.3229 70.4824V63.2723C32.3229 53.1899 41.1305 45.0171 51.996 45.0171H56.242C45.3765 45.0171 36.5672 53.1899 36.5672 63.2723V70.484C36.5672 70.6129 36.5192 70.7386 36.43 70.8404C34.5471 73.0141 33.4804 75.4933 33.4804 78.1221C33.4804 86.3013 43.804 93.0118 56.9554 93.6929V93.6929Z" fill="#F9F3F1"/>
<path d="M56.2042 84.4112V87.2087H53.6318V84.4112C53.6318 83.7524 54.208 83.2178 54.918 83.2178C55.628 83.2178 56.2042 83.7524 56.2042 84.4112Z" fill="#F9F3F1"/>
<path d="M59.5255 80.9271C57.6631 80.9271 55.9995 80.1211 54.919 78.8654C53.8384 80.1211 52.175 80.9271 50.3125 80.9271C48.6026 80.9271 46.9791 80.239 45.8582 79.0393C45.393 78.5412 45.451 77.7874 45.9877 77.3557C46.5246 76.9242 47.3368 76.978 47.8021 77.4759C48.4338 78.1522 49.3489 78.5401 50.3125 78.5401C52.1433 78.5401 53.6328 77.1579 53.6328 75.4591C53.6328 74.8 54.2087 74.2656 54.919 74.2656C55.6294 74.2656 56.2051 74.8 56.2051 75.4591C56.2051 77.1579 57.6947 78.5401 59.5255 78.5401C60.4889 78.5401 61.404 78.1522 62.0359 77.4759C62.5011 76.9776 63.3135 76.9242 63.8502 77.3559C64.387 77.7876 64.4448 78.5414 63.9795 79.0395C62.8587 80.239 61.2352 80.9271 59.5255 80.9271Z" fill="#7A8C98"/>
<path d="M59.9329 70.7677V70.9427C59.9329 72.7393 58.8045 74.2892 57.1685 75.0164C56.5323 75.2996 55.8189 75.4588 55.0661 75.4588H54.7711C52.0839 75.4588 49.9043 73.4378 49.9043 70.9427V70.7677C49.9043 70.0643 50.5182 69.4946 51.2762 69.4946H58.561C59.319 69.4946 59.9329 70.0643 59.9329 70.7677Z" fill="#FE646F"/>
<path d="M57.1685 75.0164C56.5323 75.2996 55.8189 75.4588 55.0661 75.4588H54.7711C52.0839 75.4588 49.9043 73.4378 49.9043 70.9427V70.7677C49.9043 70.0643 50.5182 69.4946 51.2762 69.4946H55.157C54.8654 69.7572 54.6854 70.1248 54.6854 70.5321V70.7311C54.6854 72.5228 55.6714 74.0981 57.1685 75.0164V75.0164Z" fill="#FD4755"/>
</g>
</svg>
