<svg width="191" height="180" viewBox="0 0 191 180" fill="none" xmlns="http://www.w3.org/2000/svg">
<path d="M110.133 158.336H109.414V180H110.133V158.336Z" fill="#7A6576"/>
<path d="M90.7542 158.336H90.0352V180H90.7542V158.336Z" fill="#7A6576"/>
<path d="M176.991 162.667C183.11 97.6663 195.865 12.5135 117.291 1.42915C38.717 -9.6623 11.1644 44.2541 13.2064 147.549C13.2064 147.549 97.3958 167.709 176.991 162.667Z" fill="#5C4195"/>
<path d="M123.418 45.1206C123.418 34.2706 132.327 25.4727 143.32 25.4727C154.314 25.4727 163.223 34.2706 163.223 45.1206C163.223 55.9706 154.314 64.7756 143.32 64.7756C132.327 64.7756 123.418 55.9777 123.418 45.1206Z" fill="#F9F1EE"/>
<path d="M141.336 40.1228C141.336 42.672 142.702 44.7312 144.392 44.7312C146.081 44.7312 147.448 42.672 147.448 40.1228C147.448 37.5736 146.081 35.5215 144.392 35.5215C142.702 35.5215 141.336 37.5807 141.336 40.1228Z" fill="#7A6576"/>
<path d="M44.8438 36.5581C44.8438 25.7081 53.7524 16.9102 64.7389 16.9102C75.7255 16.9102 84.6412 25.7081 84.6412 36.5581C84.6412 47.4081 75.7327 56.2131 64.7389 56.2131C53.7452 56.2131 44.8438 47.4152 44.8438 36.5581Z" fill="#F9F1EE"/>
<path d="M62.7617 31.5506C62.7617 34.0998 64.1206 36.159 65.8103 36.159C67.5 36.159 68.8661 34.0998 68.8661 31.5506C68.8661 29.0014 67.5 26.9492 65.8103 26.9492C64.1206 26.9492 62.7617 29.0085 62.7617 31.5506Z" fill="#7A6576"/>
<path d="M159.949 163.37C97.6029 164.684 36.35 152.605 18.4609 148.735C33.3445 103.127 57.3812 100.606 92.124 103.929C123.955 106.968 152.183 130.408 159.956 163.37H159.949Z" fill="white"/>
<path d="M111.864 49.2617L102.546 65.6078L91.3438 46.9043L111.864 49.2617Z" fill="#846C30"/>
<path d="M111.787 48.9993L99.4198 63.2435L91.2734 46.5566L111.787 48.9993Z" fill="white"/>
<path d="M62.8237 67.6262L59.0117 113.514L128.086 119.11L131.897 73.2226L62.8237 67.6262Z" fill="#EFE8E6"/>
<path d="M191.001 122.292C165.296 92.3835 141.209 80.3902 126.678 77.0954C121.084 76.2362 120.106 85.8081 126.297 87.6259C122.256 90.7929 119.682 96.8286 125.563 102.232C121.939 107.132 119.365 107.224 121.867 114.36C124.406 121.596 155.827 155.46 190.994 122.299L191.001 122.292Z" fill="#9677D9"/>
<path d="M0 106.754C30.0836 81.1343 55.7596 72.9613 70.6289 71.9316C76.2875 71.9387 75.7554 81.5461 69.3562 82.3911C72.8578 86.1403 74.4468 92.4955 67.7959 96.9335C70.6073 102.323 73.131 102.813 69.5431 109.481C65.9049 116.241 29.5515 144.899 0 106.754Z" fill="#9677D9"/>
</svg>
