<svg width="99" height="96" viewBox="0 0 99 96" fill="none" xmlns="http://www.w3.org/2000/svg">
<path d="M49.6154 95.4914C76.534 95.4914 98.3558 74.1149 98.3558 47.7457C98.3558 21.3765 76.534 0 49.6154 0C22.6968 0 0.875 21.3765 0.875 47.7457C0.875 74.1149 22.6968 95.4914 49.6154 95.4914Z" fill="#3EB9E3"/>
<path d="M75.1197 15.2574C75.1197 15.0667 75.1846 14.9396 75.1197 14.7488C74.9899 13.7952 74.0813 13.0323 73.1078 13.1594C72.7833 13.223 72.4588 13.3502 72.1992 13.5409C70.6416 11.3157 67.8508 9.98062 64.9303 10.2985C62.529 10.5528 60.5171 11.8243 59.284 13.6045C58.8946 13.5409 58.5052 13.5409 58.1806 13.6045C55.3899 13.9223 53.3131 16.3382 53.5727 19.1356H78.3648C78.1052 17.2919 76.8071 15.8296 75.1197 15.2574Z" fill="white"/>
<path d="M90.3736 43.6774C90.3736 43.4866 90.4385 43.3595 90.3736 43.1688C90.2438 42.2151 89.3352 41.4522 88.3617 41.5794C88.0372 41.6429 87.7127 41.7701 87.4531 41.9608C85.8955 39.7356 83.1048 38.4005 80.1842 38.7184C77.7829 38.9727 75.771 40.2443 74.5379 42.0244C74.1485 41.9608 73.7591 41.9608 73.4346 42.0244C70.6438 42.3423 68.567 44.7582 68.8266 47.5555H93.6187C93.3591 45.7118 92.061 44.3131 90.3736 43.6774Z" fill="white"/>
<path d="M40.5937 71.0778C40.0096 72.9851 40.7235 75.0831 41.2427 76.9904C41.8268 79.0884 42.1513 81.3136 42.4758 83.4752C42.6056 82.7123 42.7354 81.9494 42.9301 81.1865C43.3195 82.0765 43.7089 82.9666 44.0983 83.9202C44.2281 82.1401 44.6824 80.36 45.3963 78.7706C46.8891 82.6487 48.1222 86.5904 49.0308 90.6593C48.7712 89.5149 49.0308 88.307 49.3553 87.1626C49.9394 84.8739 50.5884 82.6487 51.1725 80.36C51.5619 81.3136 51.8864 82.2672 52.146 83.2845C52.3407 82.0765 52.795 80.9321 53.444 79.9149C54.0281 82.5216 54.6122 85.1918 55.1963 87.7984C55.5208 84.1745 56.2996 80.6143 57.4679 77.1812C57.6626 78.0712 57.9871 78.9613 58.4414 79.8514C58.7659 76.7997 58.8957 73.6845 58.7659 70.6328C52.795 70.6964 46.8241 70.76 40.8533 70.8235" fill="#FBD303"/>
<path d="M41.4375 71.5879C42.2812 73.7495 42.6706 76.1018 42.6057 78.4541C42.7355 77.0554 42.9302 75.7203 43.06 74.3217C43.3196 75.5296 43.5792 76.674 43.8388 77.8819C43.7739 77.3733 43.8388 76.8011 44.0335 76.2925C44.4878 76.674 44.8123 77.1826 45.0719 77.6912C44.8772 77.5005 45.1368 77.1826 45.3964 77.1826C45.656 77.1826 46.305 78.0091 46.4997 78.0727C46.3699 77.1826 46.4997 76.229 46.8243 75.3389C47.9925 77.8819 48.6415 80.6793 48.7064 83.5402C48.9011 80.7429 49.8746 78.0727 50.7832 75.4025C51.3024 76.7376 51.7567 78.0727 52.0812 79.4713C52.1461 78.5813 52.5355 77.7548 53.1196 77.119C53.4441 77.7548 53.7037 78.327 53.9633 78.9627C54.0282 78.1362 54.2229 77.3097 54.6123 76.5468C55.0017 77.5005 55.2613 78.5813 55.456 79.5985C55.7156 77.119 55.9752 74.6395 56.4945 72.1601C51.9514 72.1601 47.3435 72.1601 42.8004 72.1601L41.4375 71.5879Z" fill="#F0582F"/>
<path d="M63.4381 23.2695H35.7904C33.3242 31.4073 33.3242 40.4987 34.2977 48.7H64.9308C65.9044 40.4987 65.9044 31.4073 63.4381 23.2695Z" fill="#F1F3F7"/>
<path d="M39.6186 50.416L24.1074 56.5829C20.3431 58.1087 18.2663 62.2412 19.3696 66.1829L24.7564 86.3365L41.6305 68.4081L39.6186 50.416Z" fill="#DEDEDF"/>
<path d="M59.6096 50.416L75.1208 56.5829C78.8851 58.1087 80.9619 62.2412 79.8586 66.1829L74.4718 86.3365L57.5977 68.4081L59.6096 50.416Z" fill="#DEDEDF"/>
<path d="M24.1079 59.3167L39.6192 53.1498L41.3715 68.6624L41.6311 68.3445L39.6192 50.416L24.1079 56.5829C20.5384 57.9816 18.5265 61.7326 19.1755 65.42C19.6947 62.7498 21.447 60.3975 24.1079 59.3167Z" fill="#FCFCFD"/>
<path d="M59.6096 53.1498L75.1208 59.3167C77.7818 60.3975 79.599 62.7498 80.0533 65.42C80.7023 61.669 78.6904 57.9816 75.1208 56.5829L59.6096 50.416L57.5977 68.3445L57.8573 68.6624L59.6096 53.1498Z" fill="#FCFCFD"/>
<path d="M49.614 45.5201C54.9906 45.5201 59.3491 41.2505 59.3491 35.9837C59.3491 30.7169 54.9906 26.4473 49.614 26.4473C44.2375 26.4473 39.8789 30.7169 39.8789 35.9837C39.8789 41.2505 44.2375 45.5201 49.614 45.5201Z" fill="#FCFCFD"/>
<path d="M49.6126 43.1043C53.6271 43.1043 56.8815 39.9164 56.8815 35.9838C56.8815 32.0513 53.6271 28.8633 49.6126 28.8633C45.5981 28.8633 42.3438 32.0513 42.3438 35.9838C42.3438 39.9164 45.5981 43.1043 49.6126 43.1043Z" fill="#4485C5"/>
<path d="M49.6129 4.83203C42.2791 9.28236 37.9957 15.8943 35.7891 23.2691H63.4367C61.2301 15.8943 56.9467 9.34594 49.6129 4.83203Z" fill="#F0582F"/>
<path d="M34.2969 48.6992C35.9843 62.686 40.4624 74.1297 40.4624 74.1297H58.8293C58.8293 74.1297 63.3075 62.686 64.9949 48.6992H34.2969Z" fill="#BDBDBE"/>
<path d="M24.8896 24.0316C24.9545 23.7773 24.9545 23.5865 24.9545 23.3322C24.8247 21.9335 23.5267 20.9799 22.1638 21.1071C21.7095 21.1706 21.2552 21.3614 20.8658 21.6157C18.9837 18.9455 15.8035 17.1653 12.3638 16.9746C9.18367 20.662 6.52274 24.8581 4.64062 29.4355H29.4976C29.0433 26.8925 27.291 24.8581 24.8896 24.0316Z" fill="white"/>
</svg>
