<svg width="98" height="96" viewBox="0 0 98 96" fill="none" xmlns="http://www.w3.org/2000/svg">
<path d="M49.375 96C76.1608 96 97.875 74.5097 97.875 48C97.875 21.4903 76.1608 0 49.375 0C22.5892 0 0.875 21.4903 0.875 48C0.875 74.5097 22.5892 96 49.375 96Z" fill="#9DE1F7"/>
<path d="M19.4375 48.0002C19.4375 55.2412 22.0622 61.8755 26.4211 67.022C26.4211 67.022 29.146 67.9715 29.5831 68.426C30.4587 69.3364 30.4832 70.9858 30.4832 70.9858C34.8925 74.5397 40.3438 76.8755 46.3137 77.4757C46.3137 77.4757 48.3412 75.7537 49.3745 75.7537V20.2466C48.4161 20.2466 46.5325 18.5034 46.5325 18.5034C40.477 19.0678 34.9463 21.4172 30.4832 25.0145C30.4832 25.0145 31.0925 27.9707 30.486 28.5499C29.7223 29.279 26.4211 28.9783 26.4211 28.9783C22.0622 34.1248 19.4375 40.7591 19.4375 48.0002Z" fill="#FFD300"/>
<path d="M49.375 20.2464V75.7534C50.3334 75.7534 52.217 77.4965 52.217 77.4965C58.2725 76.9322 63.8032 74.5828 68.2663 70.9854C68.2663 70.9854 67.8113 67.8932 68.4851 67.2364C69.1675 66.5711 72.3284 67.0219 72.3284 67.0219C76.6875 61.8752 79.312 55.2409 79.312 48C79.312 40.7589 76.6873 34.1246 72.3284 28.9779C72.3284 28.9779 69.1927 29.4553 68.5245 28.8019C67.8387 28.131 68.2663 25.0144 68.2663 25.0144C63.8032 21.4172 58.2725 19.0676 52.217 18.5034C52.217 18.5032 50.3334 20.2464 49.375 20.2464Z" fill="#FF9E00"/>
<path d="M41.1841 48.0001C41.1841 38.8154 37.03 30.5737 30.4845 25.0156C29.007 26.2066 27.6467 27.5343 26.4229 28.9792C31.9632 33.5051 35.5005 40.3514 35.5005 47.9999C35.5005 55.6484 31.9632 62.4948 26.4229 67.0207C27.6467 68.4657 29.007 69.7934 30.4845 70.9842C37.0298 65.4266 41.1841 57.1848 41.1841 48.0001Z" fill="white"/>
<path d="M72.3269 67.0207C66.7863 62.4948 63.249 55.6484 63.249 47.9999C63.249 40.3514 66.7863 33.5051 72.3267 28.9792C71.1028 27.5341 69.7425 26.2064 68.265 25.0156C61.7196 30.5735 57.5654 38.8152 57.5654 47.9999C57.5654 57.1846 61.7196 65.4264 68.265 70.9842C69.7427 69.7934 71.103 68.4656 72.3269 67.0207Z" fill="#E3EAEE"/>
<path d="M46.5332 18.5053V77.4948C47.4687 77.582 48.4164 77.6285 49.375 77.6285L51.459 49.2547L49.375 18.3716C48.4164 18.3718 47.4687 18.4183 46.5332 18.5053Z" fill="white"/>
<path d="M49.375 18.3716V77.6285C50.3336 77.6285 51.2813 77.582 52.2168 77.4948V18.5051C51.2813 18.4181 50.3336 18.3716 49.375 18.3716Z" fill="#E3EAEE"/>
</svg>
