<svg width="178" height="176" viewBox="0 0 178 176" fill="none" xmlns="http://www.w3.org/2000/svg">
<g filter="url(#filter0_ddd_1171_34351)">
<path d="M89.416 151C125.085 151 154 122.346 154 87C154 51.6538 125.085 23 89.416 23C53.7473 23 24.832 51.6538 24.832 87C24.832 122.346 53.7473 151 89.416 151Z" fill="#00BECE"/>
<path d="M153 87C153 121.785 124.541 150 89.416 150C54.291 150 25.832 121.785 25.832 87C25.832 52.2146 54.291 24 89.416 24C124.541 24 153 52.2146 153 87Z" stroke="#5C4195" stroke-width="2"/>
</g>
<path d="M93.9188 96.6851H93.6934V103.486H93.9188V96.6851Z" fill="#7A6576"/>
<path d="M87.8427 96.6851H87.6172V103.486H87.8427V96.6851Z" fill="#7A6576"/>
<path d="M114.886 98.0447C116.805 77.6382 120.804 50.9051 96.1655 47.4252C71.5265 43.9432 62.8867 60.8698 63.527 93.2986C63.527 93.2986 89.9268 99.6275 114.886 98.0447Z" fill="#5C4195"/>
<path d="M98.0859 61.142C98.0859 57.7357 100.879 54.9736 104.327 54.9736C107.774 54.9736 110.568 57.7357 110.568 61.142C110.568 64.5482 107.774 67.3125 104.327 67.3125C100.879 67.3125 98.0859 64.5505 98.0859 61.142Z" fill="#F9F1EE"/>
<path d="M103.705 59.5725C103.705 60.3728 104.133 61.0193 104.663 61.0193C105.193 61.0193 105.622 60.3728 105.622 59.5725C105.622 58.7722 105.193 58.1279 104.663 58.1279C104.133 58.1279 103.705 58.7744 103.705 59.5725Z" fill="#7A6576"/>
<path d="M73.4473 58.4535C73.4473 55.0472 76.2408 52.2852 79.6859 52.2852C83.131 52.2852 85.9268 55.0472 85.9268 58.4535C85.9268 61.8598 83.1333 64.624 79.6859 64.624C76.2385 64.624 73.4473 61.862 73.4473 58.4535Z" fill="#F9F1EE"/>
<path d="M79.0664 56.8816C79.0664 57.6819 79.4925 58.3283 80.0224 58.3283C80.5522 58.3283 80.9806 57.6819 80.9806 56.8816C80.9806 56.0813 80.5522 55.437 80.0224 55.437C79.4925 55.437 79.0664 56.0835 79.0664 56.8816Z" fill="#7A6576"/>
<path d="M109.541 98.2655C89.9909 98.6779 70.7834 94.8859 65.1738 93.671C69.841 79.3525 77.3783 78.5612 88.2728 79.6045C98.2542 80.5586 107.106 87.9173 109.543 98.2655H109.541Z" fill="white"/>
<path d="M94.4621 62.4413L91.5401 67.573L88.0273 61.7012L94.4621 62.4413Z" fill="#846C30"/>
<path d="M94.4384 62.3591L90.5604 66.831L88.0059 61.5923L94.4384 62.3591Z" fill="white"/>
<path d="M79.084 68.2072L77.8887 82.6133L99.5486 84.3702L100.744 69.9642L79.084 68.2072Z" fill="#EFE8E6"/>
<path d="M119.278 85.3693C111.218 75.9797 103.665 72.2145 99.1079 71.1802C97.3538 70.9104 97.0472 73.9155 98.9884 74.4861C97.7213 75.4804 96.9141 77.3752 98.7585 79.0717C97.6221 80.6099 96.8149 80.6389 97.5996 82.8793C98.3955 85.1509 108.248 95.7821 119.276 85.3716L119.278 85.3693Z" fill="#9677D9"/>
<path d="M59.3848 80.4918C68.8183 72.4487 76.8697 69.8828 81.5323 69.5596C83.3067 69.5618 83.1399 72.578 81.1332 72.8432C82.2313 74.0203 82.7295 76.0155 80.644 77.4087C81.5255 79.1007 82.3169 79.2546 81.1919 81.3478C80.051 83.4701 68.6514 92.4673 59.3848 80.4918Z" fill="#9677D9"/>
<path d="M86.5872 48.0541L86.2588 41.9714L99.7124 40.9745L99.0301 48.3527L86.5872 48.0541Z" fill="#696A6E"/>
<path d="M77.6962 40.4835L92.2306 34.0381L108.568 37.9752L108.729 39.3203L94.1634 43.935L77.8345 41.4331L77.6962 40.4835Z" fill="#474344"/>
<path d="M86.5878 48.054L99.0307 48.3526L99.1904 46.6461L86.4875 46.196L86.5878 48.054Z" fill="#585455"/>
<path d="M104.558 45.1899L103.937 43.0452L105.235 38.2549L93.903 37.6756L93.8939 37.8532L105.005 38.4198L103.841 42.7148L103.804 42.5893L101.881 44.9401L102.02 45.0521L103.726 42.9655L103.751 43.0473L103.024 45.7295L103.197 45.7754L103.846 43.3794L104.385 45.2378L104.558 45.1899Z" fill="#7A6576"/>
<path d="M64.626 117.261V128.636H62.6807V117.261H64.626ZM68.1963 117.261V118.824H59.1416V117.261H68.1963ZM72.6354 128.792C72.0104 128.792 71.4453 128.691 70.9401 128.488C70.4401 128.279 70.013 127.99 69.6588 127.621C69.3099 127.251 69.0416 126.816 68.8541 126.316C68.6666 125.816 68.5729 125.277 68.5729 124.699V124.386C68.5729 123.725 68.6692 123.126 68.862 122.589C69.0547 122.053 69.3229 121.595 69.6666 121.214C70.0104 120.829 70.4166 120.535 70.8854 120.332C71.3541 120.128 71.862 120.027 72.4088 120.027C73.013 120.027 73.5416 120.128 73.9948 120.332C74.4479 120.535 74.8229 120.821 75.1198 121.191C75.4218 121.556 75.6458 121.99 75.7916 122.496C75.9427 123.001 76.0182 123.558 76.0182 124.167V124.972H69.487V123.621H74.1588V123.472C74.1484 123.134 74.0807 122.816 73.9557 122.519C73.8359 122.222 73.651 121.983 73.401 121.8C73.151 121.618 72.8177 121.527 72.401 121.527C72.0885 121.527 71.8099 121.595 71.5651 121.73C71.3255 121.86 71.125 122.05 70.9635 122.3C70.8021 122.55 70.6771 122.852 70.5885 123.207C70.5052 123.556 70.4635 123.949 70.4635 124.386V124.699C70.4635 125.069 70.513 125.412 70.612 125.73C70.7161 126.042 70.8672 126.316 71.0651 126.55C71.263 126.785 71.5026 126.97 71.7838 127.105C72.0651 127.235 72.3854 127.3 72.7448 127.3C73.1979 127.3 73.6015 127.209 73.9557 127.027C74.3099 126.845 74.6172 126.587 74.8776 126.253L75.8698 127.214C75.6875 127.48 75.4505 127.735 75.1588 127.98C74.8672 128.22 74.5104 128.415 74.0885 128.566C73.6718 128.717 73.1875 128.792 72.6354 128.792ZM82.4026 126.941V122.91C82.4026 122.608 82.3479 122.347 82.2385 122.128C82.1291 121.91 81.9625 121.74 81.7385 121.621C81.5198 121.501 81.2437 121.441 80.9104 121.441C80.6031 121.441 80.3375 121.493 80.1135 121.597C79.8896 121.701 79.7151 121.842 79.5901 122.019C79.4651 122.196 79.4026 122.397 79.4026 122.621H77.5276C77.5276 122.287 77.6083 121.964 77.7698 121.652C77.9312 121.339 78.1656 121.061 78.4729 120.816C78.7802 120.571 79.1474 120.378 79.5745 120.238C80.0015 120.097 80.4807 120.027 81.012 120.027C81.6474 120.027 82.2099 120.134 82.6995 120.347C83.1942 120.561 83.5823 120.884 83.8635 121.316C84.15 121.743 84.2932 122.279 84.2932 122.925V126.683C84.2932 127.069 84.3192 127.415 84.3713 127.722C84.4286 128.024 84.5093 128.287 84.6135 128.511V128.636H82.6838C82.5953 128.433 82.525 128.175 82.4729 127.863C82.426 127.545 82.4026 127.238 82.4026 126.941ZM82.676 123.496L82.6916 124.66H81.3401C80.9911 124.66 80.6838 124.694 80.4182 124.761C80.1526 124.824 79.9312 124.917 79.7541 125.042C79.5771 125.167 79.4442 125.319 79.3557 125.496C79.2672 125.673 79.2229 125.873 79.2229 126.097C79.2229 126.321 79.275 126.527 79.3791 126.714C79.4833 126.897 79.6343 127.04 79.8323 127.144C80.0354 127.248 80.2802 127.3 80.5666 127.3C80.9521 127.3 81.288 127.222 81.5745 127.066C81.8661 126.904 82.0953 126.709 82.262 126.48C82.4286 126.246 82.5172 126.024 82.5276 125.816L83.137 126.652C83.0745 126.865 82.9677 127.095 82.8166 127.339C82.6656 127.584 82.4677 127.819 82.2229 128.042C81.9833 128.261 81.6942 128.441 81.3557 128.582C81.0224 128.722 80.637 128.792 80.1995 128.792C79.6474 128.792 79.1552 128.683 78.7229 128.464C78.2906 128.24 77.9521 127.941 77.7073 127.566C77.4625 127.186 77.3401 126.756 77.3401 126.277C77.3401 125.829 77.4234 125.433 77.5901 125.089C77.762 124.74 78.012 124.449 78.3401 124.214C78.6734 123.98 79.0797 123.803 79.5588 123.683C80.038 123.558 80.5849 123.496 81.1995 123.496H82.676ZM89.8651 127.292C90.1724 127.292 90.4484 127.233 90.6932 127.113C90.9432 126.988 91.1437 126.816 91.2948 126.597C91.451 126.378 91.537 126.126 91.5526 125.839H93.326C93.3156 126.386 93.1541 126.884 92.8416 127.332C92.5291 127.779 92.1151 128.136 91.5995 128.402C91.0838 128.662 90.5135 128.792 89.8885 128.792C89.2427 128.792 88.6802 128.683 88.201 128.464C87.7218 128.24 87.3234 127.933 87.0057 127.542C86.688 127.152 86.4484 126.701 86.287 126.191C86.1307 125.681 86.0526 125.134 86.0526 124.55V124.277C86.0526 123.694 86.1307 123.147 86.287 122.636C86.4484 122.121 86.688 121.667 87.0057 121.277C87.3234 120.886 87.7218 120.582 88.201 120.363C88.6802 120.139 89.2401 120.027 89.8807 120.027C90.5578 120.027 91.1515 120.162 91.662 120.433C92.1724 120.699 92.5734 121.071 92.8651 121.55C93.162 122.024 93.3156 122.576 93.326 123.207H91.5526C91.537 122.894 91.4588 122.613 91.3182 122.363C91.1828 122.108 90.9901 121.904 90.7401 121.753C90.4953 121.602 90.201 121.527 89.8573 121.527C89.4771 121.527 89.162 121.605 88.912 121.761C88.662 121.912 88.4666 122.121 88.326 122.386C88.1854 122.647 88.0838 122.941 88.0213 123.269C87.964 123.592 87.9354 123.928 87.9354 124.277V124.55C87.9354 124.899 87.964 125.238 88.0213 125.566C88.0786 125.894 88.1776 126.188 88.3182 126.449C88.464 126.704 88.662 126.91 88.912 127.066C89.162 127.217 89.4797 127.292 89.8651 127.292ZM96.7807 116.636V128.636H94.9057V116.636H96.7807ZM96.4526 124.097L95.8432 124.089C95.8484 123.506 95.9291 122.967 96.0854 122.472C96.2468 121.977 96.4708 121.548 96.7573 121.183C97.0489 120.813 97.3979 120.529 97.8041 120.332C98.2104 120.128 98.6609 120.027 99.1557 120.027C99.5724 120.027 99.9474 120.084 100.281 120.199C100.619 120.313 100.911 120.498 101.156 120.753C101.4 121.003 101.585 121.332 101.71 121.738C101.841 122.139 101.906 122.628 101.906 123.207V128.636H100.015V123.191C100.015 122.785 99.9552 122.462 99.8354 122.222C99.7208 121.983 99.5515 121.811 99.3276 121.707C99.1036 121.597 98.8302 121.542 98.5073 121.542C98.1687 121.542 97.8692 121.61 97.6088 121.746C97.3536 121.881 97.1401 122.066 96.9682 122.3C96.7963 122.535 96.6661 122.806 96.5776 123.113C96.4942 123.42 96.4526 123.748 96.4526 124.097ZM107.689 128.792C107.064 128.792 106.498 128.691 105.993 128.488C105.493 128.279 105.066 127.99 104.712 127.621C104.363 127.251 104.095 126.816 103.907 126.316C103.72 125.816 103.626 125.277 103.626 124.699V124.386C103.626 123.725 103.722 123.126 103.915 122.589C104.108 122.053 104.376 121.595 104.72 121.214C105.064 120.829 105.47 120.535 105.939 120.332C106.407 120.128 106.915 120.027 107.462 120.027C108.066 120.027 108.595 120.128 109.048 120.332C109.501 120.535 109.876 120.821 110.173 121.191C110.475 121.556 110.699 121.99 110.845 122.496C110.996 123.001 111.071 123.558 111.071 124.167V124.972H104.54V123.621H109.212V123.472C109.202 123.134 109.134 122.816 109.009 122.519C108.889 122.222 108.704 121.983 108.454 121.8C108.204 121.618 107.871 121.527 107.454 121.527C107.142 121.527 106.863 121.595 106.618 121.73C106.379 121.86 106.178 122.05 106.017 122.3C105.855 122.55 105.73 122.852 105.642 123.207C105.558 123.556 105.517 123.949 105.517 124.386V124.699C105.517 125.069 105.566 125.412 105.665 125.73C105.769 126.042 105.92 126.316 106.118 126.55C106.316 126.785 106.556 126.97 106.837 127.105C107.118 127.235 107.439 127.3 107.798 127.3C108.251 127.3 108.655 127.209 109.009 127.027C109.363 126.845 109.67 126.587 109.931 126.253L110.923 127.214C110.741 127.48 110.504 127.735 110.212 127.98C109.92 128.22 109.564 128.415 109.142 128.566C108.725 128.717 108.241 128.792 107.689 128.792ZM114.581 121.792V128.636H112.698V120.183H114.495L114.581 121.792ZM117.167 120.128L117.151 121.878C117.036 121.858 116.911 121.842 116.776 121.832C116.646 121.821 116.516 121.816 116.385 121.816C116.062 121.816 115.779 121.863 115.534 121.957C115.289 122.045 115.083 122.175 114.917 122.347C114.755 122.514 114.63 122.717 114.542 122.957C114.453 123.196 114.401 123.464 114.385 123.761L113.956 123.792C113.956 123.261 114.008 122.769 114.112 122.316C114.216 121.863 114.372 121.464 114.581 121.121C114.794 120.777 115.06 120.509 115.378 120.316C115.7 120.123 116.073 120.027 116.495 120.027C116.609 120.027 116.732 120.037 116.862 120.058C116.997 120.079 117.099 120.102 117.167 120.128Z" fill="#263238"/>
<defs>
<filter id="filter0_ddd_1171_34351" x="0.832031" y="0" width="177.168" height="176" filterUnits="userSpaceOnUse" color-interpolation-filters="sRGB">
<feFlood flood-opacity="0" result="BackgroundImageFix"/>
<feColorMatrix in="SourceAlpha" type="matrix" values="0 0 0 0 0 0 0 0 0 0 0 0 0 0 0 0 0 0 127 0" result="hardAlpha"/>
<feOffset dy="1"/>
<feGaussianBlur stdDeviation="12"/>
<feColorMatrix type="matrix" values="0 0 0 0 0 0 0 0 0 0 0 0 0 0 0 0 0 0 0.12 0"/>
<feBlend mode="normal" in2="BackgroundImageFix" result="effect1_dropShadow_1171_34351"/>
<feColorMatrix in="SourceAlpha" type="matrix" values="0 0 0 0 0 0 0 0 0 0 0 0 0 0 0 0 0 0 127 0" result="hardAlpha"/>
<feOffset dy="8"/>
<feGaussianBlur stdDeviation="8"/>
<feColorMatrix type="matrix" values="0 0 0 0 0 0 0 0 0 0 0 0 0 0 0 0 0 0 0.12 0"/>
<feBlend mode="normal" in2="effect1_dropShadow_1171_34351" result="effect2_dropShadow_1171_34351"/>
<feColorMatrix in="SourceAlpha" type="matrix" values="0 0 0 0 0 0 0 0 0 0 0 0 0 0 0 0 0 0 127 0" result="hardAlpha"/>
<feOffset dy="6"/>
<feGaussianBlur stdDeviation="6"/>
<feColorMatrix type="matrix" values="0 0 0 0 0 0 0 0 0 0 0 0 0 0 0 0 0 0 0.12 0"/>
<feBlend mode="normal" in2="effect2_dropShadow_1171_34351" result="effect3_dropShadow_1171_34351"/>
<feBlend mode="normal" in="SourceGraphic" in2="effect3_dropShadow_1171_34351" result="shape"/>
</filter>
</defs>
</svg>
