<svg width="336" height="396" viewBox="0 0 336 396" fill="none" xmlns="http://www.w3.org/2000/svg">
<g filter="url(#filter0_ddd_489_1717)">
<rect x="8" y="7" width="320" height="380" rx="160" fill="white" fill-opacity="0.75"/>
<path d="M202.726 130.519C248.687 139.309 275.118 157.001 286.976 170.004C291.108 175.254 281.75 181.909 276.268 176.607C275.327 182.633 270.555 188.839 261.539 185.987C258.557 192.602 259.952 195.308 251.093 196.942C242.119 198.598 188.723 186.267 202.72 130.519H202.726Z" fill="#9677D9"/>
<path d="M117.571 138.696C75.7828 159.824 55.2173 184.131 47.3817 199.904C44.8415 206.088 55.6707 209.908 59.4838 203.299C62.0356 208.835 68.325 213.484 76.2129 208.252C80.8922 213.787 80.2877 216.774 89.2509 215.905C98.342 215.024 146.297 188.43 117.565 138.702L117.571 138.696Z" fill="#9677D9"/>
<path d="M160.71 230.202H160.129V247.999H160.71V230.202Z" fill="#7A6576"/>
<path d="M176.374 230.202H175.793V247.999H176.374V230.202Z" fill="#7A6576"/>
<path d="M128.739 110.499L122.555 91.4595L163.802 76.9756L167.923 100.979L128.739 110.499Z" fill="#696A6E"/>
<path d="M106.074 233.766C101.127 180.369 90.8156 110.416 154.337 101.311C217.859 92.1992 240.133 136.491 238.483 221.347C238.483 221.347 170.421 237.908 106.074 233.766Z" fill="#6B4CAB"/>
<path d="M149.382 154.702C149.382 145.789 142.181 138.562 133.293 138.562C124.405 138.562 117.203 145.789 117.203 154.702C117.203 163.615 124.405 170.848 133.293 170.848C142.181 170.848 149.382 163.621 149.382 154.702Z" fill="#F9F1EE"/>
<path d="M146.525 150.595C146.525 152.689 145.42 154.381 144.06 154.381C142.7 154.381 141.59 152.689 141.59 150.595C141.59 148.501 142.694 146.815 144.06 146.815C145.426 146.815 146.525 148.507 146.525 150.595Z" fill="#7A6576"/>
<path d="M212.904 147.663C212.904 138.75 205.702 131.522 196.82 131.522C187.938 131.522 180.73 138.75 180.73 147.663C180.73 156.576 187.932 163.809 196.82 163.809C205.708 163.809 212.904 156.582 212.904 147.663Z" fill="#F9F1EE"/>
<path d="M210.05 143.554C210.05 145.648 208.946 147.34 207.586 147.34C206.226 147.34 205.121 145.648 205.121 143.554C205.121 141.46 206.22 139.774 207.586 139.774C208.952 139.774 210.05 141.466 210.05 143.554Z" fill="#7A6576"/>
<path d="M159.727 163.028L169.608 174.823L175.671 158.041L159.727 163.028Z" fill="#846C30"/>
<path d="M159.75 162.798L171.736 172.446L175.677 157.746L159.75 162.798Z" fill="#E2C464"/>
<path d="M94.4961 93.9377L134.505 61.2425L188.959 60L190.604 64.1358L148.944 91.0445L95.7342 96.8369L94.4961 93.9377Z" fill="#474344"/>
<path d="M128.737 110.499L167.921 100.979L166.973 95.4258L126.848 104.683L128.737 110.499Z" fill="#585455"/>
<path d="M119.85 234.338C170.252 235.417 219.771 225.495 234.233 222.316C222.2 184.849 202.768 182.778 174.681 185.508C148.954 188.004 126.127 207.26 119.844 234.338H119.85Z" fill="white"/>
<path d="M182.535 86.2864L178.774 79.9982V63.6943L142.828 71.3884L142.95 71.96L178.193 64.4118V79.0299L177.972 78.6624L173.95 87.7447L174.479 87.9839L178.048 79.9224L178.193 80.1615V89.2906H178.774V81.1357L182.035 86.5839L182.535 86.2864Z" fill="#7A6576"/>
<path d="M128.785 318.781V333H125.865V318.781H128.785ZM133.16 318.781V321.076H121.559V318.781H133.16ZM145.121 330.715V333H137.553V330.715H145.121ZM138.51 318.781V333H135.58V318.781H138.51ZM144.135 324.572V326.799H137.553V324.572H144.135ZM145.111 318.781V321.076H137.553V318.781H145.111ZM153.361 321.213L149.494 333H146.379L151.662 318.781H153.645L153.361 321.213ZM156.574 333L152.697 321.213L152.385 318.781H154.387L159.699 333H156.574ZM156.398 327.707V330.002H148.889V327.707H156.398ZM169.834 328.283H172.754C172.695 329.24 172.432 330.09 171.963 330.832C171.501 331.574 170.853 332.154 170.02 332.57C169.193 332.987 168.197 333.195 167.031 333.195C166.12 333.195 165.303 333.039 164.58 332.727C163.857 332.408 163.239 331.952 162.725 331.359C162.217 330.767 161.829 330.051 161.562 329.211C161.296 328.371 161.162 327.43 161.162 326.389V325.402C161.162 324.361 161.299 323.42 161.572 322.58C161.852 321.734 162.249 321.014 162.764 320.422C163.285 319.829 163.906 319.374 164.629 319.055C165.352 318.736 166.159 318.576 167.051 318.576C168.236 318.576 169.235 318.791 170.049 319.221C170.869 319.65 171.504 320.243 171.953 320.998C172.409 321.753 172.682 322.613 172.773 323.576H169.844C169.811 323.003 169.697 322.518 169.502 322.121C169.307 321.717 169.01 321.415 168.613 321.213C168.223 321.005 167.702 320.9 167.051 320.9C166.562 320.9 166.136 320.992 165.771 321.174C165.407 321.356 165.101 321.633 164.854 322.004C164.606 322.375 164.421 322.844 164.297 323.41C164.18 323.97 164.121 324.628 164.121 325.383V326.389C164.121 327.124 164.176 327.772 164.287 328.332C164.398 328.885 164.567 329.354 164.795 329.738C165.029 330.116 165.329 330.402 165.693 330.598C166.064 330.786 166.51 330.881 167.031 330.881C167.643 330.881 168.148 330.783 168.545 330.588C168.942 330.393 169.245 330.103 169.453 329.719C169.668 329.335 169.795 328.856 169.834 328.283ZM184.91 324.572V326.857H177.488V324.572H184.91ZM178.357 318.781V333H175.428V318.781H178.357ZM187 318.781V333H184.08V318.781H187ZM199.84 330.715V333H192.271V330.715H199.84ZM193.229 318.781V333H190.299V318.781H193.229ZM198.854 324.572V326.799H192.271V324.572H198.854ZM199.83 318.781V321.076H192.271V318.781H199.83ZM202.299 318.781H207.602C208.689 318.781 209.623 318.944 210.404 319.27C211.192 319.595 211.798 320.077 212.221 320.715C212.644 321.353 212.855 322.137 212.855 323.068C212.855 323.83 212.725 324.484 212.465 325.031C212.211 325.572 211.85 326.024 211.381 326.389C210.919 326.747 210.375 327.033 209.75 327.248L208.822 327.736H204.213L204.193 325.451H207.621C208.135 325.451 208.562 325.36 208.9 325.178C209.239 324.995 209.493 324.742 209.662 324.416C209.838 324.09 209.926 323.713 209.926 323.283C209.926 322.827 209.841 322.434 209.672 322.102C209.503 321.77 209.245 321.516 208.9 321.34C208.555 321.164 208.122 321.076 207.602 321.076H205.229V333H202.299V318.781ZM210.248 333L207.006 326.662L210.102 326.643L213.383 332.863V333H210.248Z" fill="#263238"/>
<rect x="8.5" y="7.5" width="319" height="379" rx="159.5" stroke="#6750A4"/>
</g>
<defs>
<filter id="filter0_ddd_489_1717" x="0" y="0" width="336" height="396" filterUnits="userSpaceOnUse" color-interpolation-filters="sRGB">
<feFlood flood-opacity="0" result="BackgroundImageFix"/>
<feColorMatrix in="SourceAlpha" type="matrix" values="0 0 0 0 0 0 0 0 0 0 0 0 0 0 0 0 0 0 127 0" result="hardAlpha"/>
<feOffset dy="1"/>
<feGaussianBlur stdDeviation="4"/>
<feColorMatrix type="matrix" values="0 0 0 0 0 0 0 0 0 0 0 0 0 0 0 0 0 0 0.1 0"/>
<feBlend mode="normal" in2="BackgroundImageFix" result="effect1_dropShadow_489_1717"/>
<feColorMatrix in="SourceAlpha" type="matrix" values="0 0 0 0 0 0 0 0 0 0 0 0 0 0 0 0 0 0 127 0" result="hardAlpha"/>
<feOffset dy="2"/>
<feGaussianBlur stdDeviation="2"/>
<feColorMatrix type="matrix" values="0 0 0 0 0 0 0 0 0 0 0 0 0 0 0 0 0 0 0.12 0"/>
<feBlend mode="normal" in2="effect1_dropShadow_489_1717" result="effect2_dropShadow_489_1717"/>
<feColorMatrix in="SourceAlpha" type="matrix" values="0 0 0 0 0 0 0 0 0 0 0 0 0 0 0 0 0 0 127 0" result="hardAlpha"/>
<feOffset dy="1"/>
<feGaussianBlur stdDeviation="1"/>
<feColorMatrix type="matrix" values="0 0 0 0 0 0 0 0 0 0 0 0 0 0 0 0 0 0 0.16 0"/>
<feBlend mode="normal" in2="effect2_dropShadow_489_1717" result="effect3_dropShadow_489_1717"/>
<feBlend mode="normal" in="SourceGraphic" in2="effect3_dropShadow_489_1717" result="shape"/>
</filter>
</defs>
</svg>
