<svg width="137" height="137" viewBox="0 0 137 137" fill="none" xmlns="http://www.w3.org/2000/svg">
<g filter="url(#filter0_ddd_817_53563)">
<g clip-path="url(#clip0_817_53563)">
<path d="M68.905 123.109C99.8732 123.109 124.978 98.0129 124.978 67.0547C124.978 36.0965 99.8732 11 68.905 11C37.9367 11 12.832 36.0965 12.832 67.0547C12.832 98.0129 37.9367 123.109 68.905 123.109Z" fill="#00BECE"/>
<path d="M72.8149 75.5371H72.6191V81.4942H72.8149V75.5371Z" fill="#7A6576"/>
<path d="M67.5395 75.5371H67.3438V81.4942H67.5395V75.5371Z" fill="#7A6576"/>
<path d="M91.0196 76.7283C92.6855 58.8551 96.1582 35.4408 74.7662 32.393C53.3743 29.3432 45.873 44.1685 46.4289 72.5714C46.4289 72.5714 69.3497 78.1145 91.0196 76.7283Z" fill="#5C4195"/>
<path d="M76.4336 44.4065C76.4336 41.4231 78.859 39.0039 81.852 39.0039C84.8451 39.0039 87.2705 41.4231 87.2705 44.4065C87.2705 47.3899 84.8451 49.811 81.852 49.811C78.859 49.811 76.4336 47.3918 76.4336 44.4065Z" fill="#F9F1EE"/>
<path d="M81.3105 43.0323C81.3105 43.7332 81.6825 44.2995 82.1425 44.2995C82.6025 44.2995 82.9745 43.7332 82.9745 43.0323C82.9745 42.3314 82.6025 41.7671 82.1425 41.7671C81.6825 41.7671 81.3105 42.3333 81.3105 43.0323Z" fill="#7A6576"/>
<path d="M55.041 42.052C55.041 39.0686 57.4664 36.6494 60.4575 36.6494C63.4486 36.6494 65.876 39.0686 65.876 42.052C65.876 45.0354 63.4506 47.4565 60.4575 47.4565C57.4645 47.4565 55.041 45.0373 55.041 42.052Z" fill="#F9F1EE"/>
<path d="M59.9199 40.6754C59.9199 41.3763 60.2899 41.9425 60.7499 41.9425C61.2099 41.9425 61.5819 41.3763 61.5819 40.6754C61.5819 39.9744 61.2099 39.4102 60.7499 39.4102C60.2899 39.4102 59.9199 39.9764 59.9199 40.6754Z" fill="#7A6576"/>
<path d="M86.3798 76.9216C69.406 77.2829 52.7297 73.9617 47.8594 72.8976C51.9115 60.3567 58.4555 59.6636 67.9143 60.5773C76.5803 61.413 84.2656 67.8582 86.3817 76.9216H86.3798Z" fill="white"/>
<path d="M73.288 45.5452L70.751 50.0398L67.7012 44.897L73.288 45.5452Z" fill="#846C30"/>
<path d="M73.2665 45.4729L69.8995 49.3896L67.6816 44.8013L73.2665 45.4729Z" fill="white"/>
<path d="M59.9362 50.5948L58.8984 63.2124L77.704 64.7512L78.7418 52.1336L59.9362 50.5948Z" fill="#EFE8E6"/>
<path d="M94.8313 65.6262C87.8331 57.4023 81.2753 54.1045 77.3192 53.1986C75.7962 52.9623 75.53 55.5943 77.2154 56.0941C76.1153 56.9649 75.4145 58.6245 77.0157 60.1104C76.0291 61.4576 75.3283 61.483 76.0096 63.4453C76.7006 65.4348 85.255 74.7463 94.8293 65.6281L94.8313 65.6262Z" fill="#9677D9"/>
<path d="M42.832 61.3543C51.0224 54.3097 58.0127 52.0624 62.0609 51.7793C63.6015 51.7812 63.4566 54.423 61.7144 54.6553C62.6677 55.6862 63.1004 57.4337 61.2896 58.654C62.055 60.136 62.7421 60.2707 61.7653 62.1041C60.7748 63.9629 50.8775 71.8431 42.832 61.3543Z" fill="#9677D9"/>
<path d="M66.4498 32.944L66.1647 27.6164L77.8453 26.7433L77.253 33.2055L66.4498 32.944Z" fill="#696A6E"/>
<path d="M58.73 26.313L71.349 20.6678L85.5336 24.1161L85.6736 25.2942L73.0272 29.336L58.8502 27.1447L58.73 26.313Z" fill="#474344"/>
<path d="M66.4491 32.9437L77.2522 33.2052L77.3908 31.7106L66.362 31.3163L66.4491 32.9437Z" fill="#585455"/>
<path d="M82.0527 30.4354L81.5137 28.5569L82.6408 24.3613L72.8021 23.854L72.7942 24.0095L82.4407 24.5058L81.4301 28.2675L81.3983 28.1577L79.729 30.2166L79.8494 30.3147L81.3308 28.4871L81.3519 28.5587L80.7208 30.908L80.8713 30.9482L81.435 28.8496L81.9027 30.4773L82.0527 30.4354Z" fill="#7A6576"/>
</g>
<path d="M44.291 93.1265V104.501H42.3457V93.1265H44.291ZM47.8613 93.1265V94.689H38.8066V93.1265H47.8613ZM52.3004 104.658C51.6754 104.658 51.1103 104.556 50.6051 104.353C50.1051 104.145 49.678 103.856 49.3238 103.486C48.9748 103.116 48.7066 102.681 48.5191 102.181C48.3316 101.681 48.2379 101.142 48.2379 100.564V100.251C48.2379 99.59 48.3342 98.991 48.5269 98.4546C48.7196 97.9181 48.9879 97.4598 49.3316 97.0796C49.6754 96.6942 50.0816 96.3999 50.5504 96.1968C51.0191 95.9937 51.5269 95.8921 52.0738 95.8921C52.678 95.8921 53.2066 95.9937 53.6597 96.1968C54.1129 96.3999 54.4879 96.6864 54.7847 97.0562C55.0868 97.4207 55.3108 97.8556 55.4566 98.3608C55.6077 98.866 55.6832 99.4233 55.6832 100.033V100.837H49.1519V99.4858H53.8238V99.3374C53.8134 98.9989 53.7457 98.6812 53.6207 98.3843C53.5009 98.0874 53.316 97.8478 53.066 97.6655C52.816 97.4832 52.4827 97.3921 52.066 97.3921C51.7535 97.3921 51.4748 97.4598 51.2301 97.5952C50.9905 97.7254 50.79 97.9155 50.6285 98.1655C50.467 98.4155 50.342 98.7176 50.2535 99.0718C50.1702 99.4207 50.1285 99.814 50.1285 100.251V100.564C50.1285 100.934 50.178 101.278 50.2769 101.595C50.3811 101.908 50.5321 102.181 50.7301 102.416C50.928 102.65 51.1676 102.835 51.4488 102.97C51.7301 103.1 52.0504 103.166 52.4097 103.166C52.8629 103.166 53.2665 103.074 53.6207 102.892C53.9748 102.71 54.2821 102.452 54.5426 102.119L55.5347 103.08C55.3525 103.345 55.1155 103.6 54.8238 103.845C54.5321 104.085 54.1754 104.28 53.7535 104.431C53.3368 104.582 52.8525 104.658 52.3004 104.658ZM62.0676 102.806V98.7749C62.0676 98.4728 62.0129 98.2124 61.9035 97.9937C61.7941 97.7749 61.6275 97.6056 61.4035 97.4858C61.1847 97.366 60.9087 97.3062 60.5754 97.3062C60.2681 97.3062 60.0025 97.3582 59.7785 97.4624C59.5545 97.5666 59.3801 97.7072 59.2551 97.8843C59.1301 98.0614 59.0676 98.2619 59.0676 98.4858H57.1926C57.1926 98.1525 57.2733 97.8296 57.4347 97.5171C57.5962 97.2046 57.8306 96.9259 58.1379 96.6812C58.4452 96.4364 58.8123 96.2437 59.2394 96.103C59.6665 95.9624 60.1457 95.8921 60.6769 95.8921C61.3123 95.8921 61.8748 95.9989 62.3644 96.2124C62.8592 96.4259 63.2472 96.7489 63.5285 97.1812C63.815 97.6082 63.9582 98.1447 63.9582 98.7905V102.548C63.9582 102.934 63.9842 103.28 64.0363 103.587C64.0936 103.889 64.1743 104.153 64.2785 104.376V104.501H62.3488C62.2603 104.298 62.19 104.041 62.1379 103.728C62.091 103.41 62.0676 103.103 62.0676 102.806ZM62.341 99.3608L62.3566 100.525H61.0051C60.6561 100.525 60.3488 100.559 60.0832 100.626C59.8176 100.689 59.5962 100.783 59.4191 100.908C59.242 101.033 59.1092 101.184 59.0207 101.361C58.9321 101.538 58.8879 101.738 58.8879 101.962C58.8879 102.186 58.94 102.392 59.0441 102.58C59.1483 102.762 59.2993 102.905 59.4972 103.009C59.7004 103.113 59.9452 103.166 60.2316 103.166C60.617 103.166 60.953 103.087 61.2394 102.931C61.5311 102.77 61.7603 102.574 61.9269 102.345C62.0936 102.111 62.1821 101.889 62.1926 101.681L62.8019 102.517C62.7394 102.731 62.6327 102.96 62.4816 103.205C62.3306 103.449 62.1327 103.684 61.8879 103.908C61.6483 104.126 61.3592 104.306 61.0207 104.447C60.6873 104.587 60.3019 104.658 59.8644 104.658C59.3123 104.658 58.8202 104.548 58.3879 104.33C57.9556 104.106 57.617 103.806 57.3722 103.431C57.1275 103.051 57.0051 102.621 57.0051 102.142C57.0051 101.694 57.0884 101.298 57.2551 100.955C57.4269 100.606 57.6769 100.314 58.0051 100.08C58.3384 99.8452 58.7446 99.6681 59.2238 99.5483C59.703 99.4233 60.2498 99.3608 60.8644 99.3608H62.341ZM69.5301 103.158C69.8373 103.158 70.1134 103.098 70.3582 102.978C70.6082 102.853 70.8087 102.681 70.9597 102.462C71.116 102.244 71.2019 101.991 71.2176 101.705H72.991C72.9806 102.251 72.8191 102.749 72.5066 103.197C72.1941 103.645 71.7801 104.001 71.2644 104.267C70.7488 104.528 70.1785 104.658 69.5535 104.658C68.9077 104.658 68.3452 104.548 67.866 104.33C67.3868 104.106 66.9884 103.798 66.6707 103.408C66.353 103.017 66.1134 102.567 65.9519 102.056C65.7957 101.546 65.7176 100.999 65.7176 100.416V100.142C65.7176 99.5588 65.7957 99.0119 65.9519 98.5015C66.1134 97.9858 66.353 97.5327 66.6707 97.1421C66.9884 96.7515 67.3868 96.4468 67.866 96.228C68.3452 96.0041 68.9051 95.8921 69.5457 95.8921C70.2228 95.8921 70.8165 96.0275 71.3269 96.2983C71.8373 96.564 72.2384 96.9364 72.5301 97.4155C72.8269 97.8895 72.9806 98.4416 72.991 99.0718H71.2176C71.2019 98.7593 71.1238 98.478 70.9832 98.228C70.8478 97.9728 70.6551 97.7697 70.4051 97.6187C70.1603 97.4676 69.866 97.3921 69.5222 97.3921C69.142 97.3921 68.8269 97.4702 68.5769 97.6265C68.3269 97.7775 68.1316 97.9858 67.991 98.2515C67.8504 98.5119 67.7488 98.8062 67.6863 99.1343C67.629 99.4572 67.6004 99.7931 67.6004 100.142V100.416C67.6004 100.764 67.629 101.103 67.6863 101.431C67.7436 101.759 67.8426 102.054 67.9832 102.314C68.129 102.569 68.3269 102.775 68.5769 102.931C68.8269 103.082 69.1446 103.158 69.5301 103.158ZM76.4457 92.5015V104.501H74.5707V92.5015H76.4457ZM76.1176 99.9624L75.5082 99.9546C75.5134 99.3713 75.5941 98.8322 75.7504 98.3374C75.9118 97.8426 76.1358 97.4129 76.4222 97.0483C76.7139 96.6785 77.0629 96.3947 77.4691 96.1968C77.8754 95.9937 78.3259 95.8921 78.8207 95.8921C79.2373 95.8921 79.6123 95.9494 79.9457 96.064C80.2842 96.1785 80.5759 96.3634 80.8207 96.6187C81.0655 96.8687 81.2504 97.1968 81.3754 97.603C81.5056 98.0041 81.5707 98.4937 81.5707 99.0718V104.501H79.6801V99.0562C79.6801 98.6499 79.6202 98.327 79.5004 98.0874C79.3858 97.8478 79.2165 97.6759 78.9926 97.5718C78.7686 97.4624 78.4952 97.4077 78.1722 97.4077C77.8337 97.4077 77.5342 97.4754 77.2738 97.6108C77.0186 97.7463 76.8051 97.9312 76.6332 98.1655C76.4613 98.3999 76.3311 98.6707 76.2426 98.978C76.1592 99.2853 76.1176 99.6134 76.1176 99.9624ZM87.3535 104.658C86.7285 104.658 86.1634 104.556 85.6582 104.353C85.1582 104.145 84.7311 103.856 84.3769 103.486C84.028 103.116 83.7597 102.681 83.5722 102.181C83.3847 101.681 83.291 101.142 83.291 100.564V100.251C83.291 99.59 83.3873 98.991 83.5801 98.4546C83.7728 97.9181 84.041 97.4598 84.3847 97.0796C84.7285 96.6942 85.1347 96.3999 85.6035 96.1968C86.0722 95.9937 86.5801 95.8921 87.1269 95.8921C87.7311 95.8921 88.2597 95.9937 88.7129 96.1968C89.166 96.3999 89.541 96.6864 89.8379 97.0562C90.14 97.4207 90.3639 97.8556 90.5097 98.3608C90.6608 98.866 90.7363 99.4233 90.7363 100.033V100.837H84.2051V99.4858H88.8769V99.3374C88.8665 98.9989 88.7988 98.6812 88.6738 98.3843C88.554 98.0874 88.3691 97.8478 88.1191 97.6655C87.8691 97.4832 87.5358 97.3921 87.1191 97.3921C86.8066 97.3921 86.528 97.4598 86.2832 97.5952C86.0436 97.7254 85.8431 97.9155 85.6816 98.1655C85.5202 98.4155 85.3952 98.7176 85.3066 99.0718C85.2233 99.4207 85.1816 99.814 85.1816 100.251V100.564C85.1816 100.934 85.2311 101.278 85.3301 101.595C85.4342 101.908 85.5853 102.181 85.7832 102.416C85.9811 102.65 86.2207 102.835 86.5019 102.97C86.7832 103.1 87.1035 103.166 87.4629 103.166C87.916 103.166 88.3196 103.074 88.6738 102.892C89.028 102.71 89.3353 102.452 89.5957 102.119L90.5879 103.08C90.4056 103.345 90.1686 103.6 89.8769 103.845C89.5853 104.085 89.2285 104.28 88.8066 104.431C88.39 104.582 87.9056 104.658 87.3535 104.658ZM94.2457 97.6577V104.501H92.3629V96.0483H94.1597L94.2457 97.6577ZM96.8316 95.9937L96.816 97.7437C96.7014 97.7228 96.5764 97.7072 96.441 97.6968C96.3108 97.6864 96.1806 97.6812 96.0504 97.6812C95.7275 97.6812 95.4436 97.728 95.1988 97.8218C94.954 97.9103 94.7483 98.0405 94.5816 98.2124C94.4202 98.3791 94.2952 98.5822 94.2066 98.8218C94.1181 99.0614 94.066 99.3296 94.0504 99.6265L93.6207 99.6577C93.6207 99.1265 93.6728 98.6343 93.7769 98.1812C93.8811 97.728 94.0373 97.3296 94.2457 96.9858C94.4592 96.6421 94.7248 96.3739 95.0426 96.1812C95.3655 95.9884 95.7379 95.8921 96.1597 95.8921C96.2743 95.8921 96.3967 95.9025 96.5269 95.9233C96.6623 95.9442 96.7639 95.9676 96.8316 95.9937Z" fill="#263238"/>
</g>
<defs>
<filter id="filter0_ddd_817_53563" x="0.832031" y="0" width="136.146" height="136.109" filterUnits="userSpaceOnUse" color-interpolation-filters="sRGB">
<feFlood flood-opacity="0" result="BackgroundImageFix"/>
<feColorMatrix in="SourceAlpha" type="matrix" values="0 0 0 0 0 0 0 0 0 0 0 0 0 0 0 0 0 0 127 0" result="hardAlpha"/>
<feOffset dy="1"/>
<feGaussianBlur stdDeviation="6"/>
<feColorMatrix type="matrix" values="0 0 0 0 0 0 0 0 0 0 0 0 0 0 0 0 0 0 0.04 0"/>
<feBlend mode="normal" in2="BackgroundImageFix" result="effect1_dropShadow_817_53563"/>
<feColorMatrix in="SourceAlpha" type="matrix" values="0 0 0 0 0 0 0 0 0 0 0 0 0 0 0 0 0 0 127 0" result="hardAlpha"/>
<feOffset dy="4"/>
<feGaussianBlur stdDeviation="4"/>
<feColorMatrix type="matrix" values="0 0 0 0 0 0 0 0 0 0 0 0 0 0 0 0 0 0 0.08 0"/>
<feBlend mode="normal" in2="effect1_dropShadow_817_53563" result="effect2_dropShadow_817_53563"/>
<feColorMatrix in="SourceAlpha" type="matrix" values="0 0 0 0 0 0 0 0 0 0 0 0 0 0 0 0 0 0 127 0" result="hardAlpha"/>
<feOffset dy="3"/>
<feGaussianBlur stdDeviation="3"/>
<feColorMatrix type="matrix" values="0 0 0 0 0 0 0 0 0 0 0 0 0 0 0 0 0 0 0.1 0"/>
<feBlend mode="normal" in2="effect2_dropShadow_817_53563" result="effect3_dropShadow_817_53563"/>
<feBlend mode="normal" in="SourceGraphic" in2="effect3_dropShadow_817_53563" result="shape"/>
</filter>
<clipPath id="clip0_817_53563">
<rect width="112.146" height="112.109" fill="white" transform="translate(12.832 11)"/>
</clipPath>
</defs>
</svg>
