<svg width="143" height="183" viewBox="0 0 143 183" fill="none" xmlns="http://www.w3.org/2000/svg">
<g filter="url(#filter0_ddd_368_27651)">
<path d="M71.5625 117.875C97.7615 117.875 119 96.6365 119 70.4375C119 44.2385 97.7615 23 71.5625 23C45.3635 23 24.125 44.2385 24.125 70.4375C24.125 96.6365 45.3635 117.875 71.5625 117.875Z" fill="#C8D3D8"/>
<mask id="mask0_368_27651" style="mask-type:alpha" maskUnits="userSpaceOnUse" x="24" y="23" width="95" height="95">
<path d="M71.5625 117.875C97.7615 117.875 119 96.6365 119 70.4375C119 44.2385 97.7615 23 71.5625 23C45.3635 23 24.125 44.2385 24.125 70.4375C24.125 96.6365 45.3635 117.875 71.5625 117.875Z" fill="#C8D3D8"/>
</mask>
<g mask="url(#mask0_368_27651)">
<path d="M88.8067 121.062C88.7613 121.515 88.3773 121.859 87.9229 121.859H54.2075C53.7532 121.859 53.3691 121.515 53.3237 121.062C52.8884 116.676 53.6256 112.067 55.0899 107.551C55.7847 105.4 67.1184 106.148 68.0931 104.074C68.0931 104.074 86.3457 105.4 87.0405 107.551C88.5048 112.066 89.2421 116.676 88.8067 121.062Z" fill="#F9F3F1"/>
<path d="M56.9368 121.859H54.2075C53.7532 121.859 53.3691 121.515 53.3237 121.062C52.8884 116.676 53.6256 112.067 55.0899 107.551C55.7847 105.4 56.6436 103.272 57.6184 101.198H61.1919C58.149 107.923 56.2684 115.133 56.9368 121.859Z" fill="#F3EAE6"/>
<path d="M87.0408 107.55C83.0378 110.336 77.3602 112.074 71.0651 112.074C64.7699 112.074 59.0923 110.336 55.0894 107.55C55.784 105.4 56.6432 103.273 57.6185 101.198H84.5115C85.4871 103.273 86.3462 105.4 87.0408 107.55Z" fill="#F3EAE6"/>
<path d="M60.8833 77.1002C60.4515 77.8566 59.5259 78.1933 58.7089 77.8914C55.6497 76.7604 52.7897 74.6765 50.4961 71.8544C52.6749 66.8956 57.1794 63.1885 62.6289 62.1148C63.9698 67.56 63.2389 72.9718 60.8833 77.1002Z" fill="#F9F3F1"/>
<path d="M60.8841 77.0996C60.8137 77.2242 60.7287 77.3356 60.632 77.4367C60.1512 77.9497 59.3934 78.1432 58.7089 77.8911C53.5773 75.9944 49.0027 71.411 46.7293 65.1639C44.4559 58.9183 45.0129 52.4661 47.7245 47.7141C48.1569 46.9578 49.0818 46.6206 49.8997 46.9226C50.3468 47.0882 50.7909 47.2744 51.2277 47.481C55.8111 49.6313 59.8038 53.9494 61.8793 59.6498C64.1527 65.8968 63.5957 72.3491 60.8841 77.0996Z" fill="#F9F3F1"/>
<path d="M58.5608 70.1695C58.5285 70.3762 58.4904 70.5828 58.4494 70.7866C58.272 71.669 57.2182 72.053 56.5146 71.4916C54.1137 69.5773 52.1554 66.8276 50.9858 63.6146C49.8161 60.4017 49.5493 57.0363 50.1591 54.0271C50.3364 53.1447 51.3903 52.7622 52.0939 53.3221C52.6186 53.7398 53.1214 54.1971 53.5992 54.6911C55.3127 56.4588 56.7081 58.6882 57.6227 61.1991C58.7132 64.1951 59.0181 67.3215 58.5608 70.1695Z" fill="#FE646F"/>
<path d="M60.632 77.4367C60.1512 77.9497 59.3934 78.1432 58.7089 77.8911C53.5773 75.9944 49.0027 71.411 46.7293 65.1639C44.4559 58.9183 45.0129 52.4661 47.7245 47.7141C48.1569 46.9578 49.0818 46.6206 49.8997 46.9226C50.3468 47.0882 50.7909 47.2744 51.2277 47.481C48.5175 52.343 47.981 58.8934 50.2911 65.2358C52.3314 70.8423 56.1761 75.1443 60.632 77.4367Z" fill="#F3EAE6"/>
<path d="M60.8833 77.1002C60.4515 77.8566 59.5259 78.1933 58.7089 77.8914C55.6497 76.7604 52.7897 74.6765 50.4961 71.8544C52.6749 66.8956 57.1794 63.1885 62.6289 62.1148C63.9698 67.56 63.2389 72.9718 60.8833 77.1002Z" fill="#F3EAE6"/>
<path d="M58.4507 70.7868C58.271 71.6686 57.2186 72.0522 56.5149 71.492C55.2224 70.4607 54.0581 69.1893 53.0781 67.7322C54.5261 66.0274 56.3095 64.6141 58.3238 63.5963C58.8705 66.0501 58.9098 68.5189 58.4507 70.7868Z" fill="#FD4755"/>
<path d="M58.4507 70.7868C58.271 71.6686 57.2186 72.0522 56.5149 71.492C55.2224 70.4607 54.0581 69.1893 53.0781 67.7322C54.5261 66.0274 56.3095 64.6141 58.3238 63.5963C58.8705 66.0501 58.9098 68.5189 58.4507 70.7868Z" fill="#FD4755"/>
<path d="M58.5608 70.1695C58.5285 70.3762 58.4904 70.5828 58.4494 70.7866C58.272 71.669 57.2182 72.053 56.5146 71.4916C54.1137 69.5773 52.1554 66.8276 50.9858 63.6146C49.8161 60.4017 49.5493 57.0363 50.1591 54.0271C50.3364 53.1447 51.3903 52.7622 52.0939 53.3221C52.6186 53.7398 53.1214 54.1971 53.5992 54.6911C53.2108 57.5596 53.5508 60.6772 54.6399 63.6689C54.8715 64.3065 55.1324 64.9265 55.4211 65.526C56.2581 67.2658 57.3237 68.8327 58.5608 70.1695Z" fill="#FD4755"/>
<path d="M95.4011 65.1639C93.3255 70.8657 89.3328 75.1824 84.7494 77.3341C84.3126 77.5393 83.8685 77.7255 83.4214 77.8911C82.6035 78.193 81.6786 77.8574 81.2462 77.0996C78.5346 72.3491 77.9776 65.8968 80.251 59.6498C82.5244 53.4042 87.099 48.8193 92.2306 46.9226C92.9151 46.6705 93.6729 46.864 94.1537 47.377C94.2504 47.4781 94.3355 47.5895 94.4058 47.7141C97.1175 52.4661 97.6744 58.9183 95.4011 65.1639Z" fill="#F9F3F1"/>
<path d="M91.1447 63.6146C90.23 66.1255 88.8346 68.3549 87.1212 70.1226C86.6433 70.6165 86.1406 71.0739 85.6158 71.4916C84.9123 72.053 83.8584 71.669 83.681 70.7866C83.0713 67.7774 83.3381 64.4135 84.5077 61.1991C85.6774 57.9861 87.6357 55.2364 90.0366 53.3221C90.7401 52.7622 91.794 53.1447 91.9714 54.0271C92.0124 54.2323 92.0505 54.4375 92.0828 54.6457C92.5401 57.4936 92.2352 60.6201 91.1447 63.6146Z" fill="#FE646F"/>
<path d="M83.8128 59.5779C81.5027 65.9217 82.0392 72.4722 84.7494 77.3341C84.3126 77.5393 83.8685 77.7255 83.4214 77.8911C82.6035 78.193 81.6786 77.8574 81.2462 77.0996C78.5346 72.3491 77.9776 65.8968 80.251 59.6498C82.5244 53.4042 87.099 48.8193 92.2306 46.9226C92.9151 46.6705 93.6729 46.864 94.1537 47.377C89.6978 49.6709 85.8531 53.9729 83.8128 59.5779Z" fill="#F3EAE6"/>
<path d="M88.1619 61.1448C87.0728 64.1379 86.7328 67.2541 87.1212 70.1226C86.6433 70.6165 86.1406 71.0739 85.6158 71.4916C84.9123 72.053 83.8584 71.669 83.681 70.7866C83.0713 67.7774 83.3381 64.4135 84.5077 61.1991C85.6774 57.9861 87.6357 55.2364 90.0366 53.3221C90.7401 52.7622 91.794 53.1447 91.9714 54.0271C92.0124 54.2323 92.0505 54.4375 92.0828 54.6457C90.4191 56.4427 89.0662 58.6604 88.1619 61.1448Z" fill="#FD4755"/>
<path d="M93.0178 94.9598C93.0178 102.84 83.3673 109.239 71.395 109.354C71.2851 109.356 71.1751 109.356 71.0652 109.356H71.0007C58.9053 109.333 49.1125 102.897 49.1125 94.9598C49.1125 92.5384 50.0242 90.2562 51.6351 88.2525C51.7099 88.1587 51.7524 88.0429 51.7524 87.9227V81.2814C51.7524 71.9943 59.2805 64.4662 68.5675 64.4662H73.5628C82.8499 64.4662 90.378 71.9943 90.378 81.2814V87.9227C90.378 88.0429 90.4205 88.1587 90.4953 88.2525C92.1061 90.2562 93.0178 92.5384 93.0178 94.9598Z" fill="#FAF7F7"/>
<path d="M62.0054 84.7143C63.3814 84.7143 64.4969 83.5988 64.4969 82.2228C64.4969 80.8467 63.3814 79.7313 62.0054 79.7313C60.6294 79.7313 59.5139 80.8467 59.5139 82.2228C59.5139 83.5988 60.6294 84.7143 62.0054 84.7143Z" fill="#8D9CA8"/>
<path d="M80.125 84.7143C81.5011 84.7143 82.6165 83.5988 82.6165 82.2228C82.6165 80.8467 81.5011 79.7313 80.125 79.7313C78.749 79.7313 77.6335 80.8467 77.6335 82.2228C77.6335 83.5988 78.749 84.7143 80.125 84.7143Z" fill="#8D9CA8"/>
<path d="M75.6647 96.5618L74.7017 102.816C74.6562 103.111 74.4041 103.329 74.1051 103.329H72.1644L70.8998 101.641L69.9658 103.329H68.0251C67.7261 103.329 67.474 103.111 67.4286 102.816L66.4656 96.5618C66.64 96.5868 66.8159 96.5985 66.9962 96.5985C68.1571 96.5985 69.2065 96.1133 69.9497 95.335C70.1432 95.1342 70.3147 94.9143 70.4642 94.6783H71.6661C71.8156 94.9143 71.9871 95.1342 72.1806 95.335C72.9237 96.1133 73.9732 96.5985 75.1341 96.5985C75.3144 96.5985 75.4902 96.5868 75.6647 96.5618Z" fill="#F3EAE6"/>
<path d="M72.8065 109.302C72.3389 109.33 71.8684 109.346 71.395 109.354C71.2631 109.355 71.1326 109.356 71.0007 109.356C58.9053 109.333 49.1125 102.897 49.1125 94.9598C49.1125 92.5384 50.0242 90.2562 51.6351 88.2525C51.7099 88.1587 51.7524 88.0429 51.7524 87.9227V81.2814C51.7524 71.9943 59.2805 64.4662 68.5675 64.4662H72.1968C62.9097 64.4662 55.3801 71.9943 55.3801 81.2814V87.9242C55.3801 88.0429 55.3391 88.1587 55.2629 88.2525C53.6535 90.2547 52.7418 92.5384 52.7418 94.9598C52.7418 102.494 61.5656 108.675 72.8065 109.302Z" fill="#F9F3F1"/>
<path d="M72.1645 100.752V103.329H69.9658V100.752C69.9658 100.146 70.4583 99.6531 71.0651 99.6531C71.672 99.6531 72.1645 100.146 72.1645 100.752Z" fill="#F9F3F1"/>
<path d="M75.0027 97.5431C73.4109 97.5431 71.9889 96.8006 71.0654 95.644C70.1418 96.8006 68.72 97.5431 67.128 97.5431C65.6665 97.5431 64.2789 96.9093 63.3209 95.8042C62.9232 95.3454 62.9728 94.6511 63.4316 94.2535C63.8905 93.8559 64.5847 93.9055 64.9823 94.3641C65.5223 94.9871 66.3044 95.3444 67.128 95.3444C68.6929 95.3444 69.966 94.0713 69.966 92.5064C69.966 91.8993 70.4582 91.4071 71.0654 91.4071C71.6726 91.4071 72.1647 91.8993 72.1647 92.5064C72.1647 94.0713 73.4378 95.3444 75.0027 95.3444C75.8261 95.3444 76.6083 94.9871 77.1484 94.3641C77.5461 93.9052 78.2404 93.8559 78.6992 94.2536C79.158 94.6513 79.2073 95.3456 78.8097 95.8044C77.8517 96.9093 76.464 97.5431 75.0027 97.5431Z" fill="#7A8C98"/>
<path d="M75.351 88.1851V88.3463C75.351 90.0011 74.3866 91.4288 72.9882 92.0986C72.4444 92.3595 71.8347 92.5061 71.1912 92.5061H70.9391C68.6423 92.5061 66.7793 90.6446 66.7793 88.3463V88.1851C66.7793 87.5372 67.304 87.0125 67.9519 87.0125H74.1784C74.8263 87.0125 75.351 87.5372 75.351 88.1851Z" fill="#FE646F"/>
<path d="M72.9882 92.0986C72.4444 92.3595 71.8347 92.5061 71.1912 92.5061H70.9391C68.6423 92.5061 66.7793 90.6446 66.7793 88.3463V88.1851C66.7793 87.5372 67.304 87.0125 67.9519 87.0125H71.2689C71.0197 87.2543 70.8658 87.5929 70.8658 87.9681V88.1513C70.8658 89.8018 71.7086 91.2527 72.9882 92.0986Z" fill="#FD4755"/>
</g>
</g>
<g filter="url(#filter1_ddd_368_27651)">
<path d="M40.6406 147.57L37.5469 157H35.0547L39.2812 145.625H40.8672L40.6406 147.57ZM43.2109 157L40.1094 147.57L39.8594 145.625H41.4609L45.7109 157H43.2109ZM43.0703 152.766V154.602H37.0625V152.766H43.0703ZM56.1734 145.625V157H53.8297L49.2594 149.375V157H46.9156V145.625H49.2594L53.8375 153.258V145.625H56.1734ZM60.8547 145.625V157H58.5187V145.625H60.8547ZM64.2703 145.625H66.2547L69.1766 153.977L72.0984 145.625H74.0828L69.9734 157H68.3797L64.2703 145.625ZM63.2 145.625H65.1766L65.5359 153.766V157H63.2V145.625ZM73.1766 145.625H75.1609V157H72.8172V153.766L73.1766 145.625ZM82.1312 147.57L79.0375 157H76.5453L80.7719 145.625H82.3578L82.1312 147.57ZM84.7016 157L81.6 147.57L81.35 145.625H82.9516L87.2016 157H84.7016ZM84.5609 152.766V154.602H78.5531V152.766H84.5609ZM95.7188 155.172V157H89.9922V155.172H95.7188ZM90.75 145.625V157H88.4062V145.625H90.75ZM103.134 154.023C103.134 153.82 103.103 153.638 103.041 153.477C102.983 153.31 102.874 153.159 102.713 153.023C102.551 152.883 102.324 152.745 102.033 152.609C101.741 152.474 101.364 152.333 100.9 152.188C100.384 152.021 99.8948 151.833 99.4313 151.625C98.9729 151.417 98.5667 151.174 98.2125 150.898C97.8635 150.617 97.5875 150.292 97.3844 149.922C97.1865 149.552 97.0875 149.122 97.0875 148.633C97.0875 148.159 97.1917 147.729 97.4 147.344C97.6083 146.953 97.9 146.62 98.275 146.344C98.65 146.062 99.0927 145.846 99.6031 145.695C100.119 145.544 100.684 145.469 101.298 145.469C102.137 145.469 102.869 145.62 103.494 145.922C104.119 146.224 104.603 146.638 104.947 147.164C105.296 147.69 105.47 148.292 105.47 148.969H103.142C103.142 148.635 103.072 148.344 102.931 148.094C102.796 147.839 102.588 147.638 102.306 147.492C102.03 147.346 101.681 147.273 101.259 147.273C100.853 147.273 100.515 147.336 100.244 147.461C99.9729 147.581 99.7698 147.745 99.6344 147.953C99.499 148.156 99.4313 148.385 99.4313 148.641C99.4313 148.833 99.4781 149.008 99.5719 149.164C99.6708 149.32 99.8167 149.466 100.009 149.602C100.202 149.737 100.439 149.865 100.72 149.984C101.002 150.104 101.327 150.221 101.697 150.336C102.317 150.523 102.861 150.734 103.33 150.969C103.804 151.203 104.199 151.466 104.517 151.758C104.835 152.049 105.074 152.38 105.236 152.75C105.397 153.12 105.478 153.539 105.478 154.008C105.478 154.503 105.382 154.945 105.189 155.336C104.996 155.727 104.718 156.057 104.353 156.328C103.989 156.599 103.554 156.805 103.048 156.945C102.543 157.086 101.978 157.156 101.353 157.156C100.791 157.156 100.236 157.083 99.6891 156.938C99.1422 156.786 98.6448 156.56 98.1969 156.258C97.7542 155.956 97.4 155.57 97.1344 155.102C96.8688 154.633 96.7359 154.078 96.7359 153.438H99.0875C99.0875 153.792 99.1422 154.091 99.2516 154.336C99.3609 154.581 99.5146 154.779 99.7125 154.93C99.9156 155.081 100.155 155.19 100.431 155.258C100.713 155.326 101.02 155.359 101.353 155.359C101.759 155.359 102.093 155.302 102.353 155.188C102.619 155.073 102.814 154.914 102.939 154.711C103.069 154.508 103.134 154.279 103.134 154.023Z" fill="#F7B239"/>
</g>
<defs>
<filter id="filter0_ddd_368_27651" x="-1" y="-6" width="147" height="150" filterUnits="userSpaceOnUse" color-interpolation-filters="sRGB">
<feFlood flood-opacity="0" result="BackgroundImageFix"/>
<feColorMatrix in="SourceAlpha" type="matrix" values="0 0 0 0 0 0 0 0 0 0 0 0 0 0 0 0 0 0 127 0" result="hardAlpha"/>
<feOffset dy="1"/>
<feGaussianBlur stdDeviation="12"/>
<feColorMatrix type="matrix" values="0 0 0 0 0 0 0 0 0 0 0 0 0 0 0 0 0 0 0.12 0"/>
<feBlend mode="normal" in2="BackgroundImageFix" result="effect1_dropShadow_368_27651"/>
<feColorMatrix in="SourceAlpha" type="matrix" values="0 0 0 0 0 0 0 0 0 0 0 0 0 0 0 0 0 0 127 0" result="hardAlpha"/>
<feOffset dy="8"/>
<feGaussianBlur stdDeviation="8"/>
<feColorMatrix type="matrix" values="0 0 0 0 0 0 0 0 0 0 0 0 0 0 0 0 0 0 0.12 0"/>
<feBlend mode="normal" in2="effect1_dropShadow_368_27651" result="effect2_dropShadow_368_27651"/>
<feColorMatrix in="SourceAlpha" type="matrix" values="0 0 0 0 0 0 0 0 0 0 0 0 0 0 0 0 0 0 127 0" result="hardAlpha"/>
<feOffset dy="6"/>
<feGaussianBlur stdDeviation="6"/>
<feColorMatrix type="matrix" values="0 0 0 0 0 0 0 0 0 0 0 0 0 0 0 0 0 0 0.12 0"/>
<feBlend mode="normal" in2="effect2_dropShadow_368_27651" result="effect3_dropShadow_368_27651"/>
<feBlend mode="normal" in="SourceGraphic" in2="effect3_dropShadow_368_27651" result="shape"/>
</filter>
<filter id="filter1_ddd_368_27651" x="11.0547" y="122.469" width="118.423" height="59.6875" filterUnits="userSpaceOnUse" color-interpolation-filters="sRGB">
<feFlood flood-opacity="0" result="BackgroundImageFix"/>
<feColorMatrix in="SourceAlpha" type="matrix" values="0 0 0 0 0 0 0 0 0 0 0 0 0 0 0 0 0 0 127 0" result="hardAlpha"/>
<feOffset dy="1"/>
<feGaussianBlur stdDeviation="12"/>
<feColorMatrix type="matrix" values="0 0 0 0 0 0 0 0 0 0 0 0 0 0 0 0 0 0 0.12 0"/>
<feBlend mode="normal" in2="BackgroundImageFix" result="effect1_dropShadow_368_27651"/>
<feColorMatrix in="SourceAlpha" type="matrix" values="0 0 0 0 0 0 0 0 0 0 0 0 0 0 0 0 0 0 127 0" result="hardAlpha"/>
<feOffset dy="8"/>
<feGaussianBlur stdDeviation="8"/>
<feColorMatrix type="matrix" values="0 0 0 0 0 0 0 0 0 0 0 0 0 0 0 0 0 0 0.12 0"/>
<feBlend mode="normal" in2="effect1_dropShadow_368_27651" result="effect2_dropShadow_368_27651"/>
<feColorMatrix in="SourceAlpha" type="matrix" values="0 0 0 0 0 0 0 0 0 0 0 0 0 0 0 0 0 0 127 0" result="hardAlpha"/>
<feOffset dy="6"/>
<feGaussianBlur stdDeviation="6"/>
<feColorMatrix type="matrix" values="0 0 0 0 0 0 0 0 0 0 0 0 0 0 0 0 0 0 0.12 0"/>
<feBlend mode="normal" in2="effect2_dropShadow_368_27651" result="effect3_dropShadow_368_27651"/>
<feBlend mode="normal" in="SourceGraphic" in2="effect3_dropShadow_368_27651" result="shape"/>
</filter>
</defs>
</svg>
